<svg id="b53eb9d2-14dc-4384-a93f-12646d30d49f" data-name="Layer 1" xmlns="http://www.w3.org/2000/svg" xmlns:xlink="http://www.w3.org/1999/xlink" viewBox="0 0 804.86 132.48"><defs><style>.ef9c01c6-0bbb-4c73-9761-00618ea949c9{fill:url(#fbb76f50-9ab9-46cb-a9f5-a3914965b401);}.b581e394-cc7d-4ac6-8c80-da3c0bc667f7{fill:#fff;}.aa285942-b529-481d-8a06-e627a7b2d86c{fill:url(#b9fff171-613d-4953-839d-92051e434d52);}</style><linearGradient id="fbb76f50-9ab9-46cb-a9f5-a3914965b401" x1="185.55" y1="97.92" x2="185.55" gradientUnits="userSpaceOnUse"><stop offset="0" stop-color="#fcee21"/><stop offset="0.23" stop-color="#f4e51c"/><stop offset="0.61" stop-color="#ddcb10"/><stop offset="1" stop-color="#bfaa00"/></linearGradient><linearGradient id="b9fff171-613d-4953-839d-92051e434d52" x1="591.59" y1="97.01" x2="591.59" y2="1.04" xlink:href="#fbb76f50-9ab9-46cb-a9f5-a3914965b401"/></defs><path class="ef9c01c6-0bbb-4c73-9761-00618ea949c9" d="M6.58,48.84q0,3.28-3.29,3.29T0,48.84q0-3.29,3.29-3.29T6.58,48.84Zm.61,8.28q0,3.29-3.29,3.29T.61,57.12q0-3.28,3.29-3.29T7.19,57.12ZM7.31,40.8q0,3.29-3.29,3.29T.73,40.8q0-3.28,3.29-3.29T7.31,40.8ZM9.38,65.4q0,3.28-3.29,3.29T2.8,65.4q0-3.29,3.29-3.29T9.38,65.4Zm.24-33c0,2.19-1.09,3.28-3.29,3.28S3,34.59,3,32.4s1.1-3.29,3.29-3.29S9.62,30.2,9.62,32.4Zm3.65,40.92q0,3.29-3.28,3.29c-2.2,0-3.29-1.1-3.29-3.29S7.79,70,10,70,13.27,71.13,13.27,73.32Zm.13-48.6c0,2.2-1.1,3.29-3.29,3.29s-3.29-1.09-3.29-3.29,1.1-3.28,3.29-3.28S13.4,22.53,13.4,24.72Zm1.46,24.36q0,3.29-3.29,3.29T8.28,49.08q0-3.28,3.29-3.29T14.86,49.08Zm.73-8.4Q15.59,44,12.3,44T9,40.68q0-3.28,3.29-3.29T15.59,40.68Zm.49,16.56q0,3.28-3.29,3.29T9.5,57.24Q9.5,54,12.79,54T16.08,57.24Zm2.19,22.65c0,2.2-1.1,3.29-3.29,3.29s-3.29-1.09-3.29-3.29,1.1-3.28,3.29-3.28S18.27,77.7,18.27,79.89Zm0-61.87c0,2.2-1.1,3.29-3.29,3.29S11.81,20.22,11.81,18s1.06-3.28,3.17-3.28S18.27,15.83,18.27,18Zm.12,47.75q0,3.28-3.29,3.29t-3.29-3.29c0-2.2,1.1-3.29,3.29-3.29S18.39,63.57,18.39,65.77Zm0-33.5c0,2.2-1.06,3.29-3.17,3.29s-3.28-1.09-3.28-3.29S13,29,15.22,29,18.39,30.08,18.39,32.27Zm4.26,40.19c0,2.2-1.09,3.29-3.29,3.29s-3.28-1.09-3.28-3.29,1.09-3.28,3.28-3.28S22.65,70.27,22.65,72.46ZM22.9,49q0,3.28-3.29,3.29T16.32,49q0-3.28,3.29-3.29T22.9,49ZM23,25.58q0,3.29-3.29,3.28t-3.17-3.28c0-2.2,1.06-3.29,3.17-3.29S23,23.38,23,25.58Zm.61,30.93q0,3.29-3.29,3.29t-3.29-3.29q0-3.28,3.29-3.29T23.63,56.51ZM24,40.68C24,42.87,22.9,44,20.7,44s-3.28-1.1-3.28-3.29,1.09-3.29,3.28-3.29S24,38.49,24,40.68Zm.37,44.7q0,3.28-3.29,3.28t-3.29-3.28c0-2.12,1.1-3.17,3.29-3.17S24.36,83.26,24.36,85.38Zm.12-73q0,3.28-3.29,3.29T17.9,12.42q0-3.28,3.29-3.29T24.48,12.42Zm1.95,52q0,3.28-3.29,3.29t-3.29-3.29c0-2.2,1.1-3.29,3.29-3.29S26.43,62.23,26.43,64.43Zm1-31.55c0,2.2-1.09,3.29-3.29,3.29s-3.28-1.09-3.28-3.29,1.09-3.28,3.28-3.28S27.4,30.69,27.4,32.88Zm1.34-13.52c0,2.2-1.09,3.29-3.29,3.29s-3.28-1.09-3.28-3.29,1.09-3.28,3.28-3.28S28.74,17.17,28.74,19.36Zm0,59.19c0,2.2-1.09,3.29-3.29,3.29s-3.28-1.09-3.28-3.29,1.09-3.28,3.28-3.28S28.74,76.36,28.74,78.55Zm2.68,11.33c0,2.19-1.09,3.29-3.29,3.29s-3.28-1.1-3.28-3.29,1.09-3.29,3.28-3.29S31.42,87.69,31.42,89.88ZM31.54,8q0,3.29-3.28,3.29C26.06,11.33,25,10.23,25,8s1.09-3.29,3.29-3.29S31.54,5.85,31.54,8Zm.37,62.6q0,3.28-3.29,3.29t-3.29-3.29q0-3.28,3.29-3.29T31.91,70.64Zm.85-44c0,2.19-1.09,3.29-3.29,3.29s-3.28-1.1-3.28-3.29,1.09-3.29,3.28-3.29S32.76,24.48,32.76,26.67Zm2.68-11.45c0,2.2-1.1,3.29-3.29,3.29s-3.29-1.09-3.29-3.29,1.1-3.28,3.29-3.28S35.44,13,35.44,15.22Zm.24,67.72q0,3.28-3.28,3.29c-2.2,0-3.29-1.1-3.29-3.29s1.09-3.29,3.29-3.29S35.68,80.75,35.68,82.94Zm2.93-7.67q0,3.28-3.29,3.28T32,75.27c0-2.2,1.1-3.29,3.29-3.29S38.61,73.07,38.61,75.27ZM39.09,5c0,2.2-1.05,3.29-3.16,3.29S32.64,7.19,32.64,5s1.1-3.28,3.29-3.28S39.09,2.8,39.09,5Zm.13,87.94q0,3.28-3.29,3.28t-3.29-3.28c0-2.2,1.1-3.29,3.29-3.29S39.22,90.73,39.22,92.93ZM40.07,22c0,2.2-1.1,3.29-3.29,3.29S33.49,24.24,33.49,22s1.1-3.28,3.29-3.28S40.07,19.85,40.07,22ZM43,12.42c0,2.19-1.09,3.29-3.29,3.29s-3.28-1.1-3.28-3.29,1.09-3.29,3.28-3.29S43,10.23,43,12.42Zm1,73.2q0,3.28-3.29,3.29t-3.29-3.29q0-3.28,3.29-3.29T44,85.62Zm2.43-7.8c0,2.2-1.09,3.29-3.29,3.29S39.83,80,39.83,77.82s1.09-3.28,3.28-3.28S46.4,75.63,46.4,77.82Zm1.1,16.81q0,3.28-3.29,3.29t-3.29-3.29q0-3.28,3.29-3.29T47.5,94.63Zm.36-91.22q0,3.28-3.28,3.29c-2.2,0-3.29-1.1-3.29-3.29S42.38.12,44.58.12,47.86,1.22,47.86,3.41Zm.61,16.32c0,2.19-1.09,3.29-3.29,3.29s-3.28-1.1-3.28-3.29,1.09-3.29,3.28-3.29S48.47,17.54,48.47,19.73Zm2.93-8.28q0,3.29-3.29,3.29t-3.29-3.29q0-3.28,3.29-3.29T51.4,11.45Zm.48,75q0,3.28-3.16,3.29c-2.2,0-3.29-1.1-3.29-3.29s1.09-3.29,3.29-3.29S51.88,84.28,51.88,86.47Zm2.93-8.28q0,3.28-3.29,3.29c-2.2,0-3.29-1.1-3.29-3.29s1.09-3.29,3.29-3.29S54.81,76,54.81,78.19Zm.6,16.32q0,3.28-3.28,3.29c-2.2,0-3.29-1.1-3.29-3.29s1.09-3.29,3.29-3.29S55.41,92.32,55.41,94.51Zm.37-91.22q0,3.29-3.29,3.29T49.2,3.29Q49.2,0,52.49,0T55.78,3.29ZM56.88,20c0,2.2-1.1,3.29-3.29,3.29S50.3,22.17,50.3,20s1.1-3.28,3.29-3.28S56.88,17.78,56.88,20Zm2.43-7.79q0,3.29-3.16,3.29c-2.2,0-3.29-1.1-3.29-3.29S54,8.89,56.15,8.89,59.31,10,59.31,12.18Zm1,73.32q0,3.28-3.29,3.29T53.71,85.5c0-2.2,1.1-3.29,3.29-3.29S60.29,83.3,60.29,85.5Zm3-9.62q0,3.28-3.29,3.28t-3.29-3.28c0-2.2,1.1-3.29,3.29-3.29S63.33,73.68,63.33,75.88ZM64.06,5c0,2.2-1.09,3.29-3.29,3.29S57.48,7.19,57.48,5s1.1-3.28,3.29-3.28S64.06,2.8,64.06,5Zm.12,87.81c0,2.2-1.09,3.29-3.28,3.29S57.61,95,57.61,92.8s1.09-3.28,3.29-3.28S64.18,90.61,64.18,92.8Zm.49-70.15c0,2.2-1.1,3.29-3.29,3.29s-3.29-1.09-3.29-3.29,1.1-3.29,3.29-3.29S64.67,20.46,64.67,22.65ZM67.59,15q0,3.29-3.28,3.29c-2.2,0-3.29-1.1-3.29-3.29s1.09-3.29,3.29-3.29S67.59,12.79,67.59,15Zm.25,67.72q0,3.28-3.29,3.28T61.38,82.7c0-2.2,1.06-3.29,3.17-3.29S67.84,80.5,67.84,82.7Zm2.68-11.45q0,3.28-3.29,3.29t-3.29-3.29q0-3.28,3.29-3.29T70.52,71.25Zm.85-44q0,3.28-3.29,3.29t-3.29-3.29q0-3.29,3.29-3.29T71.37,27.28ZM71.86,8q0,3.29-3.29,3.29T65.28,8q0-3.28,3.29-3.29T71.86,8Zm-.13,81.84q0,3.28-3.16,3.29t-3.29-3.29q0-3.28,3.29-3.29T71.73,89.88Zm2.81-70.52c0,2.2-1.1,3.29-3.29,3.29S68,21.56,68,19.36s1.09-3.28,3.29-3.28S74.54,17.17,74.54,19.36Zm0,59.07q0,3.28-3.29,3.29c-2.2,0-3.29-1.1-3.29-3.29s1.09-3.29,3.29-3.29S74.54,76.24,74.54,78.43ZM75.88,65q0,3.28-3.29,3.28c-2.2,0-3.29-1.09-3.29-3.28s1.09-3.29,3.29-3.29S75.88,62.84,75.88,65Zm1-31.55q0,3.28-3.29,3.29t-3.29-3.29q0-3.29,3.29-3.29T76.85,33.49Zm2,52q0,3.28-3.29,3.29T72.22,85.5c0-2.2,1.1-3.29,3.29-3.29S78.8,83.3,78.8,85.5Zm.12-73.08q0,3.28-3.29,3.29t-3.29-3.29q0-3.28,3.29-3.29T78.92,12.42Zm.37,44.7q0,3.29-3.29,3.29c-2.2,0-3.29-1.1-3.29-3.29S73.8,54,76,54,79.29,55,79.29,57.12Zm.36-15.71q0,3.29-3.29,3.29t-3.29-3.29q0-3.28,3.29-3.29T79.65,41.41Zm.61,30.93c0,2.2-1.1,3.29-3.29,3.29s-3.29-1.09-3.29-3.29,1.1-3.28,3.29-3.28S80.26,70.15,80.26,72.34ZM80.38,49c0,2.19-1.09,3.29-3.29,3.29S73.8,51.15,73.8,49s1.1-3.29,3.29-3.29S80.38,46.77,80.38,49Zm.24-23.51c0,2.2-1.09,3.29-3.28,3.29s-3.29-1.09-3.29-3.29,1.09-3.28,3.29-3.28S80.62,23.26,80.62,25.45Zm4.27,6.7q0,3.29-3.29,3.29t-3.29-3.29q0-3.28,3.29-3.29T84.89,32.15Zm0,33.37c0,2.2-1.1,3.29-3.29,3.29s-3.29-1.09-3.29-3.29,1.1-3.29,3.29-3.29S84.89,63.33,84.89,65.52ZM85,18c0,2.2-1.1,3.29-3.29,3.29S78.43,20.22,78.43,18s1.1-3.28,3.29-3.28S85,15.83,85,18Zm0,61.75q0,3.28-3.29,3.29t-3.29-3.29q0-3.28,3.29-3.29T85,79.77ZM87.2,40.56c0,2.19-1.09,3.28-3.29,3.28s-3.29-1.09-3.29-3.28,1.1-3.29,3.29-3.29S87.2,38.36,87.2,40.56Zm.49,16.56q0,3.29-3.29,3.29t-3.29-3.29q0-3.28,3.29-3.29T87.69,57.12Zm.73-8.28q0,3.28-3.29,3.29t-3.29-3.29q0-3.29,3.29-3.29T88.42,48.84ZM89.88,73.2q0,3.28-3.29,3.28T83.3,73.2c0-2.2,1.1-3.29,3.29-3.29S89.88,71,89.88,73.2ZM90,24.6c0,2.19-1.09,3.29-3.29,3.29s-3.28-1.1-3.28-3.29,1.09-3.29,3.28-3.29S90,22.41,90,24.6Zm3.66,40.92c0,2.2-1.1,3.29-3.29,3.29s-3.29-1.09-3.29-3.29,1.1-3.29,3.29-3.29S93.66,63.33,93.66,65.52Zm.24-33q0,3.28-3.29,3.29t-3.29-3.29q0-3.29,3.29-3.29T93.9,32.52ZM96,57.12q0,3.29-3.29,3.29t-3.29-3.29q0-3.28,3.29-3.29T96,57.12Zm.12-16.32c0,2.19-1.09,3.29-3.29,3.29S89.52,43,89.52,40.8s1.09-3.29,3.28-3.29S96.09,38.61,96.09,40.8Zm.61,8.28q0,3.29-3.29,3.29t-3.29-3.29q0-3.28,3.29-3.29T96.7,49.08Z"/><path class="ef9c01c6-0bbb-4c73-9761-00618ea949c9" d="M113.39,5.85q0,3.4-3.41,3.41t-3.42-3.41c0-2.28,1.14-3.41,3.42-3.41S113.39,3.57,113.39,5.85Zm0,8.52c0,2.28-1.14,3.41-3.41,3.41s-3.42-1.13-3.42-3.41S107.7,11,110,11,113.39,12.1,113.39,14.37Zm0,8.53q0,3.41-3.41,3.41t-3.42-3.41c0-2.28,1.14-3.41,3.42-3.41S113.39,20.62,113.39,22.9Zm0,8.4q0,3.4-3.41,3.41t-3.42-3.41q0-3.4,3.42-3.41T113.39,31.3Zm0,8.53q0,3.41-3.41,3.41t-3.42-3.41c0-2.28,1.14-3.41,3.42-3.41S113.39,37.55,113.39,39.83Zm0,8.52q0,3.4-3.41,3.41t-3.42-3.41q0-3.41,3.42-3.41T113.39,48.35Zm0,8.53q0,3.4-3.41,3.41t-3.42-3.41c0-2.28,1.14-3.41,3.42-3.41S113.39,54.6,113.39,56.88Zm0,8.52c0,2.28-1.14,3.41-3.41,3.41s-3.42-1.13-3.42-3.41S107.7,62,110,62,113.39,63.13,113.39,65.4Zm0,8.4c0,2.28-1.14,3.41-3.41,3.41s-3.42-1.13-3.42-3.41,1.14-3.41,3.42-3.41S113.39,71.53,113.39,73.8Zm0,8.53q0,3.4-3.41,3.41t-3.42-3.41q0-3.4,3.42-3.41T113.39,82.33Zm0,8.53q0,3.4-3.41,3.41t-3.42-3.41c0-2.28,1.14-3.41,3.42-3.41S113.39,88.58,113.39,90.86Zm8.64-85q0,3.4-3.41,3.41t-3.41-3.41c0-2.28,1.14-3.41,3.41-3.41S122,3.57,122,5.85Zm0,8.52c0,2.28-1.14,3.41-3.41,3.41s-3.41-1.13-3.41-3.41S116.35,11,118.62,11,122,12.1,122,14.37Zm0,8.53q0,3.41-3.41,3.41t-3.41-3.41c0-2.28,1.14-3.41,3.41-3.41S122,20.62,122,22.9Zm0,8.4q0,3.4-3.41,3.41t-3.41-3.41q0-3.4,3.41-3.41T122,31.3Zm0,8.53q0,3.41-3.41,3.41t-3.41-3.41c0-2.28,1.14-3.41,3.41-3.41S122,37.55,122,39.83Zm0,8.52q0,3.4-3.41,3.41t-3.41-3.41q0-3.41,3.41-3.41T122,48.35Zm0,8.53q0,3.4-3.41,3.41t-3.41-3.41c0-2.28,1.14-3.41,3.41-3.41S122,54.6,122,56.88Zm0,8.52c0,2.28-1.14,3.41-3.41,3.41s-3.41-1.13-3.41-3.41S116.35,62,118.62,62,122,63.13,122,65.4Zm0,8.4c0,2.28-1.14,3.41-3.41,3.41s-3.41-1.13-3.41-3.41,1.14-3.41,3.41-3.41S122,71.53,122,73.8Zm0,8.53q0,3.4-3.41,3.41t-3.41-3.41q0-3.4,3.41-3.41T122,82.33Zm0,8.53q0,3.4-3.41,3.41t-3.41-3.41c0-2.28,1.14-3.41,3.41-3.41S122,88.58,122,90.86Zm8.65-85q0,3.4-3.41,3.41t-3.41-3.41c0-2.28,1.14-3.41,3.41-3.41S130.68,3.57,130.68,5.85Zm0,8.52c0,2.28-1.14,3.41-3.41,3.41s-3.41-1.13-3.41-3.41S125,11,127.27,11,130.68,12.1,130.68,14.37Zm0,8.53q0,3.41-3.41,3.41t-3.41-3.41c0-2.28,1.14-3.41,3.41-3.41S130.68,20.62,130.68,22.9Zm0,8.4q0,3.4-3.41,3.41t-3.41-3.41q0-3.4,3.41-3.41T130.68,31.3Zm0,8.53q0,3.41-3.41,3.41t-3.41-3.41c0-2.28,1.14-3.41,3.41-3.41S130.68,37.55,130.68,39.83Zm0,8.52q0,3.4-3.41,3.41t-3.41-3.41q0-3.41,3.41-3.41T130.68,48.35Zm0,8.53q0,3.4-3.41,3.41t-3.41-3.41c0-2.28,1.14-3.41,3.41-3.41S130.68,54.6,130.68,56.88Zm0,8.52c0,2.28-1.14,3.41-3.41,3.41s-3.41-1.13-3.41-3.41S125,62,127.27,62,130.68,63.13,130.68,65.4Zm0,8.4c0,2.28-1.14,3.41-3.41,3.41s-3.41-1.13-3.41-3.41,1.14-3.41,3.41-3.41S130.68,71.53,130.68,73.8Zm0,8.53q0,3.4-3.41,3.41t-3.41-3.41q0-3.4,3.41-3.41T130.68,82.33Zm0,8.53q0,3.4-3.41,3.41t-3.41-3.41c0-2.28,1.14-3.41,3.41-3.41S130.68,88.58,130.68,90.86Zm6-80.63q0,3-3.17,3t-3-3q0-3.17,3-3.17T136.65,10.23Zm1,14.62q0,3.16-3.16,3.16c-2,0-3.05-1.05-3.05-3.16s1-3.05,3.05-3.05S137.62,22.82,137.62,24.85Zm-2.8-6.22c0,1-.53,1.47-1.58,1.47s-1.59-.49-1.59-1.47a1.59,1.59,0,0,1,3.17,0Zm0,12.43c0,1-.53,1.46-1.58,1.46s-1.59-.49-1.59-1.46a1.59,1.59,0,1,1,3.17,0Zm1.83,6.57c0,1.63-.86,2.44-2.56,2.44a2.15,2.15,0,0,1-2.44-2.44c0-1.7.81-2.55,2.44-2.55A2.26,2.26,0,0,1,136.65,37.63Zm5.23-21.07c0,2.12-1,3.17-3,3.17s-3.17-1.05-3.17-3.17,1.06-3,3.17-3S141.88,14.53,141.88,16.56Zm.61,27.89q0,3-3.16,3a2.7,2.7,0,0,1-3.05-3q0-3.16,3.05-3.16T142.49,44.45Zm.37-13.15q0,3-3.17,3t-3-3q0-3.16,3-3.17T142.86,31.3Zm3.65-8q0,3-3,3c-2.12,0-3.17-1-3.17-3s1-3.16,3.17-3.16S146.51,21.15,146.51,23.26Zm.61,28.26a2.69,2.69,0,0,1-3,3c-2.12,0-3.17-1-3.17-3s1.05-3.17,3.17-3.17S147.12,49.41,147.12,51.52Zm.37-13.64q0,3.16-3.05,3.16t-3.16-3.16q0-3,3.16-3.05A2.7,2.7,0,0,1,147.49,37.88Zm4.38-8.28q0,3.16-3.17,3.16t-3-3.16q0-3,3-3.05T151.87,29.6Zm.49,28.74q0,3-3.05,3t-3-3q0-3.17,3-3.17T152.36,58.34Zm.36-14q0,3-3,3.05t-3.17-3.05q0-3.16,3.17-3.16T152.72,44.33Zm3.78-8q0,3-3.17,3.05t-3-3.05q0-3.16,3-3.16T156.5,36.29Zm.61,28.62c0,2.12-1.06,3.17-3.17,3.17s-3-1-3-3.17a2.69,2.69,0,0,1,3-3C156.05,61.87,157.11,62.89,157.11,64.91Zm.36-14q0,3.17-3.16,3.16t-3.05-3.16a2.7,2.7,0,0,1,3.05-3Q157.47,47.86,157.47,50.91Zm4.27-8.28q0,3.16-3.05,3.16t-3.17-3.16q0-3,3.17-3.05A2.7,2.7,0,0,1,161.74,42.63Zm.6,29.1c0,2.12-1.05,3.17-3.16,3.17s-3.05-1.05-3.05-3.17,1-3,3.05-3S162.34,69.71,162.34,71.73Zm.37-14.37q0,3-3.17,3t-3-3q0-3.16,3-3.16T162.71,57.36Zm4.14-7.67c0,2.11-1,3.17-3,3.17s-3.17-1.06-3.17-3.17,1.05-3,3.17-3A2.69,2.69,0,0,1,166.85,49.69Zm.61,29.23q0,3-3.17,3t-3-3q0-3.17,3-3.17T167.46,78.92Zm.37-14.49q0,3-3.17,3t-3-3q0-3.17,3-3.17T167.83,64.43Zm4.26-8.28q0,3-3.05,3t-3.16-3C165.88,54,166.93,53,169,53S172.09,54,172.09,56.15Zm.12,15.1q0,3-3.17,3t-3-3q0-3,3-3T172.21,71.25Zm.49,14.49a2.7,2.7,0,0,1-3,3.05q-3.17,0-3.16-3.05t3.16-3.17Q172.7,82.57,172.7,85.74Zm-.37-22.17A1.58,1.58,0,1,1,170.75,62,1.4,1.4,0,0,1,172.33,63.57Zm0,15.47a1.58,1.58,0,1,1-1.58-1.58A1.4,1.4,0,0,1,172.33,79ZM180,5.85c0,2.27-1.13,3.41-3.41,3.41s-3.41-1.14-3.41-3.41,1.14-3.41,3.41-3.41S180,3.57,180,5.85Zm0,8.52c0,2.28-1.13,3.41-3.41,3.41s-3.41-1.13-3.41-3.41S174.32,11,176.59,11,180,12.1,180,14.37Zm0,8.53c0,2.27-1.13,3.41-3.41,3.41s-3.41-1.14-3.41-3.41,1.14-3.41,3.41-3.41S180,20.62,180,22.9Zm0,8.4c0,2.27-1.13,3.41-3.41,3.41s-3.41-1.14-3.41-3.41,1.14-3.41,3.41-3.41S180,29,180,31.3Zm0,8.53c0,2.27-1.13,3.41-3.41,3.41s-3.41-1.14-3.41-3.41,1.14-3.41,3.41-3.41S180,37.55,180,39.83Zm0,8.52c0,2.27-1.13,3.41-3.41,3.41s-3.41-1.14-3.41-3.41,1.14-3.41,3.41-3.41S180,46.08,180,48.35Zm0,8.53c0,2.27-1.13,3.41-3.41,3.41s-3.41-1.14-3.41-3.41,1.14-3.41,3.41-3.41S180,54.6,180,56.88Zm0,8.52c0,2.28-1.13,3.41-3.41,3.41s-3.41-1.13-3.41-3.41S174.32,62,176.59,62,180,63.13,180,65.4Zm0,8.4c0,2.28-1.13,3.41-3.41,3.41s-3.41-1.13-3.41-3.41,1.14-3.41,3.41-3.41S180,71.53,180,73.8Zm0,8.53c0,2.27-1.13,3.41-3.41,3.41s-3.41-1.14-3.41-3.41,1.14-3.41,3.41-3.41S180,80.06,180,82.33Zm0,8.53c0,2.27-1.13,3.41-3.41,3.41s-3.41-1.14-3.41-3.41,1.14-3.41,3.41-3.41S180,88.58,180,90.86Zm8.77-85c0,2.27-1.13,3.41-3.41,3.41S182,8.12,182,5.85s1.14-3.41,3.41-3.41S188.77,3.57,188.77,5.85Zm0,8.52c0,2.28-1.13,3.41-3.41,3.41S182,16.65,182,14.37,183.09,11,185.36,11,188.77,12.1,188.77,14.37Zm0,8.53c0,2.27-1.13,3.41-3.41,3.41S182,25.17,182,22.9s1.14-3.41,3.41-3.41S188.77,20.62,188.77,22.9Zm0,8.4c0,2.27-1.13,3.41-3.41,3.41S182,33.57,182,31.3s1.14-3.41,3.41-3.41S188.77,29,188.77,31.3Zm0,8.53c0,2.27-1.13,3.41-3.41,3.41S182,42.1,182,39.83s1.14-3.41,3.41-3.41S188.77,37.55,188.77,39.83Zm0,8.52c0,2.27-1.13,3.41-3.41,3.41S182,50.62,182,48.35s1.14-3.41,3.41-3.41S188.77,46.08,188.77,48.35Zm0,8.53c0,2.27-1.13,3.41-3.41,3.41S182,59.15,182,56.88s1.14-3.41,3.41-3.41S188.77,54.6,188.77,56.88Zm0,8.52c0,2.28-1.13,3.41-3.41,3.41S182,67.68,182,65.4,183.09,62,185.36,62,188.77,63.13,188.77,65.4Zm0,8.4c0,2.28-1.13,3.41-3.41,3.41S182,76.08,182,73.8s1.14-3.41,3.41-3.41S188.77,71.53,188.77,73.8Zm0,8.53c0,2.27-1.13,3.41-3.41,3.41S182,84.6,182,82.33s1.14-3.41,3.41-3.41S188.77,80.06,188.77,82.33Zm0,8.53c0,2.27-1.13,3.41-3.41,3.41S182,93.13,182,90.86s1.14-3.41,3.41-3.41S188.77,88.58,188.77,90.86Zm8.65-85q0,3.4-3.41,3.41T190.6,5.85c0-2.28,1.14-3.41,3.41-3.41S197.42,3.57,197.42,5.85Zm0,8.52c0,2.28-1.14,3.41-3.41,3.41s-3.41-1.13-3.41-3.41S191.74,11,194,11,197.42,12.1,197.42,14.37Zm0,8.53q0,3.41-3.41,3.41T190.6,22.9c0-2.28,1.14-3.41,3.41-3.41S197.42,20.62,197.42,22.9Zm0,8.4q0,3.4-3.41,3.41T190.6,31.3q0-3.4,3.41-3.41T197.42,31.3Zm0,8.53q0,3.41-3.41,3.41t-3.41-3.41c0-2.28,1.14-3.41,3.41-3.41S197.42,37.55,197.42,39.83Zm0,8.52q0,3.4-3.41,3.41t-3.41-3.41q0-3.41,3.41-3.41T197.42,48.35Zm0,8.53q0,3.4-3.41,3.41t-3.41-3.41c0-2.28,1.14-3.41,3.41-3.41S197.42,54.6,197.42,56.88Zm0,8.52c0,2.28-1.14,3.41-3.41,3.41s-3.41-1.13-3.41-3.41S191.74,62,194,62,197.42,63.13,197.42,65.4Zm0,8.4c0,2.28-1.14,3.41-3.41,3.41s-3.41-1.13-3.41-3.41,1.14-3.41,3.41-3.41S197.42,71.53,197.42,73.8Zm0,8.53q0,3.4-3.41,3.41t-3.41-3.41q0-3.4,3.41-3.41T197.42,82.33Zm0,8.53q0,3.4-3.41,3.41t-3.41-3.41c0-2.28,1.14-3.41,3.41-3.41S197.42,88.58,197.42,90.86Z"/><path class="ef9c01c6-0bbb-4c73-9761-00618ea949c9" d="M211.91,5.72c0,2.28-1.09,3.41-3.29,3.41S205.21,8,205.21,5.72s1.14-3.41,3.41-3.41S211.91,3.45,211.91,5.72Zm-4,10A2.37,2.37,0,0,1,205.21,13c0-1.7.9-2.56,2.68-2.56A2.26,2.26,0,0,1,210.45,13C210.45,14.82,209.6,15.71,207.89,15.71Zm4,5.12c0,2.19-1.09,3.28-3.29,3.28s-3.41-1.09-3.41-3.28,1.14-3.41,3.41-3.41S211.91,18.55,211.91,20.83Zm3.41-5.12c-1.7,0-2.55-.89-2.55-2.68a2.26,2.26,0,0,1,2.55-2.56c1.79,0,2.68.86,2.68,2.56A2.37,2.37,0,0,1,215.32,15.71Zm6-10c0,2.28-1.14,3.41-3.41,3.41S214.47,8,214.47,5.72s1.14-3.41,3.41-3.41S221.29,3.45,221.29,5.72Zm0,15.11q0,3.29-3.41,3.28t-3.41-3.28c0-2.28,1.14-3.41,3.41-3.41S221.29,18.55,221.29,20.83Zm2.19-5.12c-1.7,0-2.55-.89-2.55-2.68A2.56,2.56,0,1,1,226,13C226,14.82,225.19,15.71,223.48,15.71Zm7.31-10c0,2.28-1.14,3.41-3.41,3.41S224,8,224,5.72s1.14-3.41,3.41-3.41S230.79,3.45,230.79,5.72Zm0,15.11q0,3.29-3.41,3.28T224,20.83c0-2.28,1.14-3.41,3.41-3.41S230.79,18.55,230.79,20.83Zm0,8.77q0,3.41-3.41,3.4T224,29.6c0-2.2,1.14-3.29,3.41-3.29S230.79,27.4,230.79,29.6Zm0,8.89q0,3.4-3.41,3.41T224,38.49c0-2.28,1.14-3.41,3.41-3.41S230.79,36.21,230.79,38.49Zm0,8.89q0,3.28-3.41,3.28T224,47.38c0-2.28,1.14-3.41,3.41-3.41S230.79,45.1,230.79,47.38Zm0,8.77q0,3.41-3.41,3.41T224,56.15c0-2.2,1.14-3.29,3.41-3.29S230.79,54,230.79,56.15Zm0,8.52q0,3.28-3.41,3.29T224,64.67q0-3.41,3.41-3.41T230.79,64.67Zm0,8.4c0,2.2-1.14,3.29-3.41,3.29S224,75.27,224,73.07s1.14-3.41,3.41-3.41S230.79,70.8,230.79,73.07Zm0,8.77c0,2.28-1.14,3.41-3.41,3.41S224,84.12,224,81.84s1.14-3.29,3.41-3.29S230.79,79.65,230.79,81.84Zm0,8.89c0,2.28-1.14,3.41-3.41,3.41S224,93,224,90.73s1.14-3.41,3.41-3.41S230.79,88.46,230.79,90.73Zm.85-75A2.37,2.37,0,0,1,229,13c0-1.7.9-2.56,2.68-2.56A2.26,2.26,0,0,1,234.2,13C234.2,14.82,233.35,15.71,231.64,15.71Zm7.68-10c0,2.28-1.14,3.41-3.41,3.41S232.62,8,232.62,5.72s1.09-3.41,3.29-3.41S239.32,3.45,239.32,5.72Zm0,15.11q0,3.29-3.41,3.28c-2.2,0-3.29-1.09-3.29-3.28s1.09-3.41,3.29-3.41S239.32,18.55,239.32,20.83Zm0,8.77q0,3.41-3.41,3.4c-2.2,0-3.29-1.13-3.29-3.4s1.09-3.29,3.29-3.29S239.32,27.4,239.32,29.6Zm0,8.89q0,3.4-3.41,3.41c-2.2,0-3.29-1.14-3.29-3.41s1.09-3.41,3.29-3.41S239.32,36.21,239.32,38.49Zm0,8.89q0,3.28-3.41,3.28c-2.2,0-3.29-1.09-3.29-3.28S233.71,44,235.91,44,239.32,45.1,239.32,47.38Zm0,8.77q0,3.41-3.41,3.41c-2.2,0-3.29-1.14-3.29-3.41s1.09-3.29,3.29-3.29S239.32,54,239.32,56.15Zm0,8.52q0,3.28-3.41,3.29c-2.2,0-3.29-1.1-3.29-3.29s1.09-3.41,3.29-3.41S239.32,62.4,239.32,64.67Zm0,8.4c0,2.2-1.14,3.29-3.41,3.29s-3.29-1.09-3.29-3.29,1.09-3.41,3.29-3.41S239.32,70.8,239.32,73.07Zm0,8.77c0,2.28-1.14,3.41-3.41,3.41s-3.29-1.13-3.29-3.41,1.09-3.29,3.29-3.29S239.32,79.65,239.32,81.84Zm0,8.89c0,2.28-1.14,3.41-3.41,3.41s-3.29-1.13-3.29-3.41,1.09-3.41,3.29-3.41S239.32,88.46,239.32,90.73Zm.36-75c-1.7,0-2.56-.89-2.56-2.68a2.56,2.56,0,0,1,5.12,0C242.24,14.82,241.39,15.71,239.68,15.71Zm8.16-10c0,2.28-1.1,3.41-3.29,3.41S241.14,8,241.14,5.72s1.14-3.41,3.41-3.41S247.84,3.45,247.84,5.72Zm0,15.11q0,3.29-3.29,3.28t-3.41-3.28c0-2.28,1.14-3.41,3.41-3.41S247.84,18.55,247.84,20.83Zm0,8.77q0,3.41-3.29,3.4t-3.41-3.4c0-2.2,1.14-3.29,3.41-3.29S247.84,27.4,247.84,29.6Zm0,8.89q0,3.4-3.29,3.41t-3.41-3.41c0-2.28,1.14-3.41,3.41-3.41S247.84,36.21,247.84,38.49Zm0,8.89q0,3.28-3.29,3.28t-3.41-3.28c0-2.28,1.14-3.41,3.41-3.41S247.84,45.1,247.84,47.38Zm0,8.77q0,3.41-3.29,3.41t-3.41-3.41c0-2.2,1.14-3.29,3.41-3.29S247.84,54,247.84,56.15Zm0,8.52q0,3.28-3.29,3.29t-3.41-3.29q0-3.41,3.41-3.41T247.84,64.67Zm0,8.4c0,2.2-1.1,3.29-3.29,3.29s-3.41-1.09-3.41-3.29,1.14-3.41,3.41-3.41S247.84,70.8,247.84,73.07Zm0,8.77c0,2.28-1.1,3.41-3.29,3.41s-3.41-1.13-3.41-3.41,1.14-3.29,3.41-3.29S247.84,79.65,247.84,81.84Zm0,8.89c0,2.28-1.1,3.41-3.29,3.41s-3.41-1.13-3.41-3.41,1.14-3.41,3.41-3.41S247.84,88.46,247.84,90.73Zm0-75A2.37,2.37,0,0,1,245.16,13c0-1.7.89-2.56,2.68-2.56A2.26,2.26,0,0,1,250.4,13C250.4,14.82,249.55,15.71,247.84,15.71Zm9.5-10c0,2.28-1.14,3.41-3.41,3.41S250.64,8,250.64,5.72s1.1-3.41,3.29-3.41S257.34,3.45,257.34,5.72Zm0,15.11q0,3.29-3.41,3.28t-3.29-3.28c0-2.28,1.1-3.41,3.29-3.41S257.34,18.55,257.34,20.83Zm-1.46-5.12c-1.71,0-2.56-.89-2.56-2.68a2.26,2.26,0,0,1,2.56-2.56c1.78,0,2.68.86,2.68,2.56A2.37,2.37,0,0,1,255.88,15.71Zm11-10c0,2.28-1.14,3.41-3.41,3.41S260,8,260,5.72s1.14-3.41,3.41-3.41S266.84,3.45,266.84,5.72Zm0,15.11q0,3.29-3.41,3.28T260,20.83c0-2.28,1.14-3.41,3.41-3.41S266.84,18.55,266.84,20.83ZM264,15.71A2.37,2.37,0,0,1,261.36,13c0-1.7.89-2.56,2.68-2.56A2.27,2.27,0,0,1,266.6,13C266.6,14.82,265.74,15.71,264,15.71Z"/><path class="ef9c01c6-0bbb-4c73-9761-00618ea949c9" d="M281,48.84q0,3.28-3.29,3.29t-3.29-3.29q0-3.29,3.29-3.29T281,48.84Zm.61,8.28q0,3.29-3.29,3.29c-2.2,0-3.29-1.1-3.29-3.29s1.09-3.29,3.29-3.29S281.58,54.93,281.58,57.12Zm.12-16.32q0,3.29-3.29,3.29t-3.29-3.29q0-3.28,3.29-3.29T281.7,40.8Zm2.07,24.6q0,3.28-3.29,3.29t-3.29-3.29q0-3.29,3.29-3.29T283.77,65.4Zm.24-33c0,2.19-1.09,3.28-3.29,3.28s-3.29-1.09-3.29-3.28,1.1-3.29,3.29-3.29S284,30.2,284,32.4Zm3.65,40.92q0,3.29-3.28,3.29c-2.2,0-3.29-1.1-3.29-3.29S282.18,70,284.38,70,287.66,71.13,287.66,73.32Zm.13-48.6c0,2.2-1.1,3.29-3.29,3.29s-3.29-1.09-3.29-3.29,1.1-3.28,3.29-3.28S287.79,22.53,287.79,24.72Zm1.46,24.36q0,3.29-3.29,3.29t-3.29-3.29q0-3.28,3.29-3.29T289.25,49.08Zm.73-8.4Q290,44,286.69,44t-3.29-3.29q0-3.28,3.29-3.29T290,40.68Zm.49,16.56q0,3.28-3.29,3.29t-3.29-3.29q0-3.29,3.29-3.29T290.47,57.24Zm2.19,22.65c0,2.2-1.1,3.29-3.29,3.29s-3.29-1.09-3.29-3.29,1.1-3.28,3.29-3.28S292.66,77.7,292.66,79.89Zm0-61.87c0,2.2-1.1,3.29-3.29,3.29S286.2,20.22,286.2,18s1.06-3.28,3.17-3.28S292.66,15.83,292.66,18Zm.12,47.75q0,3.28-3.29,3.29t-3.29-3.29c0-2.2,1.1-3.29,3.29-3.29S292.78,63.57,292.78,65.77Zm0-33.5c0,2.2-1.06,3.29-3.17,3.29s-3.28-1.09-3.28-3.29S287.42,29,289.61,29,292.78,30.08,292.78,32.27ZM297,72.46c0,2.2-1.09,3.29-3.29,3.29s-3.28-1.09-3.28-3.29,1.09-3.28,3.28-3.28S297,70.27,297,72.46Zm.25-23.5q0,3.28-3.29,3.29T290.71,49q0-3.28,3.29-3.29T297.29,49Zm.12-23.38q0,3.29-3.29,3.28T291,25.58c0-2.2,1.06-3.29,3.17-3.29S297.41,23.38,297.41,25.58ZM298,56.51q0,3.29-3.29,3.29t-3.29-3.29q0-3.28,3.29-3.29T298,56.51Zm.36-15.83c0,2.19-1.09,3.29-3.29,3.29s-3.28-1.1-3.28-3.29,1.09-3.29,3.28-3.29S298.38,38.49,298.38,40.68Zm.37,44.7q0,3.28-3.29,3.28t-3.29-3.28c0-2.12,1.1-3.17,3.29-3.17S298.75,83.26,298.75,85.38Zm.12-73q0,3.28-3.29,3.29t-3.29-3.29q0-3.28,3.29-3.29T298.87,12.42Zm1.95,52q0,3.28-3.29,3.29t-3.29-3.29c0-2.2,1.1-3.29,3.29-3.29S300.82,62.23,300.82,64.43Zm1-31.55c0,2.2-1.09,3.29-3.29,3.29s-3.28-1.09-3.28-3.29,1.09-3.28,3.28-3.28S301.79,30.69,301.79,32.88Zm1.34-13.52c0,2.2-1.09,3.29-3.29,3.29s-3.28-1.09-3.28-3.29,1.09-3.28,3.28-3.28S303.13,17.17,303.13,19.36Zm0,59.19c0,2.2-1.09,3.29-3.29,3.29s-3.28-1.09-3.28-3.29,1.09-3.28,3.28-3.28S303.13,76.36,303.13,78.55Zm2.68,11.33c0,2.19-1.09,3.29-3.29,3.29s-3.29-1.1-3.29-3.29,1.1-3.29,3.29-3.29S305.81,87.69,305.81,89.88ZM305.93,8q0,3.29-3.28,3.29c-2.2,0-3.29-1.1-3.29-3.29s1.09-3.29,3.29-3.29S305.93,5.85,305.93,8Zm.37,62.6q0,3.28-3.29,3.29t-3.29-3.29q0-3.28,3.29-3.29T306.3,70.64Zm.85-44c0,2.19-1.09,3.29-3.29,3.29s-3.29-1.1-3.29-3.29,1.1-3.29,3.29-3.29S307.15,24.48,307.15,26.67Zm2.68-11.45c0,2.2-1.1,3.29-3.29,3.29s-3.29-1.09-3.29-3.29,1.1-3.28,3.29-3.28S309.83,13,309.83,15.22Zm.24,67.72q0,3.28-3.28,3.29c-2.2,0-3.29-1.1-3.29-3.29s1.09-3.29,3.29-3.29S310.07,80.75,310.07,82.94ZM313,75.27q0,3.28-3.29,3.28t-3.29-3.28c0-2.2,1.1-3.29,3.29-3.29S313,73.07,313,75.27ZM313.48,5c0,2.2-1.05,3.29-3.16,3.29S307,7.19,307,5s1.1-3.28,3.29-3.28S313.48,2.8,313.48,5Zm.13,87.94q0,3.28-3.29,3.28T307,92.93c0-2.2,1.1-3.29,3.29-3.29S313.61,90.73,313.61,92.93ZM314.46,22c0,2.2-1.1,3.29-3.29,3.29s-3.29-1.09-3.29-3.29,1.1-3.28,3.29-3.28S314.46,19.85,314.46,22Zm2.92-9.62c0,2.19-1.09,3.29-3.29,3.29s-3.29-1.1-3.29-3.29,1.1-3.29,3.29-3.29S317.38,10.23,317.38,12.42Zm1,73.2q0,3.28-3.29,3.29t-3.29-3.29q0-3.28,3.29-3.29T318.36,85.62Zm2.43-7.8c0,2.2-1.09,3.29-3.29,3.29s-3.29-1.09-3.29-3.29,1.1-3.28,3.29-3.28S320.79,75.63,320.79,77.82Zm1.1,16.81q0,3.28-3.29,3.29t-3.29-3.29q0-3.28,3.29-3.29T321.89,94.63Zm.36-91.22c0,2.19-1.09,3.29-3.29,3.29s-3.28-1.1-3.28-3.29S316.77.12,319,.12,322.25,1.22,322.25,3.41Zm.61,16.32c0,2.19-1.09,3.29-3.29,3.29s-3.28-1.1-3.28-3.29,1.09-3.29,3.28-3.29S322.86,17.54,322.86,19.73Zm2.93-8.28q0,3.29-3.29,3.29c-2.2,0-3.29-1.1-3.29-3.29s1.09-3.29,3.29-3.29S325.79,9.26,325.79,11.45Zm.48,75q0,3.28-3.16,3.29c-2.2,0-3.29-1.1-3.29-3.29s1.09-3.29,3.29-3.29S326.27,84.28,326.27,86.47Zm2.93-8.28q0,3.28-3.29,3.29c-2.2,0-3.29-1.1-3.29-3.29s1.09-3.29,3.29-3.29S329.2,76,329.2,78.19Zm.6,16.32q0,3.28-3.28,3.29c-2.2,0-3.29-1.1-3.29-3.29s1.09-3.29,3.29-3.29S329.8,92.32,329.8,94.51Zm.37-91.22q0,3.29-3.29,3.29t-3.29-3.29q0-3.28,3.29-3.29T330.17,3.29ZM331.27,20c0,2.2-1.1,3.29-3.29,3.29s-3.29-1.09-3.29-3.29,1.1-3.28,3.29-3.28S331.27,17.78,331.27,20Zm2.43-7.79c0,2.19-1.05,3.29-3.17,3.29s-3.28-1.1-3.28-3.29,1.09-3.29,3.28-3.29S333.7,10,333.7,12.18Zm1,73.32q0,3.28-3.29,3.29T328.1,85.5c0-2.2,1.1-3.29,3.29-3.29S334.68,83.3,334.68,85.5Zm3-9.62q0,3.28-3.29,3.28t-3.29-3.28c0-2.2,1.1-3.29,3.29-3.29S337.72,73.68,337.72,75.88ZM338.45,5c0,2.2-1.1,3.29-3.29,3.29S331.87,7.19,331.87,5s1.1-3.28,3.29-3.28S338.45,2.8,338.45,5Zm.12,87.81c0,2.2-1.09,3.29-3.29,3.29S332,95,332,92.8s1.09-3.28,3.28-3.28S338.57,90.61,338.57,92.8Zm.49-70.15c0,2.2-1.1,3.29-3.29,3.29s-3.29-1.09-3.29-3.29,1.1-3.29,3.29-3.29S339.06,20.46,339.06,22.65ZM342,15c0,2.19-1.09,3.29-3.29,3.29s-3.28-1.1-3.28-3.29,1.09-3.29,3.28-3.29S342,12.79,342,15Zm.25,67.72q0,3.28-3.29,3.28t-3.17-3.28c0-2.2,1.06-3.29,3.17-3.29S342.23,80.5,342.23,82.7Zm2.68-11.45q0,3.28-3.29,3.29t-3.29-3.29q0-3.28,3.29-3.29T344.91,71.25Zm.85-44q0,3.28-3.29,3.29t-3.29-3.29q0-3.29,3.29-3.29T345.76,27.28ZM346.25,8q0,3.29-3.29,3.29T339.67,8q0-3.28,3.29-3.29T346.25,8Zm-.13,81.84q0,3.28-3.16,3.29t-3.29-3.29q0-3.28,3.29-3.29T346.12,89.88Zm2.81-70.52c0,2.2-1.1,3.29-3.29,3.29s-3.29-1.09-3.29-3.29,1.09-3.28,3.29-3.28S348.93,17.17,348.93,19.36Zm0,59.07q0,3.28-3.29,3.29c-2.2,0-3.29-1.1-3.29-3.29s1.09-3.29,3.29-3.29S348.93,76.24,348.93,78.43ZM350.26,65q0,3.28-3.28,3.28c-2.2,0-3.29-1.09-3.29-3.28s1.09-3.29,3.29-3.29S350.26,62.84,350.26,65Zm1-31.55q0,3.28-3.29,3.29t-3.29-3.29q0-3.29,3.29-3.29T351.24,33.49Zm1.95,52q0,3.28-3.29,3.29t-3.29-3.29c0-2.2,1.1-3.29,3.29-3.29S353.19,83.3,353.19,85.5Zm.12-73.08q0,3.28-3.29,3.29t-3.29-3.29q0-3.28,3.29-3.29T353.31,12.42Zm.36,44.7q0,3.29-3.28,3.29c-2.2,0-3.29-1.1-3.29-3.29S348.19,54,350.39,54,353.67,55,353.67,57.12ZM354,41.41q0,3.29-3.29,3.29t-3.29-3.29q0-3.28,3.29-3.29T354,41.41Zm.61,30.93c0,2.2-1.1,3.29-3.29,3.29s-3.29-1.09-3.29-3.29,1.1-3.28,3.29-3.28S354.65,70.15,354.65,72.34ZM354.77,49q0,3.28-3.29,3.29T348.19,49q0-3.28,3.29-3.29T354.77,49ZM355,25.45c0,2.2-1.09,3.29-3.28,3.29s-3.29-1.09-3.29-3.29,1.09-3.28,3.29-3.28S355,23.26,355,25.45Zm4.27,6.7q0,3.29-3.29,3.29t-3.29-3.29q0-3.28,3.29-3.29T359.28,32.15Zm0,33.37c0,2.2-1.1,3.29-3.29,3.29s-3.29-1.09-3.29-3.29,1.1-3.29,3.29-3.29S359.28,63.33,359.28,65.52ZM359.4,18c0,2.2-1.1,3.29-3.29,3.29s-3.29-1.09-3.29-3.29,1.1-3.28,3.29-3.28S359.4,15.83,359.4,18Zm0,61.75q0,3.28-3.29,3.29t-3.29-3.29q0-3.28,3.29-3.29T359.4,79.77Zm2.19-39.21c0,2.19-1.09,3.28-3.29,3.28S355,42.75,355,40.56s1.1-3.29,3.29-3.29S361.59,38.36,361.59,40.56Zm.49,16.56q0,3.29-3.29,3.29t-3.29-3.29q0-3.28,3.29-3.29T362.08,57.12Zm.73-8.28q0,3.28-3.29,3.29t-3.29-3.29q0-3.29,3.29-3.29T362.81,48.84Zm1.46,24.36q0,3.28-3.29,3.28t-3.29-3.28c0-2.2,1.1-3.29,3.29-3.29S364.27,71,364.27,73.2Zm.12-48.6c0,2.19-1.09,3.29-3.29,3.29s-3.28-1.1-3.28-3.29,1.09-3.29,3.28-3.29S364.39,22.41,364.39,24.6Zm3.66,40.92c0,2.2-1.1,3.29-3.29,3.29s-3.29-1.09-3.29-3.29,1.1-3.29,3.29-3.29S368.05,63.33,368.05,65.52Zm.24-33q0,3.28-3.29,3.29t-3.29-3.29q0-3.29,3.29-3.29T368.29,32.52Zm2.07,24.6q0,3.29-3.29,3.29t-3.29-3.29q0-3.28,3.29-3.29T370.36,57.12Zm.12-16.32c0,2.19-1.09,3.29-3.29,3.29s-3.28-1.1-3.28-3.29,1.09-3.29,3.28-3.29S370.48,38.61,370.48,40.8Zm.61,8.28q0,3.29-3.29,3.29t-3.29-3.29q0-3.28,3.29-3.29T371.09,49.08Z"/><path class="b581e394-cc7d-4ac6-8c80-da3c0bc667f7" d="M223.69,129.9a6.82,6.82,0,0,1-1.31-3.88h3.81a2.78,2.78,0,0,0,.82,2,2.88,2.88,0,0,0,2.09.77,2.92,2.92,0,0,0,2-.74,2.46,2.46,0,0,0,.81-1.9,2.62,2.62,0,0,0-.65-1.84,5.66,5.66,0,0,0-2.23-1.27c-1.55-.57-2.56-1-3-1.21a5.1,5.1,0,0,1-1.36-1,5.79,5.79,0,0,1-1.72-4.31,5.68,5.68,0,0,1,1.8-4.21,6.2,6.2,0,0,1,9.15.54,6.14,6.14,0,0,1,1.34,3.68h-4a2.64,2.64,0,0,0-.71-1.72,2.19,2.19,0,0,0-1.63-.61,2.15,2.15,0,0,0-1.6.58,2.11,2.11,0,0,0-.59,1.56,2,2,0,0,0,.83,1.66,9.56,9.56,0,0,0,2.72,1.26,10.18,10.18,0,0,1,3.58,1.94,5.89,5.89,0,0,1,1.88,4.43,6.5,6.5,0,0,1-1.9,4.74,6.71,6.71,0,0,1-7.83,1.4A6.43,6.43,0,0,1,223.69,129.9Z"/><path class="b581e394-cc7d-4ac6-8c80-da3c0bc667f7" d="M241.58,132.07V114.63h-4V111h11.81v3.65h-4v17.44Z"/><path class="b581e394-cc7d-4ac6-8c80-da3c0bc667f7" d="M252.13,132.07V111h6.38a7.78,7.78,0,0,1,5.32,1.6,6.29,6.29,0,0,1,2.21,4.91,7.7,7.7,0,0,1-.59,2.93,6.38,6.38,0,0,1-1.59,2.32,7.37,7.37,0,0,1-3.27,1.59l5.64,7.74h-4.72l-5.57-8v8Zm3.81-11h2.49a4.14,4.14,0,0,0,2.79-.87,3,3,0,0,0,1-2.37,2.87,2.87,0,0,0-1-2.32,4.13,4.13,0,0,0-2.73-.86h-2.53Z"/><path class="b581e394-cc7d-4ac6-8c80-da3c0bc667f7" d="M269.66,132.07V111h3.81v21.09Z"/><path class="b581e394-cc7d-4ac6-8c80-da3c0bc667f7" d="M277.91,132.07V111h4.54L291.07,126V111h3.8v21.09h-4.21l-8.94-15.5v15.5Z"/><path class="b581e394-cc7d-4ac6-8c80-da3c0bc667f7" d="M298.46,121.52a10.52,10.52,0,0,1,3.26-7.73,10.79,10.79,0,0,1,7.89-3.22,11.39,11.39,0,0,1,6.29,1.89,9.35,9.35,0,0,1,3.94,4.69h-4.66a6.43,6.43,0,0,0-2.44-2.16,7,7,0,0,0-3.23-.77,6.74,6.74,0,0,0-5.19,2.17,8.17,8.17,0,0,0-2.05,5.2,6.87,6.87,0,0,0,2.16,5.14,7.3,7.3,0,0,0,5.3,2.1,6.76,6.76,0,0,0,3.67-1A7.22,7.22,0,0,0,316,125h-8.85v-3.66h13.76a10.76,10.76,0,0,1-6,9.9,11.23,11.23,0,0,1-5.16,1.25,11,11,0,0,1-8-3.2A10.41,10.41,0,0,1,298.46,121.52Z"/><path class="b581e394-cc7d-4ac6-8c80-da3c0bc667f7" d="M335,132.07V114.63h-4V111h11.8v3.65h-4v17.44Z"/><path class="b581e394-cc7d-4ac6-8c80-da3c0bc667f7" d="M344.55,121.4a10.39,10.39,0,0,1,3.23-7.62,10.94,10.94,0,1,1,0,15.49A10.73,10.73,0,0,1,344.55,121.4Zm3.81.06a7.19,7.19,0,0,0,2.1,5.23,6.87,6.87,0,0,0,5.09,2.14,6.78,6.78,0,0,0,5-2.14,7.45,7.45,0,0,0,0-10.33,7,7,0,0,0-10.1,0A7,7,0,0,0,348.36,121.46Z"/><path class="b581e394-cc7d-4ac6-8c80-da3c0bc667f7" d="M380.59,132.07V114.63h-4V111H388.4v3.65h-4v17.44Z"/><path class="b581e394-cc7d-4ac6-8c80-da3c0bc667f7" d="M391.14,132.07V111H402.5v3.65H395v5.13h7.24v3.65H395v5h7.55v3.65Z"/><path class="b581e394-cc7d-4ac6-8c80-da3c0bc667f7" d="M406.15,132.07V111h6.38a7.81,7.81,0,0,1,5.33,1.6,6.29,6.29,0,0,1,2.21,4.91,7.53,7.53,0,0,1-.6,2.93,6.24,6.24,0,0,1-1.58,2.32,7.35,7.35,0,0,1-3.28,1.59l5.65,7.74h-4.73l-5.57-8v8Zm3.81-11h2.5a4.16,4.16,0,0,0,2.79-.87,3,3,0,0,0,1-2.37,2.87,2.87,0,0,0-1-2.32,4.16,4.16,0,0,0-2.74-.86H410Z"/><path class="b581e394-cc7d-4ac6-8c80-da3c0bc667f7" d="M423.69,132.07V111H429l5.64,16,5.58-16h5.34v21.09h-3.81v-15.8l-5.48,15.8h-3.21L427.5,116v16.1Z"/><path class="b581e394-cc7d-4ac6-8c80-da3c0bc667f7" d="M458.47,132.07V111h5.32l5.64,16L475,111h5.33v21.09h-3.81v-15.8l-5.47,15.8h-3.22L462.28,116v16.1Z"/><path class="b581e394-cc7d-4ac6-8c80-da3c0bc667f7" d="M482.9,132.07,491.68,111h3.05l8.85,21.09h-4.31l-2.22-5.45h-7.54l-2.3,5.45ZM491,123h4.53l-2.27-6.48Z"/><path class="b581e394-cc7d-4ac6-8c80-da3c0bc667f7" d="M506,132.07V111h5.26a19.41,19.41,0,0,1,3.27.2,5.73,5.73,0,0,1,2,.84,5.93,5.93,0,0,1,2.8,5.35,7.06,7.06,0,0,1-.75,3.22,6.41,6.41,0,0,1-2,2.41,4.93,4.93,0,0,1-1.92.82,21,21,0,0,1-3.45.19h-1.35v8.06Zm3.81-11.71h1.27a8.13,8.13,0,0,0,2.63-.32,2.62,2.62,0,0,0,1.29-1,2.78,2.78,0,0,0,.51-1.62,2.56,2.56,0,0,0-.49-1.56,2.7,2.7,0,0,0-1.31-1,8.58,8.58,0,0,0-2.47-.25h-1.43Z"/><path class="b581e394-cc7d-4ac6-8c80-da3c0bc667f7" d="M522.44,132.07V111h5.25a19.25,19.25,0,0,1,3.27.2,5.66,5.66,0,0,1,2,.84,5.93,5.93,0,0,1,2.8,5.35,7.06,7.06,0,0,1-.75,3.22,6.47,6.47,0,0,1-2,2.41,5.06,5.06,0,0,1-1.92.82,21.13,21.13,0,0,1-3.46.19h-1.34v8.06Zm3.81-11.71h1.26a8.13,8.13,0,0,0,2.63-.32,2.64,2.64,0,0,0,1.3-1,2.84,2.84,0,0,0,.5-1.62,2.56,2.56,0,0,0-.49-1.56,2.61,2.61,0,0,0-1.31-1,8.58,8.58,0,0,0-2.47-.25h-1.42Z"/><path class="b581e394-cc7d-4ac6-8c80-da3c0bc667f7" d="M538.9,132.07V111h3.81v21.09Z"/><path class="b581e394-cc7d-4ac6-8c80-da3c0bc667f7" d="M547.15,132.07V111h4.54L560.31,126V111h3.81v21.09H559.9L551,116.57v15.5Z"/><path class="b581e394-cc7d-4ac6-8c80-da3c0bc667f7" d="M567.7,121.52a10.52,10.52,0,0,1,3.26-7.73,10.79,10.79,0,0,1,7.89-3.22,11.39,11.39,0,0,1,6.29,1.89,9.3,9.3,0,0,1,3.94,4.69h-4.66A6.43,6.43,0,0,0,582,115a7,7,0,0,0-3.23-.77,6.74,6.74,0,0,0-5.19,2.17,8.17,8.17,0,0,0-2,5.2,6.87,6.87,0,0,0,2.16,5.14,7.32,7.32,0,0,0,5.3,2.1,6.76,6.76,0,0,0,3.67-1,7.22,7.22,0,0,0,2.57-2.8h-8.85v-3.66h13.76a10.76,10.76,0,0,1-6,9.9,11.23,11.23,0,0,1-5.16,1.25,11,11,0,0,1-8-3.2A10.41,10.41,0,0,1,567.7,121.52Z"/><path class="aa285942-b529-481d-8a06-e627a7b2d86c" d="M378.31,80.16l11-8.54C394.62,79.23,402.43,84,411.55,84c9.56,0,16.53-5.41,16.53-14,0-5.86-4.39-9.22-11.16-13.3l-9.73-5.92c-8.16-5-14-11.63-14-22.47C393.15,13.36,406.42,1,423.86,1c11,0,20.69,5.5,27.12,13.56l-9.74,9c-4.73-5.3-10.59-9.37-18.23-9.37-9,0-14.24,6.08-14.24,12.45,0,5.92,4.76,9,11.78,13.25l10,6c8.86,5.27,13.36,11.35,13.36,21.88C443.87,84.47,430.34,97,410.3,97,397.93,97,386.58,91.86,378.31,80.16Z"/><path class="aa285942-b529-481d-8a06-e627a7b2d86c" d="M482.82,15.71H457.23l2.55-13h66.47l-2.55,13H498.11l-15.8,79.6H467Z"/><path class="aa285942-b529-481d-8a06-e627a7b2d86c" d="M540.08,2.74h27.24C585,2.74,597.61,9,597.61,25.39c0,22.53-18.4,33.35-39.52,33.35h-14l-7.24,36.57H521.57Zm18.4,43.82c15.69,0,24-7.41,24-19,0-8.95-6.28-12.63-18.06-12.63H552.82l-6.17,31.65Zm-1.86,8.84,11.26-9.52,19.65,49.43H571.34Z"/><path class="aa285942-b529-481d-8a06-e627a7b2d86c" d="M620.19,2.74h15.29L617,95.31H601.68Z"/><path class="aa285942-b529-481d-8a06-e627a7b2d86c" d="M657.41,2.74h15l18.06,53.67,5.43,19.88h.57c1.07-9.46,2-21.4,4-31.54l8.43-42h14.61L705,95.31H690.14L672.19,41.75l-5.38-20.21h-.57c-1.07,9.91-2.26,21.23-4.3,31.25l-8.43,42.52H638.9Z"/><path class="aa285942-b529-481d-8a06-e627a7b2d86c" d="M730.36,59C730.36,28.22,750.57,1,780.29,1c11.5,0,19.65,5.72,24.57,14.21l-10.53,8c-3.51-5.66-8.09-9-14.83-9-20.16,0-33.52,22-33.52,43.53C746,73.12,752.21,84,768.29,84a20.46,20.46,0,0,0,12.91-4.42l4.53-21.74h-17.1L771,45.32h30.68L793.37,87.5A44.21,44.21,0,0,1,765.8,97C743.21,97,730.36,82.4,730.36,59Z"/></svg>