<?xml version="1.0" encoding="UTF-8" standalone="no"?>
<!-- Created with Inkscape (http://www.inkscape.org/) -->

<svg
   width="81.230766mm"
   height="81.230766mm"
   viewBox="0 0 81.230766 81.230766"
   version="1.1"
   id="svg5"
   inkscape:export-filename="bitmap.svg"
   inkscape:export-xdpi="96"
   inkscape:export-ydpi="96"
   inkscape:version="1.2.2 (b0a8486, 2022-12-01)"
   sodipodi:docname="instance.svg"
   xmlns:inkscape="http://www.inkscape.org/namespaces/inkscape"
   xmlns:sodipodi="http://sodipodi.sourceforge.net/DTD/sodipodi-0.dtd"
   xmlns="http://www.w3.org/2000/svg"
   xmlns:svg="http://www.w3.org/2000/svg">
  <sodipodi:namedview
     id="namedview7"
     pagecolor="#ffffff"
     bordercolor="#666666"
     borderopacity="1.0"
     inkscape:showpageshadow="2"
     inkscape:pageopacity="0.0"
     inkscape:pagecheckerboard="0"
     inkscape:deskcolor="#d1d1d1"
     inkscape:document-units="mm"
     showgrid="false"
     inkscape:zoom="0.93806818"
     inkscape:cx="39.975772"
     inkscape:cy="495.69958"
     inkscape:window-width="2124"
     inkscape:window-height="1428"
     inkscape:window-x="503"
     inkscape:window-y="54"
     inkscape:window-maximized="0"
     inkscape:current-layer="layer1" />
  <defs
     id="defs2" />
  <g
     inkscape:label="Layer 1"
     inkscape:groupmode="layer"
     id="layer1"
     transform="translate(-20.307693,-18.051285)">
    <circle
       style="fill:#734595;fill-opacity:1;stroke-width:0.264583"
       id="path1514"
       cx="60.923077"
       cy="58.666668"
       r="40.615383"
       inkscape:label="path1514" />
    <path
       id="text5718"
       style="font-style:normal;font-weight:normal;font-size:73.8417px;line-height:1.25;font-family:sans-serif;fill:#ffffff;fill-opacity:1;stroke:none;stroke-width:1.84604"
       d="M 56.533839 35.700511 C 54.971435 35.700511 53.69757 36.241003 52.712054 37.322668 C 51.726537 38.404332 51.233902 40.026927 51.233902 42.190256 L 51.233902 83.834372 C 51.233902 85.997701 51.726537 87.63258 52.712054 88.738281 C 53.721607 89.819946 54.995472 90.360438 56.533839 90.360438 C 58.144317 90.360438 59.442272 89.819946 60.427788 88.738281 C 61.437341 87.656617 61.942261 86.021738 61.942261 83.834372 L 61.942261 42.190256 C 61.942261 40.00289 61.437341 38.380295 60.427788 37.322668 C 59.442272 36.241003 58.144317 35.700511 56.533839 35.700511 z "
       transform="scale(1.0813177,0.92479759)" />
  </g>
</svg>
