<?xml version="1.0" encoding="UTF-8" standalone="no"?>
<!-- Generator: Adobe Illustrator 26.0.3, SVG Export Plug-In . SVG Version: 6.00 Build 0)  -->

<svg
   version="1.1"
   id="Layer_1"
   x="0px"
   y="0px"
   viewBox="0 0 243.44 285.67"
   style="enable-background:new 0 0 243.44 285.67;"
   xml:space="preserve"
   sodipodi:docname="jsonbeta.svg"
   inkscape:version="1.2.2 (b0a8486, 2022-12-01)"
   xmlns:inkscape="http://www.inkscape.org/namespaces/inkscape"
   xmlns:sodipodi="http://sodipodi.sourceforge.net/DTD/sodipodi-0.dtd"
   xmlns="http://www.w3.org/2000/svg"
   xmlns:svg="http://www.w3.org/2000/svg"><defs
   id="defs118" /><sodipodi:namedview
   id="namedview116"
   pagecolor="#ffffff"
   bordercolor="#666666"
   borderopacity="1.0"
   inkscape:showpageshadow="2"
   inkscape:pageopacity="0.0"
   inkscape:pagecheckerboard="0"
   inkscape:deskcolor="#d1d1d1"
   showgrid="false"
   inkscape:zoom="1.6610293"
   inkscape:cx="25.586544"
   inkscape:cy="55.688361"
   inkscape:window-width="1390"
   inkscape:window-height="1205"
   inkscape:window-x="564"
   inkscape:window-y="133"
   inkscape:window-maximized="0"
   inkscape:current-layer="Layer_1" />
<style
   type="text/css"
   id="style99">
	.st0{fill:#FFFFFF;}
	.st1{font-family:'Helvetica-Bold';}
	.st2{font-size:51px;}
</style>
<rect
   y="23.57"
   class="st0"
   width="219.91"
   height="262.1"
   id="rect101" />
<g
   id="g111">
	<polygon
   class="st0"
   points="164.25,82.03 155.25,82.03 155.25,39.19 39.91,39.19 39.91,253.81 211.76,253.81 211.76,81.98 164.25,81.98 "
   id="polygon103" />
	<polygon
   class="st0"
   points="160.75,43.77 163.06,43.77 163.14,43.66 201.91,76.17 202.05,76.17 202.05,79.17 227.85,79.17 227.85,19.03 160.75,19.03 "
   id="polygon105" />
	<polygon
   class="st0"
   points="164.25,41.53 164.25,72.98 203.74,72.98 "
   id="polygon107" />
	<path
   d="m 220.73,75.01 -56.5,-45 -0.12,0.16 h -3.36 -5.5 V 30.2 H 30.91 V 262.82 H 220.76 V 88.52 h 0.18 V 79.17 75.01 Z M 39.91,39.19 h 115.34 v 42.84 h 9 v -0.04 h 47.51 V 253.81 H 39.91 Z M 164.25,72.98 V 41.53 l 39.49,31.46 h -39.49 z"
   id="path109" />
</g>
<text
   transform="matrix(1 0 0 1 52.9645 164.5068)"
   class="st1 st2"
   id="text113">JSON</text>
<g
   aria-label="BETA"
   id="text278"
   style="font-size:40px;line-height:1.25"
   transform="translate(4)"><path
     d="m 91.19125,211.63254 q 0,2.10937 -0.859375,3.76953 -0.839844,1.66016 -2.324219,2.75391 -1.71875,1.28906 -3.789062,1.83593 -2.050782,0.54688 -5.214844,0.54688 H 66.308437 V 191.45676 H 77.5975 q 3.515625,0 5.136719,0.23437 1.640625,0.23438 3.242187,1.03516 1.660156,0.83984 2.460938,2.26562 0.820312,1.40625 0.820312,3.22266 0,2.10937 -1.113281,3.73047 -1.113281,1.60156 -3.144531,2.5 v 0.15625 q 2.851562,0.5664 4.511718,2.34375 1.679688,1.77734 1.679688,4.6875 z m -9.609375,-11.95313 q 0,-0.72265 -0.371094,-1.44531 -0.351562,-0.72266 -1.269531,-1.07422 -0.820313,-0.3125 -2.050781,-0.33203 -1.210938,-0.0391 -3.417969,-0.0391 h -0.703125 v 6.15234 h 1.171875 q 1.777344,0 3.027344,-0.0586 1.25,-0.0586 1.972656,-0.39063 1.015625,-0.44922 1.328125,-1.15234 0.3125,-0.72266 0.3125,-1.66016 z m 1.835937,11.83594 q 0,-1.38672 -0.546875,-2.12891 -0.527343,-0.76171 -1.816406,-1.13281 -0.878906,-0.2539 -2.421875,-0.27344 -1.542969,-0.0195 -3.222656,-0.0195 h -1.640625 v 7.2461 h 0.546875 q 3.164062,0 4.53125,-0.0195 1.367187,-0.0195 2.519531,-0.50782 1.171875,-0.48828 1.601563,-1.28906 0.449218,-0.82031 0.449218,-1.875 z"
     style="font-weight:bold;-inkscape-font-specification:'sans-serif Bold';fill:#a600a6"
     id="path4595" /><path
     d="M 117.81234,220.53879 H 96.777187 v -29.08203 h 21.035153 v 5.625 h -13.57422 v 5.01953 h 12.59766 v 5.625 h -12.59766 v 7.1875 h 13.57422 z"
     style="font-weight:bold;-inkscape-font-specification:'sans-serif Bold';fill:#a600a6"
     id="path4597" /><path
     d="m 146.85531,197.08176 h -9.08203 v 23.45703 h -7.5 v -23.45703 h -9.08203 v -5.625 h 25.66406 z"
     style="font-weight:bold;-inkscape-font-specification:'sans-serif Bold';fill:#a600a6"
     id="path4599" /><path
     d="m 178.24203,220.53879 h -7.75391 l -2.01171,-5.87891 h -10.78125 l -2.01172,5.87891 h -7.5586 l 10.74219,-29.08203 h 8.63281 z M 166.66,209.32785 l -3.57422,-10.42969 -3.57422,10.42969 z"
     style="font-weight:bold;-inkscape-font-specification:'sans-serif Bold';fill:#a600a6"
     id="path4601" /></g></svg>
