<?xml version="1.0" encoding="utf-8"?>
<!-- Generator: Adobe Illustrator 26.0.3, SVG Export Plug-In . SVG Version: 6.00 Build 0)  -->
<svg version="1.1" id="Layer_1" xmlns="http://www.w3.org/2000/svg" xmlns:xlink="http://www.w3.org/1999/xlink" x="0px" y="0px"
	 viewBox="0 0 243.44 285.67" style="enable-background:new 0 0 243.44 285.67;" xml:space="preserve">
<style type="text/css">
	.st0{fill:#FFFFFF;}
	.st1{font-family:'Helvetica-Bold';}
	.st2{font-size:51px;}
</style>
<rect y="23.57" class="st0" width="219.91" height="262.1"/>
<g>
	<polygon class="st0" points="211.76,81.98 164.25,81.98 164.25,82.03 155.25,82.03 155.25,39.19 39.91,39.19 39.91,253.81 
		211.76,253.81 	"/>
	<polygon class="st0" points="227.85,19.03 160.75,19.03 160.75,43.77 163.06,43.77 163.14,43.66 201.91,76.17 202.05,76.17 
		202.05,79.17 227.85,79.17 	"/>
	<polygon class="st0" points="164.25,72.98 203.74,72.98 164.25,41.53 	"/>
	<path d="M220.73,75.01l-56.5-45l-0.12,0.16h-3.36h-5.5v0.03H30.91v232.62h189.85V88.52h0.18v-9.35v-4.16H220.73z M39.91,39.19
		h115.34v42.84h9v-0.04h47.51v171.82H39.91V39.19z M164.25,72.98V41.53l39.49,31.46H164.25z"/>
</g>
<text transform="matrix(1 0 0 1 52.9645 164.5068)" class="st1 st2">JSON</text>
</svg>
