<?xml version="1.0" encoding="UTF-8"?>
<svg id="Layer_1" data-name="Layer 1" xmlns="http://www.w3.org/2000/svg" xmlns:xlink="http://www.w3.org/1999/xlink" viewBox="0 0 864.37 468.51">
  <defs>
    <style>
      .cls-1 {
        clip-path: url(#clippath);
      }

      .cls-2 {
        fill: none;
      }

      .cls-2, .cls-3, .cls-4 {
        stroke-width: 0px;
      }

      .cls-3 {
        fill: url(#linear-gradient);
      }

      .cls-4 {
        fill: #fff;
      }
    </style>
    <clipPath id="clippath">
      <path class="cls-2" d="m81.59,110.81c-7.8,0-11.7-4.05-11.7-12.15s3.9-12.15,11.7-12.15,12.15,4.05,12.15,12.15-4.05,12.15-12.15,12.15Zm-4.95,12.6c0-8.1-3.9-12.15-11.7-12.15s-12.15,4.05-12.15,12.15,4.05,12.15,12.15,12.15,11.7-4.05,11.7-12.15Zm38.25-47.7c0-8.1-4.05-12.15-12.15-12.15s-12.15,4.05-12.15,12.15,4.05,12.15,12.15,12.15,12.15-4.05,12.15-12.15Zm-63.45,121.95c8.1,0,12.15-4.05,12.15-12.15s-4.05-12.15-12.15-12.15-12.15,4.05-12.15,12.15,4.05,12.15,12.15,12.15ZM86.99,62.21c8.1,0,12.15-4.05,12.15-12.15s-4.05-12.15-12.15-12.15-12.15,4.05-12.15,12.15,4.05,12.15,12.15,12.15Zm15.75,244.35c8.1,0,12.15-4.05,12.15-12.15s-4.05-12.15-12.15-12.15-12.15,4.05-12.15,12.15,4.05,12.15,12.15,12.15Zm-22.5-46.8c-8.1,0-12.15,4.05-12.15,12.15s4.05,12.15,12.15,12.15,12.15-4.05,12.15-12.15-4.05-12.15-12.15-12.15ZM113.09,46.01c8.1,0,12.15-4.05,12.15-12.15s-4.05-12.15-12.15-12.15-12.15,4.05-12.15,12.15,4.05,12.15,12.15,12.15Zm-48.6,189c-8.1,0-12.15,4.05-12.15,12.15s4.05,12.15,12.15,12.15,12.15-4.05,12.15-12.15-4.05-12.15-12.15-12.15Zm-8.55-31.5c-8.1,0-12.15,4.05-12.15,12.15s4.05,12.15,12.15,12.15,12.15-4.05,12.15-12.15-4.05-12.15-12.15-12.15Zm-12.6,42.3c0-8.1-4.05-12.15-12.15-12.15s-12.15,4.05-12.15,12.15,4.05,12.15,12.15,12.15,12.15-4.05,12.15-12.15Zm14.4,29.25c0-8.1-4.05-12.15-12.15-12.15s-12.15,4.05-12.15,12.15,4.05,12.15,12.15,12.15,12.15-4.05,12.15-12.15Zm-22.5-59.85c0-8.1-4.05-12.15-12.15-12.15s-12.15,4.05-12.15,12.15,4.05,12.15,12.15,12.15,12.15-4.05,12.15-12.15Zm28.8,72c-8.1,0-12.15,4.05-12.15,12.15s4.05,12.15,12.15,12.15,12.15-4.05,12.15-12.15-4.05-12.15-12.15-12.15Zm-31.95-151.2c8.1,0,12.15-4.05,12.15-12.15s-4.05-12.15-12.15-12.15-12.15,4.05-12.15,12.15,4.05,12.15,12.15,12.15Zm-11.25,60.75c8.1,0,12.15-4.05,12.15-12.15s-4.05-12.15-12.15-12.15-12.15,4.05-12.15,12.15,4.05,12.15,12.15,12.15Zm25.2-89.1c8.1,0,12.15-4.05,12.15-12.15s-4.05-12.15-12.15-12.15-12.15,4.05-12.15,12.15,4.05,12.15,12.15,12.15Zm18-24.75c8.1,0,12.15-4.05,12.15-12.15s-4.05-12.15-12.15-12.15-11.7,4.05-11.7,12.15,3.9,12.15,11.7,12.15Zm-40.5,84.15c8.1,0,12.15-4.05,12.15-12.15s-4.05-12.15-12.15-12.15-12.15,4.05-12.15,12.15,4.05,12.15,12.15,12.15ZM203.99,49.16c0,8.1,4.05,12.15,12.15,12.15s11.7-4.05,11.7-12.15-3.9-12.15-11.7-12.15-12.15,4.05-12.15,12.15Zm106.2,85.95c8.1,0,12.15-4.05,12.15-12.15s-4.05-12.15-12.15-12.15-12.15,4.05-12.15,12.15,4.05,12.15,12.15,12.15Zm8.55,31.05c8.1,0,12.15-4.05,12.15-12.15s-4.05-12.15-12.15-12.15-12.15,4.05-12.15,12.15,4.05,12.15,12.15,12.15Zm-46.8-102.6c-8.1,0-12.15,4.05-12.15,12.15s4.05,12.15,12.15,12.15,12.15-4.05,12.15-12.15-4.05-12.15-12.15-12.15Zm16.2-1.35c8.1,0,12.15-4.05,12.15-12.15s-4.05-12.15-12.15-12.15-12.15,4.05-12.15,12.15,4.05,12.15,12.15,12.15Zm22.5,20.7c8.1,0,12.15-4.05,12.15-12.15s-4.05-12.15-12.15-12.15-12.15,4.05-12.15,12.15,4.05,12.15,12.15,12.15Zm20.7,41.4c0,8.1,4.05,12.15,12.15,12.15s12.15-4.05,12.15-12.15-4.05-12.15-12.15-12.15-12.15,4.05-12.15,12.15Zm8.1,30.6c0,8.1,4.05,12.15,12.15,12.15s12.15-4.05,12.15-12.15-4.05-12.15-12.15-12.15-12.15,4.05-12.15,12.15Zm-22.5-59.85c0,8.1,4.05,12.15,12.15,12.15s12.15-4.05,12.15-12.15-4.05-12.15-12.15-12.15-12.15,4.05-12.15,12.15Zm-22.5,15.3c8.1,0,12.15-4.05,12.15-12.15s-4.05-12.15-12.15-12.15-12.15,4.05-12.15,12.15,4.05,12.15,12.15,12.15Zm-60.3-50.85c0,8.1,4.05,12.15,12.15,12.15s12.15-4.05,12.15-12.15-4.05-12.15-12.15-12.15-12.15,4.05-12.15,12.15Zm-60.75-30.6c8.1,0,12.15-4.05,12.15-12.15s-4.05-12.15-12.15-12.15-12.15,4.05-12.15,12.15,4.05,12.15,12.15,12.15Zm-30.15,21.15c0,8.1,4.05,12.15,12.15,12.15s12.15-4.05,12.15-12.15-4.05-12.15-12.15-12.15-12.15,4.05-12.15,12.15Zm-1.8-15.3c7.8,0,11.7-4.05,11.7-12.15s-3.9-12.15-11.7-12.15-12.15,4.05-12.15,12.15,4.05,12.15,12.15,12.15Zm32.85,11.7c0,8.1,4.05,12.15,12.15,12.15s12.15-4.05,12.15-12.15-4.05-12.15-12.15-12.15-12.15,4.05-12.15,12.15Zm58.95-11.7c8.1,0,12.15-4.05,12.15-12.15s-4.05-12.15-12.15-12.15-12.15,4.05-12.15,12.15,4.05,12.15,12.15,12.15Zm-117.9,25.65c0,8.1,4.05,12.15,12.15,12.15s12.15-4.05,12.15-12.15-4.05-12.15-12.15-12.15-12.15,4.05-12.15,12.15Zm146.7-14.4c8.1,0,12.15-4.05,12.15-12.15s-4.05-12.15-12.15-12.15-12.15,4.05-12.15,12.15,4.05,12.15,12.15,12.15ZM86.54,307.91c-8.1,0-12.15,3.9-12.15,11.7s4.05,12.15,12.15,12.15,12.15-4.05,12.15-12.15-4.05-11.7-12.15-11.7ZM202.64,28.46c8.1,0,12.15-4.05,12.15-12.15s-4.05-12.15-12.15-12.15-12.15,4.05-12.15,12.15,4.05,12.15,12.15,12.15ZM54.14,166.61c8.1,0,12.15-4.05,12.15-12.15s-4.05-12.15-12.15-12.15-12.15,4.05-12.15,12.15,4.05,12.15,12.15,12.15Zm256.5,120.15c-8.1,0-12.15,4.05-12.15,12.15s4.05,12.15,12.15,12.15,12.15-4.05,12.15-12.15-4.05-12.15-12.15-12.15Zm-22.95,21.15c-8.1,0-12.15,4.05-12.15,12.15s4.05,12.15,12.15,12.15,12.15-4.05,12.15-12.15-4.05-12.15-12.15-12.15Zm-25.65,16.2c-8.1,0-12.15,4.05-12.15,12.15s4.05,12.15,12.15,12.15,11.7-4.05,11.7-12.15-3.9-12.15-11.7-12.15Zm58.5-96.75c8.1,0,12.15-4.05,12.15-12.15s-4.05-12.15-12.15-12.15-12.15,4.05-12.15,12.15,4.05,12.15,12.15,12.15Zm-22.5,18.9c0,8.1,4.05,12.15,12.15,12.15s12.15-4.05,12.15-12.15-4.05-12.15-12.15-12.15-12.15,4.05-12.15,12.15Zm-38.25,47.7c0,8.1,4.05,12.15,12.15,12.15s12.15-4.05,12.15-12.15-4.05-12.15-12.15-12.15-12.15,4.05-12.15,12.15Zm91.35-90.9c-8.1,0-12.15,4.05-12.15,12.15s4.05,12.15,12.15,12.15,12.15-4.05,12.15-12.15-4.05-12.15-12.15-12.15Zm-238.5,121.05c-8.1,0-12.15,4.05-12.15,12.15s4.05,12.15,12.15,12.15,12.15-4.05,12.15-12.15-4.05-12.15-12.15-12.15Zm229.95-90c-8.1,0-12.15,4.05-12.15,12.15s4.05,12.15,12.15,12.15,12.15-4.05,12.15-12.15-4.05-12.15-12.15-12.15Zm-13.95,28.35c-8.1,0-12.15,4.05-12.15,12.15s4.05,12.15,12.15,12.15,12.15-4.05,12.15-12.15-4.05-12.15-12.15-12.15Zm-47.7,9c0,8.1,4.05,12.15,12.15,12.15s12.15-4.05,12.15-12.15-4.05-12.15-12.15-12.15-12.15,4.05-12.15,12.15Zm-108.9,70.2c-8.1,0-12.15,4.05-12.15,12.15s4.05,12.15,12.15,12.15,12.15-4.05,12.15-12.15-4.05-12.15-12.15-12.15Zm-.9-21.15c0-8.1-4.05-12.15-12.15-12.15s-12.15,4.05-12.15,12.15,4.05,12.15,12.15,12.15,12.15-4.05,12.15-12.15Zm29.25,3.15c0-8.1-3.9-12.15-11.7-12.15s-12.15,4.05-12.15,12.15,4.05,12.15,12.15,12.15,11.7-4.05,11.7-12.15Zm-58.95,11.7c-8.1,0-12.15,4.05-12.15,12.15s4.05,12.15,12.15,12.15,12.15-4.05,12.15-12.15-4.05-12.15-12.15-12.15Zm-.9-24.75c0-8.1-4.05-12.15-12.15-12.15s-12.15,4.05-12.15,12.15,4.05,12.15,12.15,12.15,12.15-4.05,12.15-12.15Zm60.75,30.6c-8.1,0-12.15,4.05-12.15,12.15s4.05,12.15,12.15,12.15,12.15-4.05,12.15-12.15-4.05-12.15-12.15-12.15Zm58.05-31.5c0-8.1-4.05-12.15-12.15-12.15s-11.7,4.05-11.7,12.15,3.9,12.15,11.7,12.15,12.15-4.05,12.15-12.15Zm-25.65,25.2c-8.1,0-12.15,4.05-12.15,12.15s4.05,12.15,12.15,12.15,12.15-4.05,12.15-12.15-4.05-12.15-12.15-12.15Zm-2.25-14.85c0-8.1-4.05-12.15-12.15-12.15s-12.15,4.05-12.15,12.15,4.05,12.15,12.15,12.15,12.15-4.05,12.15-12.15Zm178.2-156.15c8.4,0,12.6-4.2,12.6-12.6s-4.2-12.6-12.6-12.6-12.6,4.21-12.6,12.6,4.2,12.6,12.6,12.6Zm0-31.05c8.4,0,12.6-4.2,12.6-12.6s-4.2-12.6-12.6-12.6-12.6,4.2-12.6,12.6,4.2,12.6,12.6,12.6Zm0-31.5c8.4,0,12.6-4.2,12.6-12.6s-4.2-12.6-12.6-12.6-12.6,4.2-12.6,12.6,4.2,12.6,12.6,12.6Zm0-31.05c8.4,0,12.6-4.2,12.6-12.6s-4.2-12.6-12.6-12.6-12.6,4.2-12.6,12.6,4.2,12.6,12.6,12.6Zm143.1,237.15c-5.1,0-7.65,2.55-7.65,7.65s2.54,7.65,7.65,7.65,7.65-2.55,7.65-7.65-2.55-7.65-7.65-7.65Zm33.75,7.65c0-5.1-2.4-7.65-7.2-7.65-5.1,0-7.65,2.55-7.65,7.65s2.55,7.65,7.65,7.65c4.8,0,7.2-2.55,7.2-7.65Zm-10.35,11.7c-8.4,0-12.6,4.2-12.6,12.6s4.2,12.6,12.6,12.6,12.6-4.2,12.6-12.6-4.2-12.6-12.6-12.6Zm-36.9,0c-8.4,0-12.6,4.2-12.6,12.6s4.2,12.6,12.6,12.6,12.6-4.2,12.6-12.6-4.21-12.6-12.6-12.6Zm-97.65-225.45c8.4,0,12.6-4.2,12.6-12.6s-4.2-12.6-12.6-12.6-12.6,4.2-12.6,12.6,4.2,12.6,12.6,12.6Zm0-31.05c8.4,0,12.6-4.2,12.6-12.6s-4.2-12.6-12.6-12.6-12.6,4.2-12.6,12.6,4.2,12.6,12.6,12.6Zm0-31.5c8.4,0,12.6-4.2,12.6-12.6s-4.2-12.6-12.6-12.6-12.6,4.2-12.6,12.6,4.2,12.6,12.6,12.6Zm0,125.1c8.4,0,12.6-4.2,12.6-12.6s-4.2-12.6-12.6-12.6-12.6,4.21-12.6,12.6,4.2,12.6,12.6,12.6Zm-31.95-125.1c8.4,0,12.6-4.2,12.6-12.6s-4.2-12.6-12.6-12.6-12.6,4.2-12.6,12.6,4.2,12.6,12.6,12.6Zm31.95,94.05c8.4,0,12.6-4.2,12.6-12.6s-4.2-12.6-12.6-12.6-12.6,4.2-12.6,12.6,4.2,12.6,12.6,12.6Zm92.25,182.25c0-5.1-2.55-7.65-7.65-7.65s-7.65,2.55-7.65,7.65,2.55,7.65,7.65,7.65,7.65-2.55,7.65-7.65Zm-124.2-113.4c-8.4,0-12.6,4.21-12.6,12.6s4.2,12.6,12.6,12.6,12.6-4.2,12.6-12.6-4.2-12.6-12.6-12.6Zm31.95,125.1c-8.4,0-12.6,4.2-12.6,12.6s4.2,12.6,12.6,12.6,12.6-4.2,12.6-12.6-4.2-12.6-12.6-12.6Zm-31.95-94.05c-8.4,0-12.6,4.2-12.6,12.6s4.2,12.6,12.6,12.6,12.6-4.2,12.6-12.6-4.2-12.6-12.6-12.6Zm0,31.5c-8.4,0-12.6,4.2-12.6,12.6s4.2,12.6,12.6,12.6,12.6-4.2,12.6-12.6-4.2-12.6-12.6-12.6Zm0,62.55c-8.4,0-12.6,4.2-12.6,12.6s4.2,12.6,12.6,12.6,12.6-4.2,12.6-12.6-4.2-12.6-12.6-12.6Zm0-31.5c-8.4,0-12.6,4.2-12.6,12.6s4.2,12.6,12.6,12.6,12.6-4.2,12.6-12.6-4.2-12.6-12.6-12.6Zm31.95,0c-8.4,0-12.6,4.2-12.6,12.6s4.2,12.6,12.6,12.6,12.6-4.2,12.6-12.6-4.2-12.6-12.6-12.6Zm0-31.05c-8.4,0-12.6,4.2-12.6,12.6s4.2,12.6,12.6,12.6,12.6-4.2,12.6-12.6-4.2-12.6-12.6-12.6Zm65.7,50.85c0-5.1-2.55-7.65-7.65-7.65s-7.65,2.55-7.65,7.65,2.55,7.65,7.65,7.65,7.65-2.55,7.65-7.65Zm-33.75,11.7c-8.4,0-12.6,4.2-12.6,12.6s4.2,12.6,12.6,12.6,12.6-4.2,12.6-12.6-4.2-12.6-12.6-12.6Zm30.15,0c-8.4,0-12.6,4.2-12.6,12.6s4.2,12.6,12.6,12.6,12.6-4.2,12.6-12.6-4.2-12.6-12.6-12.6Zm-26.52-288.32v6.95c5.97,1.11,8.97,5.2,8.97,12.28s-3,11.17-8.97,12.28v6.49c5.97,1.11,8.97,5.2,8.97,12.28s-3,11.17-8.97,12.28v6.94c5.97,1.11,8.97,5.2,8.97,12.28s-3,11.17-8.97,12.28v6.49c5.97,1.11,8.97,5.2,8.97,12.28s-3,11.17-8.97,12.28v6.94c5.97,1.11,8.97,5.2,8.97,12.28s-3,11.17-8.97,12.28v6.94c5.97,1.11,8.97,5.2,8.97,12.28s-3,11.17-8.97,12.28v6.49c5.97,1.11,8.97,5.2,8.97,12.28s-3,11.17-8.97,12.28v6.95c5.97,1.11,8.97,5.2,8.97,12.28s-3,11.17-8.97,12.28v6.49c5.97,1.11,8.97,5.2,8.97,12.28,0,8.4-4.2,12.6-12.6,12.6s-12.6-4.2-12.6-12.6c0-7.56,3.42-11.71,10.23-12.46v-6.12c-6.81-.75-10.23-4.9-10.23-12.46s3.42-11.71,10.23-12.46v-6.57c-6.81-.75-10.23-4.9-10.23-12.46s3.42-11.71,10.23-12.46v-6.12c-6.81-.75-10.23-4.9-10.23-12.46s3.42-11.71,10.23-12.46v-6.57c-5.78-.64-9.11-3.72-9.99-9.27h-7.23c-.99,6.27-5.11,9.41-12.36,9.41s-11.37-3.14-12.36-9.41h-7.23c-.99,6.27-5.11,9.41-12.36,9.41s-11.37-3.14-12.36-9.41h-31.3c-.17,7.76-4.2,11.66-12.13,11.66s-11.97-3.89-12.13-11.66h-6.36c-.45,7.17-4.48,10.76-12.1,10.76s-11.65-3.59-12.11-10.76h-5.48c-.29,6.86-3.72,10.57-10.32,11.12-.3,2.34-.6,4.68-.91,7.01,4.79,1.38,7.2,5.07,7.2,11.07,0,8.1-4.05,12.15-12.15,12.15-.46,0-.91-.02-1.35-.04-.96,2.45-1.93,4.91-2.89,7.36,2.53,2,3.79,5.25,3.79,9.78,0,8.1-4.05,12.15-12.15,12.15-2.38,0-4.4-.36-6.08-1.06-1.21,1.32-2.42,2.63-3.62,3.95,1.36,1.96,2.05,4.59,2.05,7.91,0,8.1-4.05,12.15-12.15,12.15-4.2,0-7.31-1.1-9.33-3.28-1.85,1.3-3.7,2.61-5.55,3.91.32,1.29.48,2.72.48,4.33,0,8.1-4.05,12.15-12.15,12.15-6.26,0-10.09-2.43-11.51-7.26-2.67.33-5.34.67-8.01,1,.11.83.17,1.72.17,2.66,0,8.1-4.05,12.15-12.15,12.15s-12.15-4.05-12.15-12.15c0-.36.02-.71.03-1.06h-6.79c-.1,7.9-4.14,11.86-12.14,11.86s-12.15-4.05-12.15-12.15c0-1.01.06-1.95.19-2.84-1.8-.48-3.6-.96-5.41-1.44-1.49,4.65-5.29,6.98-11.43,6.98-8.1,0-12.15-4.05-12.15-12.15,0-1.8.21-3.39.61-4.79-1.45-.99-2.91-1.98-4.36-2.97-2.02,1.86-4.96,2.8-8.85,2.8-8.1,0-12.15-4.05-12.15-12.15,0-2.49.39-4.59,1.15-6.31-1.71-1.64-3.42-3.28-5.14-4.91-1.23.28-2.6.42-4.11.42-8.1,0-12.15-4.05-12.15-12.15,0-3.88.94-6.82,2.8-8.84-.71-2.77-1.43-5.53-2.14-8.3-7.33-.37-11.01-4.41-11.01-12.11,0-6.06,2.27-9.85,6.8-11.38-.11-1.53-.22-3.06-.33-4.59-6.11-.92-9.17-4.9-9.17-11.94s3.28-11.27,9.81-12.01c.4-2.39.8-4.78,1.19-7.16-4.63-1.49-6.95-5.3-6.95-11.42,0-8.1,4.05-12.15,12.15-12.15.24,0,.47.02.7.02l2.78-7.57c-2.02-2.02-3.03-5.06-3.03-9.1,0-8.1,4.05-12.15,12.15-12.15,1.1,0,2.11.08,3.06.23,1.79-1.88,3.59-3.76,5.38-5.65-.52-1.53-.79-3.33-.79-5.38,0-8.1,4.05-12.15,12.15-12.15,2.79,0,5.09.49,6.92,1.46,2.65-1.99,5.29-3.97,7.94-5.96,0-.15-.01-.3-.01-.45,0-8.1,4.05-12.15,12.15-12.15,3.51,0,6.26.76,8.25,2.28,3.69-.92,7.38-1.85,11.07-2.77,1.22-5.38,5.13-8.07,11.73-8.07,5.91,0,9.65,2.17,11.25,6.48,2.82.36,5.65.73,8.47,1.09,1.56-4.44,5.33-6.67,11.33-6.67,7.71,0,11.74,3.68,12.11,11.01,2.53.63,5.07,1.27,7.6,1.9,2.03-2.01,5.05-3.01,9.08-3.01,8.1,0,12.15,4.05,12.15,12.15,0,.63-.03,1.24-.08,1.82,1.97,1.5,3.95,3,5.92,4.5,1.8-.91,4.05-1.37,6.76-1.37,8.1,0,12.15,4.05,12.15,12.15,0,2.77-.49,5.05-1.43,6.88,1.28,1.61,2.55,3.22,3.83,4.84,1.6-.6,3.5-.91,5.7-.91,8.1,0,12.15,4.05,12.15,12.15,0,5.13-1.63,8.63-4.88,10.51,1.02,2.2,2.04,4.39,3.06,6.59,0,0,.01,0,.02,0,8.1,0,12.15,4.05,12.15,12.15,0,6.08-2.29,9.88-6.86,11.4.11,1.52.22,3.04.33,4.56,4.48.66,7.33,2.96,8.54,6.89h6.65c1.36-5.02,5.21-7.54,11.59-7.54s10.23,2.52,11.59,7.54h7.69c1.56-4.42,5.33-6.64,11.32-6.64s9.75,2.22,11.32,6.64h32.06c.88-6.52,5.01-9.79,12.42-9.79s11.54,3.27,12.42,9.79h7.11c.88-6.52,5.01-9.79,12.42-9.79s11.54,3.27,12.42,9.79h7.11c.78-5.79,4.13-9,10.05-9.66v-6.57c-6.81-.75-10.23-4.9-10.23-12.46s3.42-11.71,10.23-12.46v-6.12c-6.81-.75-10.23-4.9-10.23-12.46s3.42-11.71,10.23-12.46v-6.57c-6.81-.75-10.23-4.9-10.23-12.46s3.42-11.71,10.23-12.46v-6.12c-6.81-.75-10.23-4.9-10.23-12.46s3.42-11.71,10.23-12.46v-6.57c-6.81-.75-10.23-4.9-10.23-12.46,0-8.4,4.2-12.6,12.6-12.6s12.6,4.2,12.6,12.6c0,7.08-3,11.17-8.97,12.28Zm-187.78,158.29c-5.33-1.24-8-5.14-8-11.72,0-7,3.03-10.96,9.07-11.92-.09-1.28-.18-2.57-.28-3.85-7.66-.22-11.5-4.25-11.5-12.13,0-5.71,2.02-9.39,6.04-11.08-.94-2.02-1.88-4.04-2.82-6.07-.46.03-.93.05-1.42.05-8.1,0-12.15-4.05-12.15-12.15,0-3.1.6-5.61,1.79-7.52-1.17-1.48-2.35-2.97-3.52-4.45-1.73.78-3.85,1.17-6.37,1.17-8.1,0-12.15-4.05-12.15-12.15,0-2.56.41-4.72,1.22-6.47-1.22-.93-2.45-1.86-3.67-2.79-1.95,2.87-5.33,4.31-10.14,4.31-8.1,0-12.15-4.05-12.15-12.15,0-1.32.12-2.53.34-3.64-1.83-.46-3.65-.91-5.48-1.37-1.42,4.83-5.25,7.26-11.51,7.26-7.96,0-12-3.92-12.14-11.73-2.26-.29-4.52-.58-6.78-.87-.15,7.8-4.19,11.71-12.14,11.71-7.34,0-11.34-3.33-12.03-9.98-2.47.62-4.94,1.23-7.41,1.85.35,1.34.54,2.84.54,4.52,0,8.1-4.05,12.15-12.15,12.15-5.34,0-8.91-1.77-10.73-5.3-1.75,1.32-3.51,2.63-5.26,3.95.76,1.72,1.15,3.82,1.15,6.3,0,8.1-4.05,12.15-12.15,12.15-3.21,0-5.77-.65-7.7-1.91-1.08,1.13-2.15,2.26-3.23,3.39,2.18,2.02,3.28,5.12,3.28,9.33,0,8.1-4.05,12.15-12.15,12.15-1.36,0-2.6-.12-3.74-.35-.75,2.05-1.5,4.1-2.25,6.15,3.69,1.78,5.54,5.39,5.54,10.86,0,7.85-3.81,11.88-11.41,12.13-.37,2.22-.74,4.44-1.11,6.67,5.64,1.12,8.47,5.05,8.47,11.81s-3.05,10.99-9.13,11.93c.09,1.28.18,2.56.27,3.84,7.69.2,11.55,4.24,11.55,12.13,0,6.25-2.42,10.08-7.25,11.51.51,1.99,1.03,3.99,1.54,5.98,1.18-.25,2.48-.39,3.91-.39,8.1,0,12.15,4.05,12.15,12.15,0,3.74-.88,6.61-2.61,8.62,1.26,1.21,2.53,2.42,3.79,3.63,1.83-.96,4.12-1.45,6.91-1.45,8.1,0,12.15,4.05,12.15,12.15,0,1.5-.14,2.85-.42,4.07,1.57,1.07,3.14,2.14,4.71,3.2,1.99-1.55,4.76-2.32,8.3-2.32,7.81,0,11.84,3.77,12.12,11.29,2.33.62,4.65,1.24,6.98,1.86,2-2.47,5.23-3.7,9.7-3.7,5.89,0,9.63,2.16,11.24,6.44h9.19c1.85-3.39,5.38-5.09,10.62-5.09,4.51,0,7.76,1.26,9.75,3.77,3.21-.4,6.42-.8,9.63-1.2.34-7.4,4.37-11.11,12.12-11.11,3.76,0,6.64.89,8.65,2.63,2.01-1.41,4.02-2.83,6.03-4.24-.18-1.03-.28-2.13-.28-3.34,0-8.1,4.05-12.15,12.15-12.15,1.97,0,3.7.24,5.19.72,1.34-1.46,2.68-2.93,4.02-4.39-1.04-1.86-1.57-4.23-1.57-7.13,0-8.1,4.05-12.15,12.15-12.15,1,0,1.93.06,2.8.19.88-2.24,1.76-4.48,2.64-6.71-3.32-1.87-4.99-5.38-4.99-10.57,0-7.47,3.73-11.36,11.18-11.67.29-2.25.58-4.51.87-6.76Zm152.2,35.98c-8.4,0-12.6,4.2-12.6,12.6s4.2,12.6,12.6,12.6,12.6-4.2,12.6-12.6-4.2-12.6-12.6-12.6Zm0-31.05c-8.4,0-12.6,4.21-12.6,12.6s4.2,12.6,12.6,12.6,12.6-4.2,12.6-12.6-4.2-12.6-12.6-12.6Zm237.15-79.2c0-8.1-4.21-12.15-12.6-12.15s-12.15,4.05-12.15,12.15,4.05,12.6,12.15,12.6,12.6-4.2,12.6-12.6Zm4.5-83.7c8.4,0,12.6-4.2,12.6-12.6s-4.2-12.15-12.6-12.15-12.15,4.05-12.15,12.15,4.05,12.6,12.15,12.6Zm-28.8,141.3c0,7.8,3.9,11.7,11.7,11.7s11.7-3.9,11.7-11.7-3.9-11.7-11.7-11.7-11.7,3.9-11.7,11.7Zm-8.1-49.05c0-8.4-4.05-12.6-12.15-12.6s-12.6,4.21-12.6,12.6,4.2,12.15,12.6,12.15,12.15-4.05,12.15-12.15Zm-2.7,39.15c8.4,0,12.6-4.2,12.6-12.6s-4.21-12.15-12.6-12.15-12.15,4.05-12.15,12.15,4.05,12.6,12.15,12.6Zm36.9-91.8c8.1,0,12.15-4.2,12.15-12.6s-4.05-12.15-12.15-12.15-12.6,4.05-12.6,12.15,4.2,12.6,12.6,12.6Zm3.6,246.15c6.6,0,9.9-3.3,9.9-9.9s-3.3-9.9-9.9-9.9-9.9,3.3-9.9,9.9,3.3,9.9,9.9,9.9Zm-4.05-45.9c0-7.5-3.9-11.25-11.7-11.25s-11.7,3.75-11.7,11.25,3.9,11.7,11.7,11.7,11.7-3.9,11.7-11.7Zm-34.2-7.65c8.4,0,12.6-4.05,12.6-12.15s-4.21-12.6-12.6-12.6-12.15,4.2-12.15,12.6,4.05,12.15,12.15,12.15Zm19.8-191.25c-8.4,0-12.6,4.05-12.6,12.15s4.2,12.6,12.6,12.6,12.15-4.2,12.15-12.6-4.05-12.15-12.15-12.15Zm-9,234.9c7.5,0,11.25-3.75,11.25-11.25s-3.75-11.25-11.25-11.25-11.25,3.75-11.25,11.25,3.75,11.25,11.25,11.25ZM832.19,54.11c8.1,0,12.15-4.05,12.15-12.15s-4.05-12.6-12.15-12.6-12.15,4.2-12.15,12.6,4.05,12.15,12.15,12.15Zm-27.9-14.85c8.4,0,12.6-4.05,12.6-12.15s-4.2-12.15-12.6-12.15-12.15,4.05-12.15,12.15,4.05,12.15,12.15,12.15Zm-112.5,8.1c0,7.5,3.75,11.25,11.25,11.25s10.8-3.75,10.8-11.25-3.6-11.25-10.8-11.25-11.25,3.75-11.25,11.25Zm83.7-17.1c8.1,0,12.15-4.05,12.15-12.15s-4.05-12.15-12.15-12.15-12.6,4.05-12.6,12.15,4.2,12.15,12.6,12.15Zm-67.05,261.9c0-7.8-3.9-11.7-11.7-11.7s-11.7,3.9-11.7,11.7,3.9,11.7,11.7,11.7,11.7-3.9,11.7-11.7Zm97.2-224.1c0,8.1,4.05,12.15,12.15,12.15s12.6-4.05,12.6-12.15-4.2-12.15-12.6-12.15-12.15,4.05-12.15,12.15Zm-26.1-17.1c0,7.5,3.75,11.25,11.25,11.25s11.25-3.75,11.25-11.25-3.75-11.25-11.25-11.25-11.25,3.75-11.25,11.25Zm-59.4-9c0,7.5,3.75,11.25,11.25,11.25s10.8-3.75,10.8-11.25-3.6-11.25-10.8-11.25-11.25,3.75-11.25,11.25Zm-6.3-13.05c8.4,0,12.6-4.05,12.6-12.15s-4.2-12.6-12.6-12.6-12.15,4.2-12.15,12.6,4.05,12.15,12.15,12.15Zm36.9,13.05c0,7.5,3.75,11.25,11.25,11.25s11.25-3.75,11.25-11.25-3.75-11.25-11.25-11.25-11.25,3.75-11.25,11.25Zm-6.3-14.4c8.4,0,12.6-4.2,12.6-12.6s-4.2-12.15-12.6-12.15-12.15,4.05-12.15,12.15,4.05,12.6,12.15,12.6Zm-61.2,108.9c-8.1,0-12.15,4.21-12.15,12.6s4.05,12.15,12.15,12.15,12.6-4.05,12.6-12.15-4.2-12.6-12.6-12.6Zm-2.7,59.4c0,7.8,3.9,11.7,11.7,11.7s11.7-3.9,11.7-11.7-3.9-11.7-11.7-11.7-11.7,3.9-11.7,11.7Zm28.35,12.6c0,7.8,3.9,11.7,11.7,11.7s11.7-3.9,11.7-11.7-3.9-11.7-11.7-11.7-11.7,3.9-11.7,11.7Zm0-52.65c-8.4,0-12.6,4.2-12.6,12.6s4.2,12.15,12.6,12.15,12.15-4.05,12.15-12.15-4.05-12.6-12.15-12.6Zm28.35,14.4c-8.4,0-12.6,4.05-12.6,12.15s4.2,12.6,12.6,12.6,12.15-4.2,12.15-12.6-4.05-12.15-12.15-12.15Zm-.45,49.5c0,7.8,3.9,11.7,11.7,11.7s11.7-3.9,11.7-11.7-3.9-11.7-11.7-11.7-11.7,3.9-11.7,11.7Zm117.9,45c0-6.6-2.51-10.6-7.52-12.01v-7.68c4.71-1.58,7.07-5.51,7.07-11.8,0-7.3-3.43-11.3-10.25-12.02l-2.83-6.44c2.72-1.99,4.09-5.28,4.09-9.89,0-8.1-4.21-12.15-12.6-12.15-2.17,0-4.05.3-5.64.88l-4.05-4.05c.76-1.72,1.14-3.81,1.14-6.28,0-8.1-4.05-12.15-12.15-12.15-3.87,0-6.83.87-8.92,2.59-2.05-1.29-4.11-2.59-6.16-3.88.15-.99.23-2.06.23-3.21,0-8.1-4.05-12.15-12.15-12.15-4.69,0-8.02,1.37-9.99,4.09-2.23-.92-4.46-1.84-6.69-2.77.01-.29.03-.57.03-.87,0-8.4-4.2-12.6-12.6-12.6-4.48,0-7.71,1.29-9.71,3.86-2.32-1.04-4.63-2.08-6.95-3.11,0-.1,0-.19,0-.29,0-8.1-4.05-12.15-12.15-12.15-2.32,0-4.3.32-5.98.94-1.97-1.72-3.94-3.45-5.91-5.17.13-.92.19-1.91.19-2.97,0-7.69-3.65-11.72-10.95-12.11-.43-1.87-.86-3.73-1.29-5.6,4.25-1.72,6.39-5.56,6.39-11.54,0-2.82-.52-5.13-1.54-6.97,1.47-1.55,2.95-3.1,4.42-4.65,1.61.54,3.49.82,5.66.82,7.48,0,11.49-3.46,12.07-10.36,2.46-.59,4.91-1.19,7.37-1.78,1.33,5.08,5.2,7.64,11.61,7.64,5.84,0,9.64-1.96,11.42-5.88,2.04.56,4.09,1.12,6.13,1.67,0,.05,0,.1,0,.15,0,8.4,4.2,12.6,12.6,12.6,3.43,0,6.12-.76,8.09-2.26,1.6,1.27,3.21,2.54,4.81,3.81-.5,1.49-.75,3.23-.75,5.2,0,8.4,4.2,12.6,12.6,12.6s12.15-4.2,12.15-12.6-4.05-12.15-12.15-12.15c-3.51,0-6.28.72-8.32,2.13-1.67-1.32-3.33-2.64-5-3.96.48-1.55.72-3.33.72-5.38,0-8.1-4.05-12.15-12.15-12.15-5.94,0-9.76,2.03-11.5,6.07-2.02-.55-4.04-1.1-6.06-1.65,0-.13.01-.24.01-.37,0-8.1-4.2-12.15-12.6-12.15-7.57,0-11.6,3.54-12.1,10.61-2.43.59-4.85,1.17-7.28,1.76-1.27-5.24-5.16-7.87-11.68-7.87-8.4,0-12.6,4.05-12.6,12.15,0,3.25.69,5.83,2.04,7.78-1.33,1.4-2.66,2.79-3.99,4.19-1.8-.78-3.99-1.17-6.6-1.17-8.1,0-12.15,4.05-12.15,12.15s4.05,12.6,12.15,12.6c.1,0,.2,0,.3,0,.39,1.69.78,3.39,1.17,5.08-5.17,1.37-7.77,5.22-7.77,11.57,0,8.4,4.2,12.6,12.6,12.6,4.4,0,7.6-1.25,9.61-3.73,1.15,1.01,2.3,2.01,3.45,3.02-1.21,1.91-1.81,4.39-1.81,7.46,0,8.4,4.2,12.6,12.6,12.6,5.7,0,9.39-2.09,11.07-6.25,1.94.87,3.87,1.74,5.81,2.6-.15.99-.23,2.05-.23,3.19,0,8.1,4.05,12.15,12.15,12.15,5.59,0,9.32-1.81,11.18-5.4,2.02.84,4.04,1.67,6.06,2.51-.09.77-.15,1.58-.15,2.45,0,8.4,4.05,12.6,12.15,12.6,4.41,0,7.61-1.26,9.62-3.75,1.77,1.12,3.54,2.23,5.31,3.35-.35,1.32-.54,2.8-.54,4.45,0,8.1,4.2,12.15,12.6,12.15,2.8,0,5.1-.5,6.93-1.46l3.4,3.4c-1.18,1.91-1.78,4.41-1.78,7.51,0,8.1,4.05,12.15,12.15,12.15,1.04,0,2.01-.06,2.91-.19.68,1.55,1.36,3.1,2.04,4.65-5.4,1.21-8.11,5.12-8.11,11.74,0,8.23,3.9,12.42,11.68,12.58v6.36c-7.19.46-10.78,4.65-10.78,12.55,0,5.95,2.19,9.7,6.56,11.28-.47,1.82-.94,3.65-1.41,5.47-.64-.06-1.3-.11-1.99-.11-8.1,0-12.15,4.2-12.15,12.6,0,3.83.92,6.75,2.73,8.77-.9,1.26-1.8,2.52-2.7,3.79-1.83-.87-4.09-1.3-6.78-1.3-8.1,0-12.15,4.21-12.15,12.6,0,1.73.2,3.26.56,4.62-1.89.98-3.78,1.96-5.67,2.94-1.96-1.43-4.6-2.16-7.95-2.16-7.46,0-11.48,3.58-12.07,10.71-1.76.61-3.51,1.22-5.27,1.82-1.96-2.95-5.32-4.43-10.12-4.43-7.39,0-11.52,3.25-12.41,9.74l-7.69,1.17c-1.51-4.57-5.31-6.85-11.4-6.85-6.52,0-10.42,2.63-11.69,7.89-2.46-.16-4.92-.33-7.38-.49-.82-6.42-4.96-9.64-12.44-9.64-5.86,0-9.58,2.13-11.21,6.36-1.52-.3-3.05-.61-4.57-.91-.28-7.82-4.47-11.75-12.57-11.75-4.68,0-7.99,1.41-9.97,4.21-2.09-.86-4.18-1.73-6.27-2.59.02-.38.04-.77.04-1.17,0-8.1-4.05-12.15-12.15-12.15-4.09,0-7.15,1.04-9.17,3.11-1.67-.9-3.34-1.79-5.02-2.69.15-.96.24-2,.24-3.12,0-8.1-4.05-12.15-12.15-12.15-4.67,0-7.99,1.36-9.97,4.06-.92-.45-1.83-.89-2.75-1.34-5.03-2.45-10.07-4.91-15.1-7.36.24-1.18.37-2.48.37-3.91,0-8.4-4.2-12.6-12.6-12.6-7.81,0-11.98,3.64-12.53,10.89h-10.49c-.55-7.25-4.73-10.89-12.53-10.89s-11.84,3.53-12.5,10.56c-3.38-.1-6.76-.2-10.14-.31-.75-6.82-4.9-10.25-12.47-10.25-8.4,0-12.6,4.2-12.6,12.6s4.2,12.6,12.6,12.6c7.07,0,11.16-2.99,12.27-8.95,3.54.11,7.07.21,10.61.32,1.2,5.75,5.26,8.63,12.22,8.63s10.87-2.77,12.15-8.31h11.24c1.28,5.54,5.33,8.31,12.15,8.31,4.3,0,7.5-1.11,9.6-3.32.71.35,1.42.69,2.13,1.04,5.44,2.65,10.88,5.3,16.32,7.95-.09.77-.15,1.57-.15,2.43,0,8.1,4.05,12.15,12.15,12.15,4.34,0,7.51-1.18,9.53-3.51,1.59.85,3.18,1.7,4.76,2.55-.22,1.11-.34,2.32-.34,3.65,0,8.4,4.05,12.6,12.15,12.6,5.37,0,8.95-1.86,10.76-5.55,1.87.77,3.74,1.55,5.61,2.32-.11.87-.17,1.79-.17,2.77,0,8.1,4.05,12.15,12.15,12.15,6.39,0,10.34-2.35,11.87-7.04,1.44.29,2.89.58,4.33.87.04,8.01,4.09,12.02,12.15,12.02,7.09,0,11.17-2.9,12.28-8.67,2.38.16,4.76.32,7.14.48.55,6.96,4.57,10.44,12.08,10.44,7.89,0,11.92-3.85,12.13-11.53l7.03-1.06c1.01,5.99,5.12,8.99,12.34,8.99,8.1,0,12.15-4.05,12.15-12.15,0-.88-.05-1.7-.14-2.48,1.26-.44,2.51-.87,3.77-1.31,1.28,5.22,5.17,7.84,11.67,7.84,8.1,0,12.15-4.05,12.15-12.15,0-2.09-.25-3.91-.75-5.48,1.8-.93,3.59-1.86,5.39-2.79,2,1.61,4.8,2.42,8.42,2.42,8.4,0,12.6-4.05,12.6-12.15,0-2.86-.5-5.22-1.47-7.1,1.2-1.68,2.4-3.36,3.6-5.04,1.25.29,2.64.44,4.17.44,8.1,0,12.15-4.05,12.15-12.15,0-5.07-1.49-8.6-4.44-10.61.56-2.17,1.12-4.33,1.68-6.5,7.84-.13,11.77-4.17,11.77-12.14Zm-197.55-206.55c8.4,0,12.6-4.05,12.6-12.15s-4.21-12.6-12.6-12.6-12.15,4.2-12.15,12.6,4.05,12.15,12.15,12.15Zm-26.1,239.85c8.4,0,12.6-4.2,12.6-12.6s-4.2-12.15-12.6-12.15-12.15,4.05-12.15,12.15,4.05,12.6,12.15,12.6Zm135.9-116.1c-8.1,0-12.15,4.2-12.15,12.6s4.05,12.15,12.15,12.15,12.6-4.05,12.6-12.15-4.2-12.6-12.6-12.6Zm-134.1-70.2c8.1,0,12.15-4.05,12.15-12.15s-4.05-12.15-12.15-12.15-12.6,4.05-12.6,12.15,4.2,12.15,12.6,12.15Zm7.2-28.8c8.1,0,12.15-4.2,12.15-12.6s-4.05-12.15-12.15-12.15-12.15,4.05-12.15,12.15,4.05,12.6,12.15,12.6Zm126.45,243c7.2,0,10.8-3.75,10.8-11.25s-3.6-11.25-10.8-11.25-11.25,3.75-11.25,11.25,3.75,11.25,11.25,11.25Zm-9-24.3c7.8,0,11.7-3.9,11.7-11.7s-3.9-11.7-11.7-11.7-11.7,3.9-11.7,11.7,3.9,11.7,11.7,11.7Zm15.75-76.05c-7.8,0-11.7,3.75-11.7,11.25s3.9,11.7,11.7,11.7,11.25-3.9,11.25-11.7-3.75-11.25-11.25-11.25Zm-34.65,70.65c0-7.8-3.9-11.7-11.7-11.7s-11.7,3.9-11.7,11.7,3.9,11.25,11.7,11.25,11.7-3.75,11.7-11.25Zm-1.35,35.1c6.6,0,9.9-3.3,9.9-9.9s-3.3-9.9-9.9-9.9-10.35,3.3-10.35,9.9,3.45,9.9,10.35,9.9Zm51.3-63c0-7.5-3.6-11.25-10.8-11.25s-11.25,3.75-11.25,11.25,3.75,11.25,11.25,11.25,10.8-3.75,10.8-11.25Zm-77.4,62.55c6.6,0,9.9-3.45,9.9-10.35s-3.3-9.9-9.9-9.9-10.35,3.3-10.35,9.9,3.45,10.35,10.35,10.35Zm83.7-131.4c-8.4,0-12.6,4.05-12.6,12.15s4.2,12.15,12.6,12.15,12.15-4.05,12.15-12.15-4.05-12.15-12.15-12.15Zm13.95,28.35c-8.1,0-12.15,4.05-12.15,12.15s4.05,12.15,12.15,12.15,12.6-4.05,12.6-12.15-4.2-12.15-12.6-12.15Zm-17.1,81.45c8.1,0,12.15-4.2,12.15-12.6s-4.05-12.15-12.15-12.15-12.15,4.05-12.15,12.15,4.05,12.6,12.15,12.6Zm28.8-37.8c0-8.4-4.05-12.6-12.15-12.6s-12.6,4.2-12.6,12.6,4.2,12.15,12.6,12.15,12.15-4.05,12.15-12.15Z"/>
    </clipPath>
    <linearGradient id="linear-gradient" x1="432.17" y1="366" x2="432.17" y2="0" gradientUnits="userSpaceOnUse">
      <stop offset="0" stop-color="#1bc1ec"/>
      <stop offset="1" stop-color="#0081b9"/>
    </linearGradient>
  </defs>
  <g class="cls-1">
    <rect class="cls-3" x="9.17" width="846" height="366"/>
  </g>
  <g>
    <path class="cls-4" d="m22.74,459.31c-4.81-2.7-8.62-6.44-11.44-11.22-2.82-4.78-4.22-10.19-4.22-16.24s1.41-11.37,4.22-16.15c2.82-4.78,6.63-8.52,11.44-11.22,4.81-2.7,10.09-4.05,15.84-4.05s11.1,1.35,15.88,4.05c4.78,2.7,8.56,6.44,11.35,11.22,2.79,4.78,4.18,10.16,4.18,16.15s-1.39,11.46-4.18,16.24c-2.79,4.78-6.59,8.52-11.4,11.22-4.81,2.7-10.09,4.05-15.84,4.05s-11.03-1.35-15.84-4.05Zm25.61-9.46c2.82-1.67,5.02-4.06,6.6-7.17,1.58-3.11,2.38-6.72,2.38-10.82s-.79-7.7-2.38-10.78-3.78-5.44-6.6-7.08c-2.82-1.64-6.07-2.46-9.77-2.46s-6.97.82-9.81,2.46c-2.85,1.64-5.06,4-6.64,7.08s-2.38,6.67-2.38,10.78.79,7.72,2.38,10.82c1.58,3.11,3.8,5.5,6.64,7.17,2.84,1.67,6.12,2.51,9.81,2.51s6.95-.84,9.77-2.51Z"/>
    <path class="cls-4" d="m131.69,462.74h-12.32l-27.9-42.15v42.15h-12.32v-61.51h12.32l27.9,42.24v-42.24h12.32v61.51Z"/>
    <path class="cls-4" d="m185.63,401.31v9.94h-16.37v51.48h-12.32v-51.48h-16.37v-9.94h45.06Z"/>
    <path class="cls-4" d="m207.28,459.31c-4.81-2.7-8.62-6.44-11.44-11.22-2.82-4.78-4.22-10.19-4.22-16.24s1.41-11.37,4.22-16.15c2.82-4.78,6.63-8.52,11.44-11.22,4.81-2.7,10.09-4.05,15.84-4.05s11.1,1.35,15.88,4.05c4.78,2.7,8.56,6.44,11.35,11.22,2.79,4.78,4.18,10.16,4.18,16.15s-1.39,11.46-4.18,16.24c-2.79,4.78-6.59,8.52-11.4,11.22-4.81,2.7-10.09,4.05-15.84,4.05s-11.03-1.35-15.84-4.05Zm25.61-9.46c2.82-1.67,5.02-4.06,6.6-7.17,1.58-3.11,2.38-6.72,2.38-10.82s-.79-7.7-2.38-10.78-3.78-5.44-6.6-7.08c-2.82-1.64-6.07-2.46-9.77-2.46s-6.97.82-9.81,2.46c-2.85,1.64-5.06,4-6.64,7.08s-2.38,6.67-2.38,10.78.79,7.72,2.38,10.82c1.58,3.11,3.8,5.5,6.64,7.17,2.84,1.67,6.12,2.51,9.81,2.51s6.95-.84,9.77-2.51Z"/>
    <path class="cls-4" d="m276,452.97h20.24v9.77h-32.56v-61.42h12.32v51.66Z"/>
    <path class="cls-4" d="m316.75,459.31c-4.81-2.7-8.62-6.44-11.44-11.22-2.82-4.78-4.22-10.19-4.22-16.24s1.41-11.37,4.22-16.15c2.82-4.78,6.63-8.52,11.44-11.22,4.81-2.7,10.09-4.05,15.84-4.05s11.1,1.35,15.88,4.05c4.78,2.7,8.56,6.44,11.35,11.22,2.79,4.78,4.18,10.16,4.18,16.15s-1.39,11.46-4.18,16.24c-2.79,4.78-6.59,8.52-11.4,11.22-4.81,2.7-10.09,4.05-15.84,4.05s-11.03-1.35-15.84-4.05Zm25.61-9.46c2.82-1.67,5.02-4.06,6.6-7.17,1.58-3.11,2.38-6.72,2.38-10.82s-.79-7.7-2.38-10.78-3.78-5.44-6.6-7.08c-2.82-1.64-6.07-2.46-9.77-2.46s-6.97.82-9.81,2.46c-2.85,1.64-5.06,4-6.64,7.08s-2.38,6.67-2.38,10.78.79,7.72,2.38,10.82c1.58,3.11,3.8,5.5,6.64,7.17,2.84,1.67,6.12,2.51,9.81,2.51s6.95-.84,9.77-2.51Z"/>
    <path class="cls-4" d="m415.92,419.79c-1.41-2.58-3.34-4.55-5.81-5.9-2.46-1.35-5.34-2.02-8.62-2.02-3.64,0-6.86.82-9.68,2.46-2.82,1.64-5.02,3.99-6.6,7.04-1.58,3.05-2.38,6.57-2.38,10.56s.81,7.69,2.42,10.74c1.61,3.05,3.86,5.4,6.73,7.04,2.87,1.64,6.22,2.46,10.03,2.46,4.69,0,8.54-1.25,11.53-3.74,2.99-2.49,4.96-5.97,5.9-10.43h-21.12v-9.42h33.26v10.74c-.82,4.28-2.58,8.24-5.28,11.88-2.7,3.64-6.18,6.56-10.43,8.76-4.25,2.2-9.02,3.3-14.3,3.3-5.93,0-11.28-1.33-16.06-4-4.78-2.67-8.54-6.38-11.26-11.13s-4.09-10.15-4.09-16.19,1.36-11.45,4.09-16.24c2.73-4.78,6.48-8.51,11.26-11.18,4.78-2.67,10.1-4,15.97-4,6.92,0,12.94,1.69,18.04,5.06,5.1,3.37,8.62,8.11,10.56,14.21h-14.17Z"/>
    <path class="cls-4" d="m489.58,401.31l-20.77,40.04v21.38h-12.32v-21.38l-20.86-40.04h13.9l13.2,28.07,13.11-28.07h13.73Z"/>
    <path class="cls-4" d="m527.28,461.15c-3.43-1.47-6.15-3.58-8.14-6.34-2-2.76-3.02-6.01-3.08-9.77h13.2c.18,2.52,1.07,4.52,2.68,5.98,1.61,1.47,3.83,2.2,6.64,2.2s5.13-.69,6.78-2.07c1.64-1.38,2.46-3.18,2.46-5.41,0-1.82-.56-3.31-1.67-4.49-1.12-1.17-2.51-2.1-4.18-2.77-1.67-.67-3.98-1.42-6.91-2.24-3.99-1.17-7.23-2.33-9.72-3.48-2.49-1.14-4.64-2.87-6.42-5.19-1.79-2.32-2.68-5.41-2.68-9.28,0-3.64.91-6.81,2.73-9.5,1.82-2.7,4.37-4.77,7.66-6.2,3.29-1.44,7.04-2.16,11.26-2.16,6.34,0,11.48,1.54,15.44,4.62s6.15,7.38,6.56,12.89h-13.55c-.12-2.11-1.01-3.86-2.68-5.24-1.67-1.38-3.89-2.07-6.64-2.07-2.41,0-4.33.62-5.76,1.85-1.44,1.23-2.16,3.02-2.16,5.37,0,1.64.54,3.01,1.63,4.09,1.08,1.09,2.43,1.97,4.05,2.64,1.61.68,3.89,1.45,6.82,2.33,3.99,1.17,7.25,2.35,9.77,3.52,2.52,1.17,4.69,2.93,6.51,5.28,1.82,2.35,2.73,5.43,2.73,9.24,0,3.29-.85,6.34-2.55,9.15-1.7,2.82-4.19,5.06-7.48,6.73-3.29,1.67-7.19,2.51-11.7,2.51-4.28,0-8.14-.73-11.57-2.2Z"/>
    <path class="cls-4" d="m583.56,411.26v15.4h20.68v9.77h-20.68v16.28h23.32v10.03h-35.64v-61.51h35.64v10.03h-23.32Z"/>
    <path class="cls-4" d="m655.72,451.03h-24.46l-4.05,11.7h-12.94l22.09-61.51h14.34l22.09,61.51h-13.02l-4.05-11.7Zm-3.34-9.86l-8.89-25.7-8.89,25.7h17.78Z"/>
    <path class="cls-4" d="m712.74,462.74l-13.55-23.94h-5.81v23.94h-12.32v-61.42h23.06c4.75,0,8.8.84,12.14,2.51,3.34,1.67,5.85,3.93,7.52,6.78,1.67,2.85,2.51,6.03,2.51,9.55,0,4.05-1.17,7.7-3.52,10.96-2.35,3.26-5.84,5.5-10.47,6.73l14.7,24.9h-14.26Zm-19.36-33.18h10.3c3.34,0,5.84-.81,7.48-2.42,1.64-1.61,2.46-3.86,2.46-6.73s-.82-5-2.46-6.56c-1.64-1.55-4.14-2.33-7.48-2.33h-10.3v18.04Z"/>
    <path class="cls-4" d="m738.57,415.7c2.73-4.78,6.45-8.51,11.18-11.18,4.72-2.67,10.02-4,15.88-4,6.86,0,12.88,1.76,18.04,5.28,5.16,3.52,8.77,8.39,10.82,14.61h-14.17c-1.41-2.93-3.39-5.13-5.94-6.6-2.55-1.47-5.5-2.2-8.84-2.2-3.58,0-6.76.84-9.55,2.51-2.79,1.67-4.96,4.03-6.51,7.08-1.56,3.05-2.33,6.63-2.33,10.74s.78,7.61,2.33,10.69c1.55,3.08,3.73,5.46,6.51,7.13,2.79,1.67,5.97,2.51,9.55,2.51,3.34,0,6.29-.75,8.84-2.24,2.55-1.5,4.53-3.71,5.94-6.64h14.17c-2.05,6.28-5.65,11.16-10.78,14.65-5.13,3.49-11.16,5.24-18.08,5.24-5.87,0-11.16-1.33-15.88-4-4.72-2.67-8.45-6.38-11.18-11.13s-4.09-10.15-4.09-16.19,1.36-11.45,4.09-16.24Z"/>
    <path class="cls-4" d="m856,401.31v61.42h-12.32v-26.14h-26.31v26.14h-12.32v-61.42h12.32v25.26h26.31v-25.26h12.32Z"/>
  </g>
</svg>