<?xml version="1.0" encoding="UTF-8" standalone="no"?>
<!-- Created with Inkscape (http://www.inkscape.org/) -->

<svg
   width="81.230766mm"
   height="81.230766mm"
   viewBox="0 0 81.230766 81.230766"
   version="1.1"
   id="svg5"
   inkscape:export-filename="bitmap.svg"
   inkscape:export-xdpi="96"
   inkscape:export-ydpi="96"
   inkscape:version="1.2.2 (b0a8486, 2022-12-01)"
   sodipodi:docname="part.svg"
   xmlns:inkscape="http://www.inkscape.org/namespaces/inkscape"
   xmlns:sodipodi="http://sodipodi.sourceforge.net/DTD/sodipodi-0.dtd"
   xmlns="http://www.w3.org/2000/svg"
   xmlns:svg="http://www.w3.org/2000/svg">
  <sodipodi:namedview
     id="namedview7"
     pagecolor="#ffffff"
     bordercolor="#666666"
     borderopacity="1.0"
     inkscape:showpageshadow="2"
     inkscape:pageopacity="0.0"
     inkscape:pagecheckerboard="0"
     inkscape:deskcolor="#d1d1d1"
     inkscape:document-units="mm"
     showgrid="false"
     inkscape:zoom="0.93806818"
     inkscape:cx="98.606905"
     inkscape:cy="494.63356"
     inkscape:window-width="2124"
     inkscape:window-height="1428"
     inkscape:window-x="331"
     inkscape:window-y="25"
     inkscape:window-maximized="0"
     inkscape:current-layer="layer1" />
  <defs
     id="defs2" />
  <g
     inkscape:label="Layer 1"
     inkscape:groupmode="layer"
     id="layer1"
     transform="translate(-20.307693,-18.051285)">
    <circle
       style="fill:#734595;fill-opacity:1;stroke-width:0.264583"
       id="path1514"
       cx="60.923077"
       cy="58.666668"
       r="40.615383"
       inkscape:label="path1514" />
    <path
       id="text3078"
       style="font-style:normal;font-weight:normal;font-size:75.1039px;line-height:1.25;font-family:sans-serif;fill:#ffffff;fill-opacity:1;stroke:none;stroke-width:1.8776"
       d="M 50.175645 32.65313 C 47.779755 32.65313 46.031477 33.166728 44.931323 34.193539 C 43.831169 35.220349 43.281412 36.931309 43.281412 39.327199 L 43.281412 80.766576 C 43.281412 82.917988 43.78244 84.556168 44.784802 85.68077 C 45.787164 86.780923 47.10751 87.330912 48.745516 87.330912 C 50.310179 87.330912 51.605644 86.768621 52.632454 85.644019 C 53.659264 84.519418 54.172474 82.868935 54.172474 80.693075 L 54.172474 65.474292 L 64.147263 65.474292 C 70.821528 65.474292 75.845532 64.068823 79.219337 61.25732 C 82.593141 58.421368 84.280508 54.264921 84.280508 48.788601 C 84.280508 46.221576 83.864757 43.911417 83.03353 41.857797 C 82.202303 39.804177 80.979933 38.068094 79.366374 36.650118 C 77.777263 35.232142 75.882279 34.217765 73.681972 33.606568 C 71.457217 32.970924 68.278951 32.65313 64.147263 32.65313 L 50.175645 32.65313 z M 54.172474 40.830858 L 61.507302 40.830858 C 66.372426 40.830858 69.58724 41.625343 71.151903 43.214454 C 72.545431 44.705773 73.241893 46.637143 73.241893 49.008585 C 73.241893 50.988862 72.789595 52.590135 71.885024 53.812528 C 70.980454 55.034921 69.660624 55.915524 67.924826 56.453377 C 66.213476 56.99123 64.074328 57.259814 61.507302 57.259814 L 54.172474 57.259814 L 54.172474 40.830858 z "
       transform="scale(1.0016374,0.99836528)" />
  </g>
</svg>
