<?xml version="1.0" encoding="UTF-8" standalone="no"?>
<!DOCTYPE svg PUBLIC "-//W3C//DTD SVG 1.1//EN" "http://www.w3.org/Graphics/SVG/1.1/DTD/svg11.dtd">
<svg xmlns:xl="http://www.w3.org/1999/xlink" xmlns:dc="http://purl.org/dc/elements/1.1/" version="1.1" xmlns="http://www.w3.org/2000/svg" viewBox="-10 168 922 1048" width="922" height="1048">
  <defs>
    <marker orient="auto" overflow="visible" markerUnits="strokeWidth" id="FilledArrow_Marker" stroke-linejoin="miter" stroke-miterlimit="10" viewBox="-1 -4 10 8" markerWidth="10" markerHeight="8" color="#666">
      <g>
        <path d="M 8 0 L 0 -3 L 0 3 Z" fill="currentColor" stroke="currentColor" stroke-width="1"/>
      </g>
    </marker>
    <marker orient="auto" overflow="visible" markerUnits="strokeWidth" id="FilledArrow_Marker_2" stroke-linejoin="miter" stroke-miterlimit="10" viewBox="-1 -3 7 6" markerWidth="7" markerHeight="6" color="black">
      <g>
        <path d="M 4.8 0 L 0 -1.8 L 0 1.8 Z" fill="currentColor" stroke="currentColor" stroke-width="1"/>
      </g>
    </marker>
    <filter id="Shadow" filterUnits="userSpaceOnUse" x="-102.2" y="63.2">
      <feGaussianBlur in="SourceAlpha" result="blur" stdDeviation="1.308"/>
      <feOffset in="blur" result="offset" dx="0" dy="2"/>
      <feFlood flood-color="black" flood-opacity=".5" result="flood"/>
      <feComposite in="flood" in2="offset" operator="in" result="color"/>
      <feMerge>
        <feMergeNode in="color"/>
        <feMergeNode in="SourceGraphic"/>
      </feMerge>
    </filter>
    <marker orient="auto" overflow="visible" markerUnits="strokeWidth" id="FilledArrow_Marker_3" stroke-linejoin="miter" stroke-miterlimit="10" viewBox="-1 -3 6 6" markerWidth="6" markerHeight="6" color="black">
      <g>
        <path d="M 3.7333333 0 L 0 -1.4 L 0 1.4 Z" fill="currentColor" stroke="currentColor" stroke-width="1"/>
      </g>
    </marker>
    <marker orient="auto" overflow="visible" markerUnits="strokeWidth" id="FilledArrow_Marker_4" stroke-linejoin="miter" stroke-miterlimit="10" viewBox="-1 -3 5 6" markerWidth="5" markerHeight="6" color="black">
      <g>
        <path d="M 2.88 0 L 0 -1.08 L 0 1.08 Z" fill="currentColor" stroke="currentColor" stroke-width="1"/>
      </g>
    </marker>
    <marker orient="auto" overflow="visible" markerUnits="strokeWidth" id="StickArrow_Marker" stroke-linejoin="miter" stroke-miterlimit="10" viewBox="-1 -4 10 8" markerWidth="10" markerHeight="8" color="black">
      <g>
        <path d="M 8 0 L 0 0 M 0 -3 L 8 0 L 0 3" fill="none" stroke="currentColor" stroke-width="1"/>
      </g>
    </marker>
  </defs>
  <g id="Canvas_1" stroke-opacity="1" stroke="none" fill-opacity="1" fill="none" stroke-dasharray="none">
    <title>Canvas 1</title>
    <rect fill="white" x="-10" y="168" width="922" height="1048"/>
    <g id="Canvas_1_Layer_1">
      <title>Layer 1</title>
      <g id="Graphic_40">
        <path d="M 97.5 287.5 L 793.2109 287.5 C 798.7338 287.5 803.2109 291.97715 803.2109 297.5 L 803.2109 793.5 C 803.2109 799.0228 798.7338 803.5 793.2109 803.5 L 97.5 803.5 C 91.97715 803.5 87.5 799.0228 87.5 793.5 L 87.5 297.5 C 87.5 291.97715 91.97715 287.5 97.5 287.5 Z" fill="#c2e9fd"/>
      </g>
      <g id="Graphic_39">
        <path d="M 182.06156 1035.2161 L 710.3636 1035.2161 C 715.8865 1035.2161 720.3636 1039.6932 720.3636 1045.2161 L 720.3636 1205.216 C 720.3636 1210.7389 715.8865 1215.216 710.3636 1215.216 L 182.06156 1215.216 C 176.5387 1215.216 172.06156 1210.7389 172.06156 1205.216 L 172.06156 1045.2161 C 172.06156 1039.6932 176.5387 1035.2161 182.06156 1035.2161 Z" fill="#c2e9fd"/>
      </g>
      <g id="Graphic_3">
        <text transform="translate(166.62531 211)" fill="black">
          <tspan font-family="Gill Sans" font-weight="bold" font-size="21" fill="black" x="0" y="19">JSON config file with list of ontologies and OWL URLs</tspan>
        </text>
      </g>
      <g id="Graphic_5">
        <text transform="translate(753 173.07102)" fill="#666">
          <tspan font-family="Gill Sans" font-style="italic" font-size="16" fill="#666" x="0" y="15">OBO Foundry _config.yml</tspan>
        </text>
      </g>
      <g id="Graphic_6">
        <text transform="translate(564.5 173.07102)" fill="#666">
          <tspan font-family="Gill Sans" font-style="italic" font-size="16" fill="#666" x="0" y="15">Convert to JSON with yq</tspan>
        </text>
      </g>
      <g id="Line_7">
        <line x1="748" y1="182.57102" x2="726.2125" y2="182.57102" marker-end="url(#FilledArrow_Marker)" stroke="#666" stroke-linecap="round" stroke-linejoin="round" stroke-dasharray="1.0,4.0" stroke-width="1"/>
      </g>
      <g id="Line_8">
        <line x1="553.125" y1="192.70833" x2="519.0586" y2="203.10916" marker-end="url(#FilledArrow_Marker)" stroke="#666" stroke-linecap="round" stroke-linejoin="round" stroke-dasharray="1.0,4.0" stroke-width="1"/>
      </g>
      <g id="Graphic_9">
        <text transform="translate(410.0803 312)" fill="black">
          <tspan font-family="Gill Sans" font-weight="bold" font-size="20" fill="black" x="0" y="18">owl2json</tspan>
        </text>
      </g>
      <g id="Graphic_10">
        <text transform="translate(261.7293 367.944)" fill="black">
          <tspan font-family="Gill Sans" font-weight="bold" font-size="16" fill="black" x="0" y="15">Giant JSON file</tspan>
          <tspan font-family="Gill Sans" font-size="16" fill="black" y="15"> with all ontologies metadata + contents</tspan>
        </text>
      </g>
      <g id="Graphic_11">
        <text transform="translate(381.0428 423.888)" fill="black">
          <tspan font-family="Gill Sans" font-weight="bold" font-size="20" fill="black" x="0" y="18">json2flattened</tspan>
        </text>
      </g>
      <g id="Graphic_12">
        <text transform="translate(202.11994 484.276)" fill="black">
          <tspan font-family="Gill Sans" font-weight="bold" font-size="16" fill="black" x="0" y="15">Giant JSON file </tspan>
          <tspan font-family="Gill Sans" font-size="16" fill="black" y="15">as above, but with flattened class expressions &amp; reification</tspan>
          <tspan font-family="Gill Sans" font-size="16" fill="black" x="72.20703" y="34">(original, unflattened JSON preserved in a </tspan>
          <tspan font-family="Andale Mono" font-size="16" fill="black" y="34">_json</tspan>
          <tspan font-family="Gill Sans" font-size="16" fill="black" y="34"> field)</tspan>
        </text>
      </g>
      <g id="Graphic_13">
        <text transform="translate(308.9336 569.25)" fill="black">
          <tspan font-family="Gill Sans" font-weight="bold" font-size="20" fill="black" x="0" y="18">json2neo</tspan>
        </text>
      </g>
      <g id="Graphic_14">
        <text transform="translate(527.5726 569.25)" fill="black">
          <tspan font-family="Gill Sans" font-weight="bold" font-size="20" fill="black" x="0" y="18">json2solr</tspan>
        </text>
      </g>
      <g id="Graphic_15">
        <text transform="translate(173.45312 640.776)" fill="black">
          <tspan font-family="Gill Sans" font-weight="bold" font-size="16" fill="black" x="25.265625" y="15">CSV files</tspan>
          <tspan font-family="Gill Sans" font-size="16" fill="black" y="15"> for each ontology</tspan>
          <tspan font-family="Gill Sans" font-style="italic" font-size="16" fill="black" x="0" y="34">ontologies, classes, properties, individuals</tspan>
          <tspan font-family="Gill Sans" font-size="16" fill="black" x="79.87109" y="53">(lots of files)</tspan>
        </text>
      </g>
      <g id="Graphic_16">
        <text transform="translate(508.5345 642.4193)" fill="black">
          <tspan font-family="Gill Sans" font-size="16" fill="black" x="37.933594" y="15">Four giant</tspan>
          <tspan font-family="Gill Sans" font-weight="bold" font-size="16" fill="black" y="15"> JSONL files</tspan>
          <tspan font-family="Gill Sans" font-size="16" fill="black" y="15">:</tspan>
          <tspan font-family="Gill Sans" font-style="italic" font-size="16" fill="black" x="0" y="34">ontologies, classes, properties, individuals</tspan>
        </text>
      </g>
      <g id="Graphic_17">
        <text transform="translate(137.4961 738.4408)" fill="black">
          <tspan font-family="Gill Sans" font-size="16" fill="black" x="0" y="15">Create </tspan>
          <tspan font-family="Gill Sans" font-weight="bold" font-size="16" fill="black" y="15">Neo4j</tspan>
          <tspan font-family="Gill Sans" font-size="16" fill="black" y="15"> offline using neo4j-admin import</tspan>
          <tspan font-family="Gill Sans" font-size="16" fill="black" x="87.15625" y="34">(bash script included)</tspan>
        </text>
      </g>
      <g id="Graphic_18">
        <text transform="translate(490.91797 738.4408)" fill="black">
          <tspan font-family="Gill Sans" font-size="16" fill="black" x="0" y="15">Load into online but empty </tspan>
          <tspan font-family="Gill Sans" font-weight="bold" font-size="16" fill="black" y="15">Solr</tspan>
          <tspan font-family="Gill Sans" font-size="16" fill="black" y="15"> using wget</tspan>
          <tspan font-family="Gill Sans" font-size="16" fill="black" x="73.84766" y="34">(bash script included)</tspan>
        </text>
      </g>
      <g id="Graphic_19">
        <text transform="translate(304.81818 1049)" fill="black">
          <tspan font-family="Gill Sans" font-weight="bold" font-size="20" fill="black" x="0" y="18">ols-web server (Spring Boot)</tspan>
        </text>
      </g>
      <g id="Graphic_20">
        <text transform="translate(390.1753 1179.216)" fill="black">
          <tspan font-family="Gill Sans" font-weight="bold" font-size="20" fill="black" x="0" y="18">ols-web frontend (React)</tspan>
        </text>
      </g>
      <g id="Line_22">
        <line x1="454.0171" y1="240" x2="454.3611" y2="294.10026" marker-end="url(#FilledArrow_Marker_2)" stroke="black" stroke-linecap="round" stroke-linejoin="round" stroke-width="2"/>
      </g>
      <g id="Line_25">
        <line x1="454.3526" y1="340" x2="454.2336" y2="350.0449" marker-end="url(#FilledArrow_Marker_2)" stroke="black" stroke-linecap="round" stroke-linejoin="round" stroke-width="2"/>
      </g>
      <g id="Line_26">
        <line x1="453.909" y1="391.944" x2="453.909" y2="405.988" marker-end="url(#FilledArrow_Marker_2)" stroke="black" stroke-linecap="round" stroke-linejoin="round" stroke-width="2"/>
      </g>
      <g id="Line_27">
        <line x1="453.909" y1="451.888" x2="453.909" y2="466.376" marker-end="url(#FilledArrow_Marker_2)" stroke="black" stroke-linecap="round" stroke-linejoin="round" stroke-width="2"/>
      </g>
      <g id="Line_28">
        <line x1="423.04134" y1="527.276" x2="385.6711" y2="556.33185" marker-end="url(#FilledArrow_Marker_2)" stroke="black" stroke-linecap="round" stroke-linejoin="round" stroke-width="2"/>
      </g>
      <g id="Line_29">
        <line x1="490.92893" y1="527.276" x2="537.1369" y2="557.2326" marker-end="url(#FilledArrow_Marker_2)" stroke="black" stroke-linecap="round" stroke-linejoin="round" stroke-width="2"/>
      </g>
      <g id="Line_30">
        <line x1="293.9297" y1="702.776" x2="293.9297" y2="720.5408" marker-end="url(#FilledArrow_Marker_2)" stroke="black" stroke-linecap="round" stroke-linejoin="round" stroke-width="2"/>
      </g>
      <g id="Line_31">
        <line x1="343.01986" y1="597.25" x2="324.0272" y2="625.1164" marker-end="url(#FilledArrow_Marker_2)" stroke="black" stroke-linecap="round" stroke-linejoin="round" stroke-width="2"/>
      </g>
      <g id="Line_32">
        <line x1="584.7845" y1="597.25" x2="605.14926" y2="626.7977" marker-end="url(#FilledArrow_Marker_2)" stroke="black" stroke-linecap="round" stroke-linejoin="round" stroke-width="2"/>
      </g>
      <g id="Line_33">
        <line x1="630.26875" y1="685.4193" x2="632.1102" y2="720.5585" marker-end="url(#FilledArrow_Marker_2)" stroke="black" stroke-linecap="round" stroke-linejoin="round" stroke-width="2"/>
      </g>
      <g id="Graphic_37" filter="url(#Shadow)">
        <path d="M 52.247914 339.05267 L 133.31455 255.1057 L 158.18942 279.1271 L 77.12278 363.07405 Z" fill="#666"/>
        <text transform="translate(59.3179 338.92926) rotate(-46)" fill="white">
          <tspan font-family="Helvetica Neue" font-weight="bold" font-size="20" fill="white" x="36948222e-20" y="20">DATALOAD</tspan>
        </text>
      </g>
      <g id="Graphic_41">
        <text transform="translate(298.97708 858.83)" fill="black">
          <tspan font-family="Gill Sans" font-weight="bold" font-size="23" fill="black" x="0" y="21">Neo4j</tspan>
        </text>
      </g>
      <g id="Graphic_42">
        <text transform="translate(556.9487 854.931)" fill="black">
          <tspan font-family="Gill Sans" font-weight="bold" font-size="23" fill="black" x="0" y="21">Solr</tspan>
        </text>
      </g>
      <g id="Line_43">
        <line x1="302.32727" y1="781.4408" x2="319.84734" y2="831.5126" marker-end="url(#FilledArrow_Marker_3)" stroke="black" stroke-linecap="round" stroke-linejoin="round" stroke-width="3"/>
      </g>
      <g id="Line_44">
        <line x1="622.421" y1="781.4408" x2="595.8073" y2="836.3996" marker-end="url(#FilledArrow_Marker_3)" stroke="black" stroke-linecap="round" stroke-linejoin="round" stroke-width="3"/>
      </g>
      <g id="Line_45">
        <line x1="349.13597" y1="896.3345" x2="432.24723" y2="1030.4838" marker-end="url(#FilledArrow_Marker_3)" stroke="black" stroke-linecap="round" stroke-linejoin="round" stroke-width="3"/>
      </g>
      <g id="Line_46">
        <line x1="569.3744" y1="884.5071" x2="470.8383" y2="1030.8121" marker-end="url(#FilledArrow_Marker_3)" stroke="black" stroke-linecap="round" stroke-linejoin="round" stroke-width="3"/>
      </g>
      <g id="Graphic_51" filter="url(#Shadow)">
        <path d="M 498.51515 254.61117 L 836.1706 231 L 838.0541 257.93423 L 500.3986 281.5454 Z" fill="#ffffc0"/>
        <text transform="translate(503.85176 259.2502) rotate(-4)" fill="black">
          <tspan font-family="Marker Felt" font-size="16" fill="black" x="0" y="14">{ ontologies: [ id: efo, ontology_purl: http://www…</tspan>
        </text>
      </g>
      <g id="Graphic_53" filter="url(#Shadow)">
        <path d="M 592 398.4092 L 850.2334 380.35174 L 853.3027 424.24456 L 595.0693 442.302 Z" fill="#ffffc0"/>
        <text transform="translate(597.3366 403.0482) rotate(-4)" fill="black">
          <tspan font-family="Marker Felt" font-size="16" fill="black" x="73896445e-20" y="14">{ ontologies: [ id: efo, ontology_purl: …,</tspan>
          <tspan font-family="Marker Felt" font-size="16" fill="black" x="29.16" y="31">classes: [ … ], properties: [ …] </tspan>
        </text>
      </g>
      <g id="Graphic_54" filter="url(#Shadow)">
        <path d="M 136.41978 1065.3879 L 198.95292 1000.633 L 223.8278 1024.6543 L 161.29465 1089.4093 Z" fill="#666"/>
        <text transform="translate(143.48977 1065.2645) rotate(-46)" fill="white">
          <tspan font-family="Helvetica Neue" font-weight="bold" font-size="20" fill="white" x="22026825e-20" y="20">SERVER</tspan>
        </text>
      </g>
      <g id="Graphic_55">
        <text transform="translate(296.2251 1077.7161)" fill="black">
          <tspan font-family="Gill Sans" font-size="16" fill="black" x="39.929688" y="15">API v1</tspan>
          <tspan font-family="Gill Sans" font-size="16" fill="black" x="0" y="34">(OLS3 compatible)</tspan>
        </text>
      </g>
      <g id="Graphic_56">
        <text transform="translate(495.9048 1087.2161)" fill="black">
          <tspan font-family="Gill Sans" font-size="16" fill="black" x="0" y="15">API v2</tspan>
        </text>
      </g>
      <g id="Line_57">
        <line x1="517.0454" y1="1111.2161" x2="517.0454" y2="1158.316" marker-end="url(#FilledArrow_Marker_3)" stroke="black" stroke-linecap="round" stroke-linejoin="round" stroke-width="3"/>
      </g>
      <g id="Group_68">
        <g id="Group_58">
          <g id="Graphic_60">
            <path d="M 390.9529 309.65128 C 389.3819 310.7562 387.60133 312.00857 386.64727 314.0805 C 384.99016 317.69534 390.0381 321.63835 390.25386 321.80443 C 390.304 321.843 390.36403 321.86227 390.42386 321.86227 C 390.4874 321.86227 390.55103 321.84056 390.6027 321.79726 C 390.7029 321.71346 390.7313 321.5711 390.67116 321.45514 C 390.6529 321.41994 388.84093 317.9004 388.90827 315.3755 C 388.9321 314.4961 390.1628 313.49846 391.4657 312.44227 C 392.65903 311.47486 394.01173 310.37843 394.80316 309.0958 C 396.5406 306.27246 394.6095 303.49627 394.5898 303.4685 C 394.5131 303.3608 394.3715 303.32182 394.25046 303.3749 C 394.12953 303.42827 394.06253 303.55903 394.09016 303.68832 C 394.09407 303.7067 394.4696 305.5426 393.42463 307.43404 C 392.9942 308.21564 392.0483 308.8809 390.9529 309.65128 Z" fill="#db380e"/>
          </g>
          <g id="Graphic_59">
            <path d="M 397.57184 310.89626 C 397.68267 310.8128 397.7152 310.66052 397.6482 310.539 C 397.58107 310.41747 397.43498 310.3639 397.3052 310.41316 C 397.03833 310.51463 390.76977 312.93095 390.76977 315.8505 C 390.76977 317.8631 391.62947 318.92625 392.2572 319.70267 C 392.50344 320.0072 392.716 320.2702 392.78607 320.4947 C 392.9833 321.1417 392.51606 322.3111 392.31956 322.70716 C 392.2629 322.821 392.29068 322.95897 392.38703 323.0421 C 392.4391 323.08707 392.5041 323.1099 392.5692 323.1099 C 392.62457 323.1099 392.6802 323.09345 392.7283 323.05998 C 392.83607 322.98507 395.36243 321.19887 394.90934 319.04684 C 394.74054 318.22885 394.3386 317.6312 393.9839 317.1038 C 393.43446 316.28666 393.0376 315.69645 393.63965 314.60632 C 394.345 313.33477 397.5395 310.92044 397.57184 310.89626 Z" fill="#db380e"/>
          </g>
        </g>
        <g id="Group_61">
          <g id="Graphic_67">
            <path d="M 381.25454 323.15613 C 381.1471 323.47787 381.19783 323.79702 381.4011 324.0794 C 382.08064 325.0228 384.48767 325.54225 388.17906 325.54225 C 388.17926 325.54225 388.1794 325.54225 388.17953 325.54225 C 388.6797 325.54225 389.20776 325.5324 389.74864 325.51303 C 395.6505 325.3018 397.8395 323.46313 397.92984 323.38497 C 398.02825 323.29977 398.05455 323.15793 397.9934 323.04318 C 397.93216 322.9285 397.8002 322.87085 397.6741 322.9056 C 395.5955 323.4731 391.71427 323.67457 389.02216 323.67457 C 386.00977 323.67457 384.47565 323.45755 384.10005 323.2973 C 384.29276 323.0327 385.48144 322.56014 386.9544 322.2704 C 387.0952 322.2428 387.19193 322.11276 387.178 321.97 C 387.16404 321.8272 387.0441 321.7183 386.9006 321.7183 C 386.0372 321.7183 381.70717 321.78763 381.25454 323.15613 Z" fill="#73a1fb"/>
          </g>
          <g id="Graphic_66">
            <path d="M 401.0034 321.26236 C 399.7861 321.26236 398.63175 321.8725 398.58314 321.89833 C 398.4706 321.95863 398.41347 322.08772 398.44435 322.21177 C 398.47536 322.3356 398.58673 322.42268 398.71443 322.4228 C 398.74026 322.4228 401.31105 322.44386 401.54387 323.9127 C 401.75013 325.17987 399.11147 327.233 398.07732 327.91727 C 397.96563 327.99118 397.92227 328.13395 397.97413 328.25747 C 398.0183 328.3626 398.1206 328.42833 398.231 328.42833 C 398.25025 328.42833 398.26977 328.42634 398.28916 328.42222 C 398.5346 328.3697 404.2927 327.1008 403.6839 323.74828 C 403.31247 321.69367 402.02113 321.26236 401.0034 321.26236 Z" fill="#73a1fb"/>
          </g>
          <g id="Graphic_65">
            <path d="M 397.05453 327.507 C 397.0746 327.39963 397.0299 327.2904 396.9405 327.22764 L 395.55986 326.26056 C 395.49252 326.2134 395.40746 326.1986 395.32843 326.21952 C 395.31402 326.22318 393.8702 326.60276 391.77403 326.8355 C 390.9421 326.9288 390.0103 326.9781 389.07913 326.9781 C 386.9835 326.9781 385.61325 326.73185 385.4137 326.55122 C 385.38727 326.5005 385.39564 326.47745 385.40036 326.46463 C 385.4366 326.36383 385.6309 326.24403 385.75616 326.1966 C 385.8945 326.1454 385.96906 325.9952 385.92603 325.85416 C 385.88313 325.7129 385.73763 325.62984 385.59406 325.6643 C 384.2091 325.99852 383.5319 326.4659 383.58115 327.0534 C 383.6687 328.09504 386.08135 328.62968 388.121 328.771 C 388.41434 328.79104 388.73156 328.8012 389.06366 328.8012 C 389.06386 328.8012 389.064 328.8012 389.0642 328.8012 C 392.45583 328.8012 396.80385 327.73704 396.8473 327.7262 C 396.95346 327.70032 397.0344 327.6146 397.05453 327.507 Z" fill="#73a1fb"/>
          </g>
          <g id="Graphic_64">
            <path d="M 386.64567 329.7425 C 386.75026 329.6745 386.7966 329.54522 386.7595 329.42615 C 386.7225 329.3071 386.61114 329.22886 386.48603 329.23052 C 386.30043 329.23543 384.6699 329.309 384.55573 330.34714 C 384.5212 330.6574 384.61005 330.9409 384.81996 331.18957 C 385.4054 331.8834 386.98574 332.29577 389.65043 332.45023 C 389.96566 332.46916 390.28587 332.47865 390.6023 332.47865 C 393.99 332.47865 396.2716 331.41795 396.36716 331.3728 C 396.4598 331.32896 396.5209 331.2379 396.52634 331.13565 C 396.5318 331.0334 396.4807 330.93637 396.39333 330.8829 L 394.6485 329.81775 C 394.58794 329.78083 394.5155 329.7686 394.44643 329.78276 C 394.4354 329.78508 393.32754 330.01485 391.65563 330.24182 C 391.33927 330.28485 390.9431 330.3067 390.47825 330.3067 C 388.80813 330.3067 386.9505 330.03384 386.5942 329.85514 C 386.58903 329.8218 386.5956 329.77944 386.64567 329.7425 Z" fill="#73a1fb"/>
          </g>
          <g id="Graphic_63">
            <path d="M 389.0234 335.6813 C 396.78326 335.67472 400.94807 334.29473 401.7504 333.42634 C 402.0344 333.11914 402.0651 332.8283 402.041 332.6383 C 401.98135 332.1708 401.5555 331.8846 401.5072 331.8535 C 401.39073 331.7786 401.2344 331.7982 401.14357 331.90298 C 401.05293 332.00777 401.0508 332.1609 401.1418 332.26562 C 401.1907 332.32858 401.219 332.43396 401.0759 332.5772 C 400.75516 332.87676 397.52017 333.78606 392.1339 334.05926 C 391.39605 334.09757 390.62215 334.1171 389.83384 334.11723 C 385.0112 334.11723 381.4818 333.45662 381.01847 333.07173 C 381.19703 332.81513 382.44547 332.4052 383.77313 332.1733 C 383.92275 332.14722 384.0238 332.00624 384.00064 331.85616 C 383.97747 331.70615 383.83914 331.6029 383.68793 331.62248 C 383.6505 331.6276 383.5234 331.63516 383.37622 331.6442 C 381.1856 331.77793 378.65414 332.07603 378.52205 333.20474 C 378.48194 333.54866 378.58414 333.8609 378.82593 334.13264 C 379.41754 334.79736 381.118 335.68117 389.02315 335.68117 C 389.0233 335.6813 389.0233 335.6813 389.0234 335.6813 Z" fill="#73a1fb"/>
          </g>
          <g id="Graphic_62">
            <path d="M 403.27455 333.67105 C 403.16485 333.6203 403.0352 333.64594 402.9534 333.73426 C 402.94205 333.74655 401.77536 334.9665 398.2675 335.6829 C 396.9246 335.95197 394.4038 336.08844 390.77515 336.08844 C 387.13974 336.08844 383.68043 335.9454 383.64597 335.94394 C 383.50147 335.9369 383.3779 336.04195 383.35823 336.1842 C 383.3385 336.3263 383.43015 336.4603 383.56967 336.4935 C 383.60566 336.502 387.231 337.35135 392.1878 337.35135 C 394.56523 337.35135 396.8787 337.1583 399.06406 336.77727 C 403.1388 336.06294 403.4241 334.04246 403.43426 333.9568 C 403.44847 333.83706 403.38405 333.7218 403.27455 333.67105 Z" fill="#73a1fb"/>
          </g>
        </g>
      </g>
      <g id="Group_69">
        <g id="Group_77">
          <g id="Graphic_79">
            <path d="M 361.91543 421.18367 C 360.3444 422.2886 358.56383 423.54096 357.60977 425.6129 C 355.95267 429.22774 361.0006 433.17075 361.21637 433.33683 C 361.2665 433.3754 361.32654 433.39467 361.38637 433.39467 C 361.4499 433.39467 361.51354 433.37295 361.5652 433.32966 C 361.6654 433.24585 361.69383 433.1035 361.63367 432.98753 C 361.6154 432.95233 359.80344 429.4328 359.87078 426.9079 C 359.8946 426.0285 361.12532 425.03086 362.4282 423.97466 C 363.62154 423.00726 364.97424 421.9108 365.76567 420.6282 C 367.50312 417.80485 365.57203 415.02867 365.5523 415.0009 C 365.4756 414.8932 365.33403 414.8542 365.21297 414.9073 C 365.09204 414.96067 365.02504 415.0914 365.05266 415.2207 C 365.0566 415.2391 365.4321 417.075 364.38714 418.96643 C 363.9567 419.74803 363.0108 420.4133 361.91543 421.18367 Z" fill="#db380e"/>
          </g>
          <g id="Graphic_78">
            <path d="M 368.53435 422.42866 C 368.6452 422.3452 368.6777 422.1929 368.6107 422.0714 C 368.54358 421.94987 368.3975 421.8963 368.26772 421.94555 C 368.00084 422.047 361.7323 424.46335 361.7323 427.3829 C 361.7323 429.3955 362.59198 430.45864 363.2197 431.23507 C 363.46595 431.5396 363.6785 431.8026 363.74857 432.0271 C 363.9458 432.6741 363.47857 433.8435 363.28207 434.23956 C 363.22543 434.3534 363.2532 434.49137 363.34954 434.5745 C 363.4016 434.61947 363.4666 434.6423 363.5317 434.6423 C 363.58707 434.6423 363.64272 434.62584 363.6908 434.59237 C 363.79858 434.51747 366.32494 432.73127 365.87185 430.57924 C 365.70305 429.76124 365.3011 429.1636 364.9464 428.6362 C 364.39697 427.81906 364.0001 427.22884 364.60216 426.1387 C 365.30753 424.86716 368.502 422.45283 368.53435 422.42866 Z" fill="#db380e"/>
          </g>
        </g>
        <g id="Group_70">
          <g id="Graphic_76">
            <path d="M 352.21705 434.68853 C 352.1096 435.01027 352.16034 435.3294 352.3636 435.6118 C 353.04314 436.5552 355.45017 437.07464 359.14157 437.07464 C 359.14177 437.07464 359.1419 437.07464 359.14203 437.07464 C 359.6422 437.07464 360.17027 437.0648 360.71115 437.0454 C 366.613 436.8342 368.80203 434.9955 368.89234 434.91736 C 368.99076 434.83217 369.01705 434.6903 368.9559 434.57557 C 368.89467 434.4609 368.7627 434.40325 368.6366 434.438 C 366.55803 435.0055 362.67678 435.20696 359.98466 435.20696 C 356.97227 435.20696 355.43815 434.98995 355.06256 434.8297 C 355.25527 434.5651 356.44394 434.09253 357.9169 433.8028 C 358.0577 433.7752 358.15444 433.64515 358.1405 433.5024 C 358.12655 433.3596 358.0066 433.2507 357.8631 433.2507 C 356.9997 433.2507 352.66967 433.32003 352.21705 434.68853 Z" fill="#73a1fb"/>
          </g>
          <g id="Graphic_75">
            <path d="M 371.9659 432.79475 C 370.7486 432.79475 369.59426 433.4049 369.54565 433.43073 C 369.4331 433.491 369.376 433.6201 369.40686 433.74416 C 369.43787 433.868 369.54923 433.95507 369.67693 433.9552 C 369.70277 433.9552 372.27355 433.97625 372.50637 435.4451 C 372.71263 436.71226 370.07398 438.7654 369.03983 439.44966 C 368.92814 439.52357 368.88477 439.66635 368.93664 439.78986 C 368.9808 439.895 369.08313 439.96073 369.1935 439.96073 C 369.21275 439.96073 369.23228 439.95873 369.25167 439.9546 C 369.4971 439.9021 375.2552 438.6332 374.6464 435.28067 C 374.27497 433.22606 372.98364 432.79475 371.9659 432.79475 Z" fill="#73a1fb"/>
          </g>
          <g id="Graphic_74">
            <path d="M 368.01704 439.0394 C 368.0371 438.932 367.9924 438.8228 367.903 438.76003 L 366.52237 437.79296 C 366.45503 437.7458 366.36996 437.731 366.29094 437.7519 C 366.27653 437.75557 364.83272 438.13515 362.73654 438.3679 C 361.9046 438.4612 360.9728 438.5105 360.04164 438.5105 C 357.946 438.5105 356.57576 438.26424 356.3762 438.0836 C 356.3498 438.0329 356.35815 438.00984 356.36286 437.997 C 356.3991 437.8962 356.59342 437.7764 356.71867 437.729 C 356.857 437.6778 356.93157 437.5276 356.88853 437.38655 C 356.84564 437.2453 356.70014 437.16223 356.55657 437.1967 C 355.1716 437.5309 354.4944 437.9983 354.54366 438.5858 C 354.6312 439.62743 357.04386 440.16207 359.08353 440.3034 C 359.37685 440.32344 359.69407 440.3336 360.02617 440.3336 C 360.02637 440.3336 360.0265 440.3336 360.0267 440.3336 C 363.41834 440.3336 367.76636 439.26944 367.8098 439.2586 C 367.91597 439.2327 367.9969 439.147 368.01704 439.0394 Z" fill="#73a1fb"/>
          </g>
          <g id="Graphic_73">
            <path d="M 357.6082 441.2749 C 357.71277 441.2069 357.75912 441.0776 357.722 440.95855 C 357.685 440.8395 357.57365 440.76125 357.44854 440.7629 C 357.26293 440.76783 355.6324 440.8414 355.51824 441.87954 C 355.4837 442.1898 355.57256 442.4733 355.78247 442.72197 C 356.3679 443.4158 357.94825 443.82816 360.61293 443.9826 C 360.92816 444.00155 361.24838 444.01105 361.5648 444.01105 C 364.9525 444.01105 367.2341 442.95034 367.32967 442.9052 C 367.4223 442.86136 367.4834 442.7703 367.48884 442.66805 C 367.4943 442.5658 367.44322 442.46876 367.35583 442.4153 L 365.611 441.35015 C 365.55044 441.3132 365.478 441.301 365.40893 441.31515 C 365.3979 441.3175 364.29005 441.54724 362.61814 441.7742 C 362.3018 441.81725 361.9056 441.8391 361.44075 441.8391 C 359.77064 441.8391 357.913 441.56623 357.5567 441.38753 C 357.55154 441.3542 357.5581 441.31183 357.6082 441.2749 Z" fill="#73a1fb"/>
          </g>
          <g id="Graphic_72">
            <path d="M 359.98592 447.2137 C 367.74577 447.2071 371.91058 445.82713 372.7129 444.95873 C 372.9969 444.65154 373.0276 444.3607 373.0035 444.1707 C 372.94386 443.7032 372.518 443.417 372.4697 443.3859 C 372.35324 443.311 372.1969 443.3306 372.10608 443.43537 C 372.01543 443.54016 372.0133 443.6933 372.1043 443.798 C 372.15323 443.86097 372.1815 443.96636 372.0384 444.1096 C 371.71767 444.40915 368.4827 445.31846 363.0964 445.59165 C 362.35856 445.62997 361.58466 445.6495 360.79635 445.6496 C 355.9737 445.6496 352.4443 444.989 351.98097 444.6041 C 352.15954 444.34753 353.408 443.9376 354.73564 443.7057 C 354.88525 443.6796 354.98632 443.53863 354.96315 443.38855 C 354.93997 443.23854 354.80165 443.1353 354.65044 443.15487 C 354.613 443.16 354.4859 443.16755 354.33873 443.1766 C 352.1481 443.31033 349.61664 443.6084 349.48456 444.73713 C 349.44445 445.08105 349.54665 445.3933 349.78844 445.66503 C 350.38005 446.32976 352.0805 447.21356 359.98566 447.21356 C 359.9858 447.2137 359.9858 447.2137 359.98592 447.2137 Z" fill="#73a1fb"/>
          </g>
          <g id="Graphic_71">
            <path d="M 374.23706 445.20344 C 374.12735 445.1527 373.99773 445.17834 373.9159 445.26666 C 373.90456 445.27894 372.73787 446.4989 369.23 447.2153 C 367.8871 447.48436 365.3663 447.62083 361.73766 447.62083 C 358.10224 447.62083 354.64294 447.4778 354.60847 447.47633 C 354.46397 447.4693 354.3404 447.57435 354.32073 447.7166 C 354.301 447.8587 354.39265 447.9927 354.53217 448.0259 C 354.56816 448.0344 358.1935 448.88375 363.1503 448.88375 C 365.52773 448.88375 367.8412 448.6907 370.02656 448.30966 C 374.1013 447.59533 374.3866 445.57485 374.39676 445.4892 C 374.41097 445.36946 374.34656 445.2542 374.23706 445.20344 Z" fill="#73a1fb"/>
          </g>
        </g>
      </g>
      <g id="Group_80">
        <g id="Group_88">
          <g id="Graphic_90">
            <path d="M 290.76453 566.6709 C 289.1935 567.7758 287.41293 569.0282 286.45887 571.1001 C 284.80177 574.71495 289.8497 578.65796 290.06547 578.82404 C 290.1156 578.8626 290.17564 578.8819 290.23547 578.8819 C 290.29902 578.8819 290.36264 578.8602 290.4143 578.8169 C 290.5145 578.73306 290.54293 578.5907 290.48277 578.47474 C 290.4645 578.43955 288.65254 574.92 288.71988 572.3951 C 288.7437 571.5157 289.97443 570.5181 291.2773 569.4619 C 292.47064 568.4945 293.82334 567.39803 294.61477 566.1154 C 296.35222 563.29206 294.42113 560.5159 294.4014 560.4881 C 294.3247 560.3804 294.18313 560.3414 294.06207 560.3945 C 293.94114 560.4479 293.87414 560.57864 293.90176 560.7079 C 293.90568 560.7263 294.2812 562.5622 293.23624 564.45364 C 292.8058 565.23525 291.8599 565.9005 290.76453 566.6709 Z" fill="#db380e"/>
          </g>
          <g id="Graphic_89">
            <path d="M 297.38345 567.9159 C 297.49428 567.8324 297.5268 567.6801 297.4598 567.5586 C 297.39268 567.4371 297.2466 567.3835 297.11682 567.43277 C 296.84994 567.53423 290.58138 569.95056 290.58138 572.8701 C 290.58138 574.8827 291.44108 575.94586 292.0688 576.7223 C 292.31505 577.0268 292.5276 577.2898 292.59767 577.5143 C 292.7949 578.1613 292.32767 579.3307 292.13117 579.7268 C 292.07453 579.8406 292.1023 579.9786 292.19864 580.0617 C 292.2507 580.1067 292.3157 580.1295 292.3808 580.1295 C 292.43617 580.1295 292.49182 580.11305 292.5399 580.0796 C 292.64768 580.0047 295.17404 578.2185 294.72095 576.06645 C 294.55215 575.24846 294.1502 574.6508 293.7955 574.1234 C 293.24607 573.3063 292.84922 572.71605 293.45126 571.6259 C 294.15663 570.3544 297.3511 567.94004 297.38345 567.9159 Z" fill="#db380e"/>
          </g>
        </g>
        <g id="Group_81">
          <g id="Graphic_87">
            <path d="M 281.06615 580.17574 C 280.9587 580.4975 281.00944 580.8166 281.2127 581.099 C 281.89224 582.0424 284.29927 582.56185 287.99067 582.56185 C 287.99087 582.56185 287.991 582.56185 287.99113 582.56185 C 288.4913 582.56185 289.01937 582.552 289.56025 582.53264 C 295.4621 582.3214 297.65113 580.48274 297.74144 580.4046 C 297.83986 580.3194 297.86615 580.17754 297.805 580.0628 C 297.74377 579.9481 297.6118 579.89046 297.4857 579.9252 C 295.40713 580.4927 291.52588 580.6942 288.83376 580.6942 C 285.82137 580.6942 284.28725 580.47716 283.91166 580.3169 C 284.10437 580.0523 285.29304 579.57975 286.766 579.29 C 286.9068 579.2624 287.00354 579.1324 286.9896 578.9896 C 286.97565 578.8468 286.85572 578.7379 286.7122 578.7379 C 285.8488 578.7379 281.51877 578.80724 281.06615 580.17574 Z" fill="#73a1fb"/>
          </g>
          <g id="Graphic_86">
            <path d="M 300.815 578.282 C 299.5977 578.282 298.44336 578.8921 298.39475 578.91794 C 298.2822 578.97824 298.22508 579.1073 298.25596 579.2314 C 298.28697 579.3552 298.39833 579.4423 298.52603 579.4424 C 298.55187 579.4424 301.12265 579.4635 301.35547 580.9323 C 301.56173 582.1995 298.92308 584.2526 297.88893 584.9369 C 297.77724 585.0108 297.73387 585.15356 297.78574 585.2771 C 297.8299 585.3822 297.93223 585.44794 298.0426 585.44794 C 298.06185 585.44794 298.08138 585.44595 298.10077 585.4418 C 298.3462 585.3893 304.1043 584.1204 303.4955 580.7679 C 303.12407 578.7133 301.83274 578.282 300.815 578.282 Z" fill="#73a1fb"/>
          </g>
          <g id="Graphic_85">
            <path d="M 296.86614 584.5266 C 296.8862 584.41924 296.8415 584.31 296.75212 584.24725 L 295.37147 583.2802 C 295.30413 583.233 295.21906 583.2182 295.14004 583.2391 C 295.12563 583.2428 293.68182 583.62236 291.58564 583.8551 C 290.7537 583.9484 289.8219 583.9977 288.89074 583.9977 C 286.7951 583.9977 285.42486 583.75146 285.2253 583.5708 C 285.19888 583.5201 285.20725 583.49705 285.21196 583.48424 C 285.24822 583.3834 285.44252 583.26364 285.56777 583.2162 C 285.7061 583.165 285.78067 583.0148 285.73763 582.87377 C 285.69474 582.7325 285.54924 582.64944 285.40567 582.6839 C 284.0207 583.0181 283.3435 583.4855 283.39276 584.073 C 283.4803 585.11465 285.89296 585.6493 287.93263 585.7906 C 288.22595 585.81065 288.54317 585.8208 288.87527 585.8208 C 288.87547 585.8208 288.8756 585.8208 288.8758 585.8208 C 292.26744 585.8208 296.61546 584.75665 296.6589 584.7458 C 296.76507 584.7199 296.84602 584.6342 296.86614 584.5266 Z" fill="#73a1fb"/>
          </g>
          <g id="Graphic_84">
            <path d="M 286.45728 586.7621 C 286.56187 586.6941 286.60822 586.5648 286.5711 586.44576 C 286.5341 586.3267 286.42275 586.2485 286.29764 586.2501 C 286.11203 586.25504 284.4815 586.3286 284.36734 587.36675 C 284.3328 587.677 284.42166 587.9605 284.63157 588.2092 C 285.217 588.903 286.79735 589.3154 289.46203 589.46984 C 289.77726 589.4888 290.09748 589.49826 290.4139 589.49826 C 293.80162 589.49826 296.0832 588.43755 296.17877 588.3924 C 296.2714 588.3486 296.3325 588.2575 296.33794 588.15526 C 296.3434 588.053 296.29232 587.956 296.20493 587.9025 L 294.4601 586.83736 C 294.39954 586.80044 294.3271 586.7882 294.25803 586.80236 C 294.247 586.8047 293.13915 587.03445 291.46724 587.2614 C 291.15088 587.30446 290.7547 587.3263 290.28986 587.3263 C 288.61974 587.3263 286.7621 587.05345 286.4058 586.87475 C 286.40064 586.8414 286.4072 586.79904 286.45728 586.7621 Z" fill="#73a1fb"/>
          </g>
          <g id="Graphic_83">
            <path d="M 288.83503 592.7009 C 296.59487 592.6943 300.75968 591.31434 301.562 590.44595 C 301.84602 590.13875 301.8767 589.8479 301.8526 589.6579 C 301.79296 589.1904 301.3671 588.9042 301.31882 588.8731 C 301.20234 588.7982 301.04602 588.8178 300.95518 588.9226 C 300.86453 589.0274 300.8624 589.1805 300.9534 589.2852 C 301.00233 589.3482 301.0306 589.4536 300.8875 589.5968 C 300.56677 589.8964 297.33178 590.8057 291.9455 591.0789 C 291.20766 591.1172 290.43376 591.1367 289.64545 591.13684 C 284.82282 591.13684 281.2934 590.4762 280.83007 590.09134 C 281.00864 589.83474 282.25708 589.4248 283.58474 589.1929 C 283.73435 589.1668 283.83543 589.02585 283.81225 588.8758 C 283.78907 588.72576 283.65075 588.6225 283.49954 588.6421 C 283.4621 588.6472 283.335 588.6548 283.18783 588.6638 C 280.99722 588.79754 278.46574 589.09564 278.33366 590.22435 C 278.29355 590.5683 278.39575 590.8805 278.63754 591.15224 C 279.22915 591.817 280.92962 592.7008 288.83476 592.7008 C 288.8349 592.7009 288.8349 592.7009 288.83503 592.7009 Z" fill="#73a1fb"/>
          </g>
          <g id="Graphic_82">
            <path d="M 303.08616 590.69065 C 302.97645 590.6399 302.84683 590.66555 302.765 590.7539 C 302.75366 590.76616 301.58697 591.9861 298.07912 592.7025 C 296.7362 592.9716 294.2154 593.10804 290.58676 593.10804 C 286.95134 593.10804 283.49204 592.965 283.45757 592.96354 C 283.31307 592.9565 283.1895 593.06156 283.16983 593.2038 C 283.1501 593.3459 283.24175 593.4799 283.38127 593.5131 C 283.41726 593.5216 287.0426 594.37096 291.99942 594.37096 C 294.37683 594.37096 296.6903 594.1779 298.87566 593.7969 C 302.95042 593.08254 303.2357 591.06206 303.24586 590.9764 C 303.26007 590.8567 303.19566 590.7414 303.08616 590.69065 Z" fill="#73a1fb"/>
          </g>
        </g>
      </g>
      <g id="Group_91">
        <g id="Group_99">
          <g id="Graphic_101">
            <path d="M 285.25754 1046.2999 C 283.6865 1047.4049 281.90594 1048.6572 280.95188 1050.7292 C 279.29478 1054.344 284.34272 1058.287 284.55848 1058.4531 C 284.6086 1058.4917 284.66864 1058.5109 284.72848 1058.5109 C 284.79203 1058.5109 284.85564 1058.4892 284.9073 1058.4459 C 285.0075 1058.3621 285.03594 1058.2197 284.97577 1058.1038 C 284.9575 1058.0686 283.14555 1054.549 283.2129 1052.0242 C 283.23672 1051.1447 284.46743 1050.1471 285.77032 1049.0909 C 286.96365 1048.1235 288.31634 1047.0271 289.10777 1045.7444 C 290.84523 1042.9211 288.91413 1040.1449 288.8944 1040.1172 C 288.8177 1040.0095 288.67613 1039.9705 288.55507 1040.0235 C 288.43415 1040.0769 288.36714 1040.2077 288.39477 1040.337 C 288.3987 1040.3554 288.7742 1042.1912 287.72925 1044.0827 C 287.2988 1044.8643 286.3529 1045.5295 285.25754 1046.2999 Z" fill="#db380e"/>
          </g>
          <g id="Graphic_100">
            <path d="M 291.87645 1047.5449 C 291.9873 1047.4614 292.01982 1047.3092 291.95282 1047.1876 C 291.8857 1047.0661 291.7396 1047.0125 291.60983 1047.0618 C 291.34295 1047.1633 285.0744 1049.5796 285.0744 1052.4992 C 285.0744 1054.5117 285.93408 1055.5749 286.56182 1056.3513 C 286.80806 1056.6559 287.02062 1056.9188 287.09068 1057.1433 C 287.2879 1057.7903 286.82067 1058.9598 286.62418 1059.3558 C 286.56753 1059.4696 286.5953 1059.6076 286.69165 1059.6908 C 286.7437 1059.7357 286.80872 1059.7586 286.8738 1059.7586 C 286.92918 1059.7586 286.98483 1059.7421 287.0329 1059.7086 C 287.1407 1059.6337 289.66705 1057.8475 289.21396 1055.6955 C 289.04515 1054.8775 288.6432 1054.2798 288.28852 1053.7524 C 287.73907 1052.9353 287.34223 1052.3451 287.94427 1051.255 C 288.64964 1049.9834 291.8441 1047.5691 291.87645 1047.5449 Z" fill="#db380e"/>
          </g>
        </g>
        <g id="Group_92">
          <g id="Graphic_98">
            <path d="M 275.55916 1059.8048 C 275.4517 1060.1265 275.50244 1060.4457 275.7057 1060.728 C 276.38525 1061.6715 278.79228 1062.1909 282.48368 1062.1909 C 282.48388 1062.1909 282.484 1062.1909 282.48414 1062.1909 C 282.9843 1062.1909 283.51238 1062.1811 284.05326 1062.1617 C 289.95512 1061.9504 292.14414 1060.1118 292.23445 1060.0336 C 292.33286 1059.9484 292.35916 1059.8066 292.298 1059.6918 C 292.23677 1059.5771 292.10483 1059.5195 291.97872 1059.5542 C 289.90013 1060.1217 286.0189 1060.3232 283.32677 1060.3232 C 280.31438 1060.3232 278.78026 1060.1062 278.40467 1059.946 C 278.59738 1059.6813 279.78605 1059.2088 281.259 1058.919 C 281.3998 1058.8914 281.49655 1058.7614 281.4826 1058.6186 C 281.46866 1058.4759 281.34873 1058.367 281.20522 1058.367 C 280.3418 1058.367 276.01178 1058.4363 275.55916 1059.8048 Z" fill="#73a1fb"/>
          </g>
          <g id="Graphic_97">
            <path d="M 295.308 1057.911 C 294.0907 1057.911 292.93637 1058.5211 292.88776 1058.547 C 292.7752 1058.6073 292.7181 1058.7364 292.74897 1058.8604 C 292.77998 1058.9843 292.89134 1059.0713 293.01904 1059.0715 C 293.04487 1059.0715 295.61566 1059.0925 295.84848 1060.5614 C 296.05474 1061.8285 293.4161 1063.8817 292.38194 1064.5659 C 292.27024 1064.6398 292.22688 1064.7826 292.27874 1064.9061 C 292.3229 1065.0112 292.42524 1065.077 292.5356 1065.077 C 292.55486 1065.077 292.5744 1065.075 292.59377 1065.0709 C 292.8392 1065.0183 298.5973 1063.7495 297.9885 1060.3969 C 297.61708 1058.3423 296.32574 1057.911 295.308 1057.911 Z" fill="#73a1fb"/>
          </g>
          <g id="Graphic_96">
            <path d="M 291.35915 1064.1557 C 291.3792 1064.0483 291.3345 1063.939 291.24513 1063.8763 L 289.86447 1062.9092 C 289.79714 1062.8621 289.71207 1062.8473 289.63305 1062.8682 C 289.61864 1062.8718 288.17483 1063.2514 286.07865 1063.4842 C 285.2467 1063.5775 284.3149 1063.6267 283.38375 1063.6267 C 281.2881 1063.6267 279.91787 1063.3805 279.71832 1063.1999 C 279.6919 1063.1491 279.70025 1063.1261 279.70497 1063.1133 C 279.74123 1063.0125 279.93553 1062.8927 280.06077 1062.8453 C 280.1991 1062.7941 280.27367 1062.6439 280.23064 1062.5028 C 280.18774 1062.3616 280.04225 1062.2785 279.89868 1062.313 C 278.5137 1062.6472 277.8365 1063.1145 277.88577 1063.702 C 277.9733 1064.7437 280.38597 1065.2783 282.42564 1065.4196 C 282.71895 1065.4397 283.03618 1065.4499 283.36827 1065.4499 C 283.36847 1065.4499 283.3686 1065.4499 283.3688 1065.4499 C 286.76044 1065.4499 291.10846 1064.3857 291.1519 1064.3749 C 291.25808 1064.349 291.33903 1064.2632 291.35915 1064.1557 Z" fill="#73a1fb"/>
          </g>
          <g id="Graphic_95">
            <path d="M 280.9503 1066.3912 C 281.05488 1066.3232 281.10123 1066.1939 281.0641 1066.0748 C 281.02712 1065.9557 280.91576 1065.8775 280.79065 1065.8792 C 280.60504 1065.8841 278.9745 1065.9577 278.86035 1066.9958 C 278.8258 1067.306 278.91467 1067.5895 279.12458 1067.8382 C 279.71 1068.532 281.29035 1068.9444 283.95504 1069.0989 C 284.27027 1069.1178 284.5905 1069.1273 284.9069 1069.1273 C 288.29463 1069.1273 290.57622 1068.0666 290.67178 1068.0214 C 290.7644 1067.9776 290.8255 1067.8866 290.83095 1067.7843 C 290.8364 1067.682 290.78533 1067.585 290.69794 1067.5316 L 288.9531 1066.4664 C 288.89255 1066.4295 288.8201 1066.4173 288.75104 1066.4314 C 288.74 1066.4337 287.63216 1066.6635 285.96025 1066.8905 C 285.6439 1066.9335 285.2477 1066.9554 284.78286 1066.9554 C 283.11274 1066.9554 281.2551 1066.6825 280.89882 1066.5038 C 280.89364 1066.4705 280.90022 1066.4281 280.9503 1066.3912 Z" fill="#73a1fb"/>
          </g>
          <g id="Graphic_94">
            <path d="M 283.32803 1072.33 C 291.08788 1072.3234 295.2527 1070.9434 296.055 1070.075 C 296.33903 1069.7678 296.3697 1069.4769 296.3456 1069.287 C 296.28597 1068.8194 295.8601 1068.5332 295.81183 1068.5022 C 295.69535 1068.4272 295.53903 1068.4468 295.4482 1068.5516 C 295.35754 1068.6564 295.3554 1068.8095 295.4464 1068.9143 C 295.49533 1068.9772 295.52362 1069.0826 295.3805 1069.2258 C 295.05977 1069.5254 291.8248 1070.4347 286.4385 1070.7079 C 285.70066 1070.7462 284.92677 1070.7657 284.13846 1070.7659 C 279.31583 1070.7659 275.7864 1070.1053 275.32308 1069.7204 C 275.50165 1069.4638 276.7501 1069.0539 278.07775 1068.822 C 278.22736 1068.7959 278.32843 1068.6549 278.30526 1068.5048 C 278.28208 1068.3548 278.14376 1068.2515 277.99255 1068.2711 C 277.9551 1068.2762 277.828 1068.2838 277.68084 1068.2928 C 275.49023 1068.4266 272.95875 1068.7247 272.82667 1069.8534 C 272.78656 1070.1973 272.88876 1070.5096 273.13054 1070.7813 C 273.72216 1071.446 275.42262 1072.3298 283.32777 1072.3298 C 283.3279 1072.33 283.3279 1072.33 283.32803 1072.33 Z" fill="#73a1fb"/>
          </g>
          <g id="Graphic_93">
            <path d="M 297.57916 1070.3197 C 297.46946 1070.269 297.33984 1070.2946 297.25802 1070.3829 C 297.24667 1070.3952 296.07997 1071.6151 292.57213 1072.3315 C 291.2292 1072.6006 288.7084 1072.7371 285.07977 1072.7371 C 281.44435 1072.7371 277.98505 1072.594 277.95058 1072.5926 C 277.80608 1072.5855 277.6825 1072.6906 277.66284 1072.8328 C 277.64312 1072.975 277.73476 1073.109 277.87428 1073.1422 C 277.91027 1073.1507 281.5356 1074 286.49243 1074 C 288.86984 1074 291.1833 1073.807 293.36867 1073.4259 C 297.44343 1072.7116 297.7287 1070.6911 297.73887 1070.6054 C 297.75308 1070.4857 297.68867 1070.3704 297.57916 1070.3197 Z" fill="#73a1fb"/>
          </g>
        </g>
      </g>
      <g id="Group_102">
        <g id="Graphic_110">
          <path d="M 194.7111 488.8076 L 193.94847 488.04496 L 188.62298 482.7189 C 188.62242 482.71835 188.62242 482.71835 188.62186 482.71835 L 188.1904 482.28633 C 187.99148 482.08797 187.72756 481.9787 187.44683 481.9787 L 171.1846 481.9787 C 170.51947 481.9787 169.80448 482.492 169.80448 483.61826 L 169.80448 503.832 L 169.80448 513.0984 L 169.80448 513.3578 C 169.80448 513.82683 170.27572 514.2835 170.83326 514.4275 C 170.86184 514.43536 170.8893 514.446 170.91844 514.4516 C 171.00585 514.469 171.09494 514.4785 171.1846 514.4785 L 193.63972 514.4785 C 193.72938 514.4785 193.81847 514.469 193.90588 514.4516 C 193.93502 514.446 193.96248 514.43536 193.99106 514.4275 C 194.5486 514.2835 195.01984 513.82683 195.01984 513.3578 L 195.01984 513.0984 L 195.01984 503.832 L 195.01984 489.81116 C 195.01984 489.3814 194.96773 489.06366 194.7111 488.8076 Z M 188.29574 483.9763 L 193.02223 488.7028 L 188.29574 488.7028 Z M 171.1846 513.3578 C 171.14481 513.3578 171.10895 513.3438 171.07365 513.3304 C 170.9868 513.2889 170.92516 513.2015 170.92516 513.0984 L 170.92516 504.9527 L 193.89916 504.9527 L 193.89916 513.0984 C 193.89916 513.2015 193.83752 513.2889 193.75067 513.3304 C 193.71537 513.3438 193.6795 513.3578 193.63972 513.3578 Z M 170.92516 503.832 L 170.92516 483.61826 C 170.92516 483.49667 170.94365 483.0994 171.1846 483.0994 L 187.20756 483.0994 C 187.18907 483.17 187.17506 483.24283 187.17506 483.3185 L 187.17506 489.7002 C 186.87696 489.43125 186.4864 489.26314 186.05438 489.26314 C 185.7445 489.26314 185.49404 489.5142 185.49404 489.8235 C 185.49404 490.1328 185.7445 490.3838 186.05438 490.3838 C 186.36369 490.3838 186.61472 490.6354 186.61472 490.94417 L 186.61472 493.18553 C 186.61472 493.85794 186.91843 494.45527 187.38911 494.86656 C 186.91843 495.27785 186.61472 495.8752 186.61472 496.5476 L 186.61472 498.78895 C 186.61472 499.0977 186.36369 499.3493 186.05438 499.3493 C 185.7445 499.3493 185.49404 499.6003 185.49404 499.90963 C 185.49404 500.21894 185.7445 500.47 186.05438 500.47 C 186.98118 500.47 187.7354 499.71575 187.7354 498.78895 L 187.7354 496.5476 C 187.7354 495.9295 188.23803 495.4269 188.85609 495.4269 C 189.16596 495.4269 189.41643 495.17587 189.41643 494.86656 C 189.41643 494.55725 189.16596 494.3062 188.85609 494.3062 C 188.23803 494.3062 187.7354 493.8036 187.7354 493.18553 L 187.7354 490.94417 C 187.7354 490.51214 187.56674 490.1216 187.29834 489.8235 L 193.68007 489.8235 C 193.75571 489.8235 193.82856 489.8095 193.89916 489.791 C 193.89916 489.7994 193.89972 489.80275 193.89972 489.81116 L 193.89972 503.832 Z" fill="black"/>
        </g>
        <g id="Graphic_109">
          <path d="M 175.32608 510.79707 C 175.31543 511.047 175.23026 511.22517 175.06944 511.3294 C 174.90863 511.4336 174.6929 511.4863 174.42225 511.4863 C 174.31523 511.4863 174.20036 511.47396 174.07764 511.4482 C 173.95493 511.4224 173.83725 511.39327 173.72519 511.3602 C 173.61312 511.32715 173.50945 511.2913 173.41476 511.2532 C 173.32006 511.2151 173.24721 511.17754 173.19622 511.14224 L 172.80567 511.76253 C 172.9082 511.8393 173.0326 511.9082 173.1811 511.9693 C 173.32958 512.0304 173.48368 512.0853 173.6445 512.13404 C 173.80531 512.1828 173.96109 512.2181 174.11182 512.24107 C 174.26255 512.26404 174.39423 512.2758 174.5063 512.2758 C 174.731 512.2758 174.94953 512.25395 175.16134 512.2108 C 175.37315 512.16766 175.56086 512.0909 175.72448 511.98107 C 175.8881 511.87124 176.0181 511.72555 176.11504 511.54456 C 176.21198 511.3636 176.26073 511.13943 176.26073 510.8744 L 176.26073 506.47683 L 175.32608 506.47683 Z" fill="black"/>
        </g>
        <g id="Graphic_108">
          <path d="M 180.2173 509.4713 C 180.04135 509.34354 179.85084 509.23483 179.64631 509.14574 C 179.4418 509.05665 179.25295 508.96475 179.07925 508.87005 C 178.90554 508.77535 178.76041 508.6661 178.64274 508.5406 C 178.52507 508.41505 178.4668 508.2503 178.4668 508.04635 C 178.4668 507.96454 178.48697 507.8788 178.52787 507.7897 C 178.56878 507.7006 178.62481 507.6199 178.69654 507.5482 C 178.76826 507.4765 178.8495 507.4171 178.94196 507.36834 C 179.03442 507.3196 179.1308 507.29045 179.23334 507.28036 C 179.41713 507.26523 179.56787 507.26243 179.68554 507.2725 C 179.8032 507.2826 179.89735 507.30053 179.96907 507.3263 C 180.0408 507.3521 180.0957 507.3773 180.13381 507.4031 C 180.17191 507.42885 180.20666 507.449 180.23747 507.46415 C 180.24252 507.4591 180.25765 507.43334 180.28342 507.3874 C 180.3092 507.34144 180.34002 507.2837 180.37532 507.2148 C 180.41062 507.1459 180.44928 507.0719 180.49019 506.9929 C 180.5311 506.9139 180.56696 506.84105 180.59721 506.7744 C 180.44872 506.67744 180.2554 506.60683 180.01502 506.5637 C 179.77463 506.52054 179.53705 506.4987 179.30282 506.4987 C 179.07308 506.4987 178.85455 506.534 178.64779 506.6057 C 178.44102 506.67744 178.26003 506.7811 178.1037 506.91614 C 177.94736 507.0512 177.82408 507.2159 177.73219 507.41036 C 177.6403 507.6048 177.59322 507.82726 177.59322 508.07717 C 177.59322 508.35286 177.6515 508.5826 177.76917 508.7664 C 177.88684 508.9502 178.03477 509.1099 178.21352 509.2449 C 178.39227 509.37996 178.5839 509.49763 178.78787 509.5974 C 178.99184 509.6971 179.18235 509.7963 179.35886 509.89604 C 179.53537 509.9958 179.68162 510.1067 179.79929 510.22944 C 179.91696 510.35215 179.97523 510.5001 179.97523 510.6738 C 179.97523 510.9601 179.8923 511.17586 179.72644 511.321 C 179.56058 511.4661 179.32132 511.5395 179.01033 511.5395 C 178.90778 511.5395 178.79852 511.5289 178.68085 511.5087 C 178.56317 511.4885 178.44606 511.46163 178.3284 511.428 C 178.21072 511.3944 178.09753 511.3591 177.9877 511.321 C 177.87788 511.2829 177.78766 511.2431 177.71594 511.2022 L 177.55512 511.86115 C 177.64197 511.9379 177.74564 512.0029 177.86555 512.0567 C 177.98546 512.1105 178.11154 512.15253 178.2449 512.18335 C 178.3777 512.21417 178.50938 512.236 178.63938 512.24835 C 178.76938 512.2607 178.89602 512.2674 179.01873 512.2674 C 179.30507 512.2674 179.56002 512.22426 179.78472 512.1374 C 180.00942 512.05055 180.19825 511.93456 180.35178 511.7889 C 180.50532 511.6432 180.62355 511.4745 180.70816 511.28344 C 180.79277 511.09237 180.8348 510.894 180.8348 510.6895 C 180.8348 510.388 180.77652 510.14147 180.65885 509.9504 C 180.54118 509.7593 180.39325 509.59906 180.2173 509.4713 Z" fill="black"/>
        </g>
        <g id="Graphic_107">
          <path d="M 185.70248 507.2344 C 185.49068 506.994 185.243 506.8119 184.95947 506.6864 C 184.67594 506.5609 184.3655 506.4987 184.02874 506.4987 C 183.69198 506.4987 183.38155 506.5609 183.09802 506.6864 C 182.81448 506.8119 182.56681 506.994 182.355 507.2344 C 182.1432 507.4748 181.97677 507.7746 181.85686 508.1343 C 181.73695 508.49406 181.677 508.9121 181.677 509.3867 C 181.677 509.8613 181.73695 510.28043 181.85686 510.643 C 181.97677 511.0055 182.1432 511.307 182.355 511.5468 C 182.56681 511.7866 182.81448 511.9682 183.09802 512.0909 C 183.38155 512.2136 183.69198 512.2747 184.02874 512.2747 C 184.3655 512.2747 184.67594 512.2136 184.95947 512.0909 C 185.243 511.9682 185.49068 511.7872 185.70248 511.5468 C 185.9143 511.3064 186.08072 511.0055 186.20063 510.643 C 186.32054 510.28043 186.3805 509.8613 186.3805 509.3867 C 186.3805 508.9121 186.32054 508.49406 186.20063 508.1343 C 186.08072 507.7746 185.9143 507.4748 185.70248 507.2344 Z M 185.32313 510.3869 C 185.24637 510.6598 185.14046 510.8811 185.00542 511.0498 C 184.87038 511.21844 184.71684 511.34004 184.54594 511.41344 C 184.37504 511.48685 184.1946 511.5244 184.00577 511.5244 C 183.82198 511.5244 183.6466 511.48516 183.48073 511.4056 C 183.31487 511.326 183.16638 511.20163 183.03638 511.03017 C 182.90638 510.8587 182.80384 510.6385 182.72987 510.3673 C 182.6559 510.0961 182.61612 509.76996 182.61108 509.3867 C 182.61612 508.9933 182.65703 508.6616 182.7338 508.39096 C 182.81056 508.1203 182.91647 507.89954 183.0515 507.7281 C 183.18655 507.5566 183.34008 507.43614 183.511 507.3644 C 183.6819 507.2927 183.86232 507.2574 184.05116 507.2574 C 184.23495 507.2574 184.41034 507.2955 184.5762 507.37226 C 184.74206 507.449 184.89055 507.574 185.02055 507.7477 C 185.15055 507.9214 185.2531 508.14217 185.32706 508.4106 C 185.40102 508.679 185.4408 509.00453 185.44585 509.38725 C 185.4408 509.7806 185.3999 510.114 185.32313 510.3869 Z" fill="black"/>
        </g>
        <g id="Graphic_106">
          <path d="M 190.824 510.4827 L 188.6101 506.59114 L 187.67545 506.59114 L 187.67545 512.23714 L 188.6101 512.23714 L 188.6101 508.3456 L 190.824 512.23714 L 191.75866 512.23714 L 191.75866 506.59114 L 190.824 506.59114 Z" fill="black"/>
        </g>
        <g id="Graphic_105">
          <path d="M 177.64926 493.18553 L 177.64926 490.94417 C 177.64926 490.6354 177.9003 490.3838 178.2096 490.3838 C 178.51947 490.3838 178.76994 490.1328 178.76994 489.8235 C 178.76994 489.5142 178.51947 489.26314 178.2096 489.26314 C 177.2828 489.26314 176.52857 490.01736 176.52857 490.94417 L 176.52857 493.18553 C 176.52857 493.8036 176.02595 494.3062 175.4079 494.3062 C 175.09802 494.3062 174.84755 494.55725 174.84755 494.86656 C 174.84755 495.17587 175.09802 495.4269 175.4079 495.4269 C 176.02595 495.4269 176.52857 495.9295 176.52857 496.5476 L 176.52857 498.78895 C 176.52857 499.71575 177.2828 500.47 178.2096 500.47 C 178.51947 500.47 178.76994 500.21894 178.76994 499.90963 C 178.76994 499.6003 178.51947 499.3493 178.2096 499.3493 C 177.9003 499.3493 177.64926 499.0977 177.64926 498.78895 L 177.64926 496.5476 C 177.64926 495.8752 177.34555 495.27785 176.87487 494.86656 C 177.34555 494.45527 177.64926 493.85794 177.64926 493.18553 Z" fill="black"/>
        </g>
        <g id="Graphic_104">
          <circle cx="182.13199" cy="492.90536" r="0.84051397362674" fill="black"/>
        </g>
        <g id="Graphic_103">
          <path d="M 182.13199 495.98724 C 181.82212 495.98724 181.57165 496.2383 181.57165 496.5476 L 181.57165 498.2286 C 181.57165 498.5379 181.82212 498.78895 182.13199 498.78895 C 182.44186 498.78895 182.69233 498.5379 182.69233 498.2286 L 182.69233 496.5476 C 182.69233 496.2383 182.44186 495.98724 182.13199 495.98724 Z" fill="black"/>
        </g>
      </g>
      <g id="Group_120">
        <g id="Graphic_128">
          <path d="M 489.7816 654.0458 L 489.019 653.2831 L 483.6935 647.9571 C 483.69295 647.9565 483.69295 647.9565 483.6924 647.9565 L 483.2609 647.5245 C 483.062 647.32615 482.7981 647.2169 482.51735 647.2169 L 466.2551 647.2169 C 465.59 647.2169 464.875 647.73015 464.875 648.85644 L 464.875 669.0702 L 464.875 678.3366 L 464.875 678.596 C 464.875 679.065 465.34625 679.5217 465.9038 679.6657 C 465.93236 679.6735 465.9598 679.6842 465.98896 679.6898 C 466.07637 679.70716 466.16547 679.7167 466.2551 679.7167 L 488.71025 679.7167 C 488.7999 679.7167 488.889 679.70716 488.9764 679.6898 C 489.00555 679.6842 489.033 679.6735 489.0616 679.6657 C 489.6191 679.5217 490.09037 679.065 490.09037 678.596 L 490.09037 678.3366 L 490.09037 669.0702 L 490.09037 655.0493 C 490.09037 654.61955 490.03825 654.3018 489.7816 654.0458 Z M 483.36627 649.2145 L 488.09275 653.941 L 483.36627 653.941 Z M 466.2551 678.596 C 466.21534 678.596 466.1795 678.582 466.1442 678.56855 C 466.0573 678.5271 465.9957 678.4397 465.9957 678.3366 L 465.9957 670.1909 L 488.9697 670.1909 L 488.9697 678.3366 C 488.9697 678.4397 488.90805 678.5271 488.8212 678.56855 C 488.7859 678.582 488.75003 678.596 488.71025 678.596 Z M 465.9957 669.0702 L 465.9957 648.85644 C 465.9957 648.73484 466.0142 648.3376 466.2551 648.3376 L 482.2781 648.3376 C 482.2596 648.4082 482.2456 648.481 482.2456 648.55666 L 482.2456 654.9384 C 481.9475 654.6694 481.5569 654.5013 481.1249 654.5013 C 480.81503 654.5013 480.56456 654.75235 480.56456 655.06166 C 480.56456 655.371 480.81503 655.622 481.1249 655.622 C 481.4342 655.622 481.68524 655.8736 481.68524 656.18234 L 481.68524 658.4237 C 481.68524 659.0961 481.98895 659.69344 482.45964 660.1047 C 481.98895 660.516 481.68524 661.11335 481.68524 661.78576 L 481.68524 664.0271 C 481.68524 664.3359 481.4342 664.5875 481.1249 664.5875 C 480.81503 664.5875 480.56456 664.8385 480.56456 665.1478 C 480.56456 665.4571 480.81503 665.70815 481.1249 665.70815 C 482.0517 665.70815 482.8059 664.9539 482.8059 664.0271 L 482.8059 661.78576 C 482.8059 661.1677 483.30855 660.6651 483.9266 660.6651 C 484.2365 660.6651 484.48695 660.41404 484.48695 660.1047 C 484.48695 659.7954 484.2365 659.5444 483.9266 659.5444 C 483.30855 659.5444 482.8059 659.0418 482.8059 658.4237 L 482.8059 656.18234 C 482.8059 655.7503 482.63726 655.3598 482.36886 655.06166 L 488.7506 655.06166 C 488.82624 655.06166 488.8991 655.04765 488.9697 655.02916 C 488.9697 655.0376 488.97024 655.0409 488.97024 655.0493 L 488.97024 669.0702 Z" fill="black"/>
        </g>
        <g id="Graphic_127">
          <path d="M 470.3966 676.03524 C 470.38596 676.28515 470.3008 676.46334 470.13997 676.5676 C 469.97915 676.6718 469.7634 676.7245 469.4928 676.7245 C 469.38575 676.7245 469.2709 676.7121 469.14816 676.68636 C 469.02545 676.6606 468.9078 676.63144 468.7957 676.5984 C 468.68364 676.5653 468.58 676.5295 468.4853 676.49136 C 468.3906 676.45326 468.31774 676.4157 468.26675 676.3804 L 467.8762 677.0007 C 467.97873 677.0775 468.1031 677.1464 468.2516 677.2075 C 468.4001 677.26855 468.5542 677.3235 468.715 677.3722 C 468.87584 677.421 469.0316 677.4563 469.18234 677.47924 C 469.3331 677.5022 469.46476 677.514 469.5768 677.514 C 469.8015 677.514 470.02006 677.4921 470.23186 677.449 C 470.4437 677.4058 470.6314 677.3291 470.795 677.21924 C 470.9586 677.1094 471.0886 676.9637 471.18557 676.7827 C 471.2825 676.60175 471.33125 676.3776 471.33125 676.1126 L 471.33125 671.715 L 470.3966 671.715 Z" fill="black"/>
        </g>
        <g id="Graphic_126">
          <path d="M 475.2878 674.7095 C 475.1119 674.5817 474.92136 674.473 474.71684 674.3839 C 474.5123 674.2948 474.3235 674.2029 474.1498 674.1082 C 473.97607 674.0135 473.83094 673.9043 473.71327 673.77875 C 473.5956 673.6532 473.5373 673.4885 473.5373 673.2845 C 473.5373 673.2027 473.5575 673.117 473.5984 673.0279 C 473.6393 672.9388 473.69534 672.8581 473.76706 672.7864 C 473.8388 672.71466 473.92003 672.6553 474.0125 672.6065 C 474.10494 672.5578 474.2013 672.5286 474.30387 672.5185 C 474.48766 672.5034 474.6384 672.5006 474.75606 672.5107 C 474.87373 672.5208 474.96787 672.5387 475.0396 672.5645 C 475.1113 672.5903 475.16623 672.6155 475.20433 672.64125 C 475.24244 672.667 475.2772 672.6872 475.308 672.7023 C 475.31304 672.6973 475.32817 672.6715 475.35395 672.6256 C 475.3797 672.5796 475.41054 672.5219 475.44584 672.453 C 475.48114 672.38406 475.5198 672.3101 475.5607 672.2311 C 475.6016 672.1521 475.6375 672.0792 475.66774 672.01255 C 475.51925 671.9156 475.32593 671.845 475.08554 671.8019 C 474.84516 671.7587 474.60757 671.7369 474.37335 671.7369 C 474.1436 671.7369 473.9251 671.7722 473.7183 671.8439 C 473.51154 671.9156 473.33055 672.0193 473.1742 672.1543 C 473.0179 672.28936 472.8946 672.4541 472.8027 672.6485 C 472.7108 672.843 472.66375 673.0654 472.66375 673.31534 C 472.66375 673.591 472.722 673.8208 472.8397 674.0046 C 472.95737 674.18836 473.1053 674.34805 473.28404 674.4831 C 473.4628 674.6181 473.65443 674.7358 473.8584 674.83555 C 474.06236 674.9353 474.2529 675.0345 474.4294 675.1342 C 474.6059 675.23395 474.75214 675.3449 474.8698 675.4676 C 474.9875 675.5903 475.04576 675.7383 475.04576 675.912 C 475.04576 676.1983 474.9628 676.414 474.79697 676.5592 C 474.6311 676.7043 474.39184 676.7777 474.08085 676.7777 C 473.9783 676.7777 473.86904 676.76705 473.75137 676.7469 C 473.6337 676.7267 473.5166 676.6998 473.3989 676.6662 C 473.28124 676.6326 473.16805 676.5973 473.0582 676.5592 C 472.9484 676.52106 472.8582 676.4813 472.78646 676.4404 L 472.62564 677.0993 C 472.7125 677.1761 472.81616 677.2411 472.9361 677.2949 C 473.056 677.3487 473.18206 677.3907 473.3154 677.4215 C 473.4482 677.45235 473.5799 677.4742 473.7099 677.4865 C 473.8399 677.49885 473.96654 677.5056 474.08926 677.5056 C 474.3756 677.5056 474.63055 677.4624 474.85524 677.3756 C 475.07994 677.2887 475.2688 677.1727 475.4223 677.02705 C 475.57584 676.88136 475.6941 676.7127 475.7787 676.5216 C 475.8633 676.33054 475.9053 676.1322 475.9053 675.92766 C 475.9053 675.6262 475.84705 675.37964 475.7294 675.1886 C 475.6117 674.9975 475.4638 674.8372 475.2878 674.7095 Z" fill="black"/>
        </g>
        <g id="Graphic_125">
          <path d="M 480.773 672.4726 C 480.5612 672.2322 480.3135 672.0501 480.03 671.9246 C 479.74646 671.7991 479.43603 671.7369 479.09927 671.7369 C 478.7625 671.7369 478.4521 671.7991 478.16854 671.9246 C 477.885 672.0501 477.63734 672.2322 477.4255 672.4726 C 477.2137 672.713 477.0473 673.01276 476.9274 673.3725 C 476.8075 673.7322 476.7475 674.15025 476.7475 674.6249 C 476.7475 675.0995 476.8075 675.5186 476.9274 675.88115 C 477.0473 676.2437 477.2137 676.54515 477.4255 676.785 C 477.63734 677.0248 477.885 677.20636 478.16854 677.3291 C 478.4521 677.4518 478.7625 677.5129 479.09927 677.5129 C 479.43603 677.5129 479.74646 677.4518 480.03 677.3291 C 480.3135 677.20636 480.5612 677.0254 480.773 676.785 C 480.9848 676.5446 481.15124 676.2437 481.27115 675.88115 C 481.39106 675.5186 481.451 675.0995 481.451 674.6249 C 481.451 674.15025 481.39106 673.7322 481.27115 673.3725 C 481.15124 673.01276 480.9848 672.713 480.773 672.4726 Z M 480.39366 675.6251 C 480.3169 675.89796 480.211 676.1193 480.07594 676.28796 C 479.9409 676.4566 479.78737 676.5782 479.61646 676.6516 C 479.44556 676.725 479.26513 676.7626 479.0763 676.7626 C 478.8925 676.7626 478.7171 676.72334 478.55125 676.6438 C 478.3854 676.5642 478.2369 676.4398 478.1069 676.26834 C 477.9769 676.0969 477.87436 675.8767 477.8004 675.60546 C 477.72643 675.33425 477.68665 675.0081 477.6816 674.6249 C 477.68665 674.2315 477.72755 673.8998 477.8043 673.6291 C 477.8811 673.3585 477.987 673.1377 478.12203 672.96625 C 478.2571 672.7948 478.4106 672.6743 478.5815 672.6026 C 478.7524 672.5309 478.93285 672.4956 479.1217 672.4956 C 479.3055 672.4956 479.48086 672.5337 479.6467 672.6104 C 479.8126 672.6872 479.9611 672.81216 480.0911 672.9859 C 480.2211 673.1596 480.3236 673.38034 480.3976 673.64875 C 480.47154 673.91715 480.51133 674.2427 480.5164 674.6254 C 480.51133 675.0188 480.4704 675.3522 480.39366 675.6251 Z" fill="black"/>
        </g>
        <g id="Graphic_124">
          <path d="M 485.89453 675.7209 L 483.6806 671.8293 L 482.74597 671.8293 L 482.74597 677.4753 L 483.6806 677.4753 L 483.6806 673.58375 L 485.89453 677.4753 L 486.8292 677.4753 L 486.8292 671.8293 L 485.89453 671.8293 Z" fill="black"/>
        </g>
        <g id="Graphic_123">
          <path d="M 472.7198 658.4237 L 472.7198 656.18234 C 472.7198 655.8736 472.9708 655.622 473.2801 655.622 C 473.59 655.622 473.84046 655.371 473.84046 655.06166 C 473.84046 654.75235 473.59 654.5013 473.2801 654.5013 C 472.3533 654.5013 471.5991 655.2555 471.5991 656.18234 L 471.5991 658.4237 C 471.5991 659.0418 471.09647 659.5444 470.4784 659.5444 C 470.16855 659.5444 469.9181 659.7954 469.9181 660.1047 C 469.9181 660.41404 470.16855 660.6651 470.4784 660.6651 C 471.09647 660.6651 471.5991 661.1677 471.5991 661.78576 L 471.5991 664.0271 C 471.5991 664.9539 472.3533 665.70815 473.2801 665.70815 C 473.59 665.70815 473.84046 665.4571 473.84046 665.1478 C 473.84046 664.8385 473.59 664.5875 473.2801 664.5875 C 472.9708 664.5875 472.7198 664.3359 472.7198 664.0271 L 472.7198 661.78576 C 472.7198 661.11335 472.4161 660.516 471.9454 660.1047 C 472.4161 659.69344 472.7198 659.0961 472.7198 658.4237 Z" fill="black"/>
        </g>
        <g id="Graphic_122">
          <circle cx="477.2025" cy="658.1435" r="0.840513973626789" fill="black"/>
        </g>
        <g id="Graphic_121">
          <path d="M 477.2025 661.2254 C 476.89264 661.2254 476.64217 661.47645 476.64217 661.78576 L 476.64217 663.4668 C 476.64217 663.7761 476.89264 664.0271 477.2025 664.0271 C 477.5124 664.0271 477.76285 663.7761 477.76285 663.4668 L 477.76285 661.78576 C 477.76285 661.47645 477.5124 661.2254 477.2025 661.2254 Z" fill="black"/>
        </g>
      </g>
      <g id="Group_156">
        <g id="Graphic_164">
          <path d="M 154.45855 645 L 137.43994 645 C 136.96613 645 136.58203 645.3841 136.58203 646.1294 L 136.58203 677.2522 C 136.58203 677.4545 136.96613 677.8386 137.43994 677.8386 L 160.93949 677.8386 C 161.4133 677.8386 161.7974 677.4545 161.7974 677.2522 L 161.7974 652.61035 C 161.7974 652.2022 161.74286 652.07086 161.6467 651.9741 L 154.8233 645.1507 C 154.72654 645.0545 154.59519 645 154.45855 645 Z" fill="#e9e9e0"/>
        </g>
        <g id="Graphic_163">
          <path d="M 154.76055 645.08855 L 154.76055 652.03685 L 161.70885 652.03685 Z" fill="#d9d7ca"/>
        </g>
        <g id="Graphic_162">
          <path d="M 160.93949 677.8386 L 137.43994 677.8386 C 136.96613 677.8386 136.58203 677.4545 136.58203 676.9807 L 136.58203 667.86975 L 161.7974 667.86975 L 161.7974 676.9807 C 161.7974 677.4545 161.4133 677.8386 160.93949 677.8386 Z" fill="#f36fa0"/>
        </g>
        <g id="Group_158">
          <g id="Graphic_161">
            <path d="M 145.425 675.47834 C 145.20569 675.6918 144.95705 675.8525 144.67968 675.9592 C 144.40173 676.0665 144.10266 676.1193 143.7819 676.1193 C 143.42888 676.1193 143.1046 676.0554 142.80788 675.9269 C 142.51116 675.7985 142.25197 675.6091 142.03031 675.35754 C 141.80865 675.106 141.63449 674.7911 141.509 674.4117 C 141.3835 674.0323 141.32076 673.5936 141.32076 673.09695 C 141.32076 672.6003 141.3835 672.1628 141.509 671.78634 C 141.63449 671.4093 141.80806 671.09556 142.03031 670.8446 C 142.25197 670.593 142.51233 670.4024 142.81199 670.2711 C 143.11105 670.1397 143.43475 670.0746 143.7819 670.0746 C 144.10266 670.0746 144.40173 670.128 144.67968 670.2347 C 144.95764 670.342 145.20569 670.5021 145.425 670.7156 L 144.75943 671.309 C 144.62573 671.1536 144.47737 671.0416 144.31435 670.9724 C 144.15133 670.9032 143.98186 670.868 143.80535 670.868 C 143.60774 670.868 143.41891 670.905 143.24006 670.98 C 143.06062 671.0551 142.90053 671.18176 142.75921 671.3606 C 142.6173 671.54005 142.50647 671.7705 142.42672 672.0543 C 142.34697 672.33815 142.30357 672.6847 142.2983 673.0964 C 142.30357 673.4975 142.3452 673.83934 142.42261 674.1226 C 142.50002 674.4058 142.60674 674.63685 142.74338 674.8163 C 142.88001 674.9957 143.03482 675.1259 143.2084 675.2092 C 143.38197 675.29245 143.56493 675.3335 143.75786 675.3335 C 143.95078 675.3335 144.1308 675.2983 144.2991 675.2291 C 144.4674 675.1599 144.62104 675.0473 144.76002 674.8925 Z" fill="white"/>
          </g>
          <g id="Graphic_160">
            <path d="M 150.14731 674.45976 C 150.14731 674.6732 150.10333 674.8808 150.01478 675.08135 C 149.92624 675.2819 149.8025 675.4584 149.64183 675.6103 C 149.48116 675.7622 149.28354 675.8841 149.04839 675.975 C 148.81324 676.0659 148.54584 676.1111 148.24678 676.1111 C 148.11835 676.1111 147.98641 676.104 147.84978 676.0911 C 147.71315 676.0782 147.57593 676.0548 147.43695 676.0231 C 147.29798 675.99086 147.16545 675.9469 147.03996 675.8906 C 146.91447 675.8343 146.80598 675.7663 146.71509 675.6859 L 146.88339 674.9963 C 146.95786 675.0391 147.05286 675.08076 147.1678 675.1206 C 147.28273 675.1605 147.40118 675.198 147.52433 675.2326 C 147.64689 675.2678 147.77003 675.2954 147.89318 675.3171 C 148.01573 675.3382 148.13067 675.3493 148.23798 675.3493 C 148.56402 675.3493 148.81383 675.2731 148.9874 675.1206 C 149.16098 674.9682 149.24777 674.7424 149.24777 674.4433 C 149.24777 674.26155 149.1862 674.10674 149.06364 673.9783 C 148.9405 673.8499 148.78685 673.7338 148.60272 673.6294 C 148.4186 673.525 148.21922 673.4212 148.00518 673.31686 C 147.79114 673.2125 147.59059 673.0893 147.40411 672.948 C 147.21705 672.8067 147.06224 672.63956 146.9391 672.4472 C 146.81595 672.2549 146.75497 672.01445 146.75497 671.72594 C 146.75497 671.4644 146.80305 671.2316 146.89922 671.0287 C 146.99539 670.8258 147.12499 670.6528 147.288 670.5115 C 147.45103 670.3702 147.64102 670.2617 147.8574 670.1866 C 148.07379 670.1116 148.30249 670.0746 148.54291 670.0746 C 148.78861 670.0746 149.03725 670.0975 149.28823 670.14265 C 149.53921 670.1878 149.7421 670.2617 149.8975 670.36314 C 149.86525 670.4323 149.82772 670.5086 149.7855 670.5918 C 149.7427 670.6751 149.70223 670.7519 149.66529 670.82405 C 149.62776 670.8962 149.5955 670.9566 149.56912 671.0047 C 149.54214 671.05275 149.52631 671.0797 149.52103 671.085 C 149.48878 671.0692 149.45301 671.04806 149.41255 671.0211 C 149.37209 670.9941 149.31462 670.9677 149.24015 670.94075 C 149.16509 670.9138 149.06657 670.8956 148.94342 670.88445 C 148.82028 670.8733 148.66254 670.87624 148.4702 670.8927 C 148.36288 670.9038 148.26202 670.9337 148.16527 670.9847 C 148.06851 671.03575 147.98348 671.0979 147.90842 671.173 C 147.83336 671.248 147.77472 671.3319 147.73191 671.4257 C 147.6891 671.51894 147.668 671.60925 147.668 671.6943 C 147.668 671.9077 147.72898 672.0801 147.85213 672.2115 C 147.97469 672.3428 148.12715 672.4572 148.30894 672.5563 C 148.49072 672.6554 148.68834 672.7516 148.90238 672.8448 C 149.11583 672.938 149.3152 673.0524 149.49992 673.1855 C 149.68464 673.3186 149.83769 673.4863 149.96084 673.6863 C 150.08574 673.88684 150.14731 674.1443 150.14731 674.45976 Z" fill="white"/>
          </g>
          <g id="Graphic_159">
            <path d="M 152.72866 676.11166 L 150.89263 670.1708 L 151.99097 670.1708 L 153.36198 675.2696 L 154.81333 670.1708 L 155.90345 670.1708 L 153.97946 676.11166 Z" fill="white"/>
          </g>
        </g>
        <g id="Graphic_157">
          <path d="M 146.5509 654.3825 L 146.5509 652.03685 L 139.51405 652.03685 L 139.51405 654.3825 L 139.51405 655.5553 L 139.51405 656.7281 L 139.51405 657.9009 L 139.51405 659.0737 L 139.51405 660.2465 L 139.51405 661.4193 L 139.51405 662.5921 L 139.51405 664.9377 L 145.37809 664.9377 L 146.5509 664.9377 L 158.86538 664.9377 L 158.86538 662.5921 L 158.86538 661.4193 L 158.86538 660.2465 L 158.86538 659.0737 L 158.86538 657.9009 L 158.86538 656.7281 L 158.86538 654.3825 Z M 140.68686 653.20965 L 145.37809 653.20965 L 145.37809 654.3825 L 140.68686 654.3825 Z M 140.68686 655.5553 L 145.37809 655.5553 L 145.37809 656.7281 L 140.68686 656.7281 Z M 140.68686 657.9009 L 145.37809 657.9009 L 145.37809 659.0737 L 140.68686 659.0737 Z M 140.68686 660.2465 L 145.37809 660.2465 L 145.37809 661.4193 L 140.68686 661.4193 Z M 145.37809 663.7649 L 140.68686 663.7649 L 140.68686 662.5921 L 145.37809 662.5921 Z M 157.69257 663.7649 L 146.5509 663.7649 L 146.5509 662.5921 L 157.69257 662.5921 Z M 157.69257 661.4193 L 146.5509 661.4193 L 146.5509 660.2465 L 157.69257 660.2465 Z M 157.69257 659.0737 L 146.5509 659.0737 L 146.5509 657.9009 L 157.69257 657.9009 Z M 146.5509 656.7281 L 146.5509 655.5553 L 157.69257 655.5553 L 157.69257 656.7281 Z" fill="#c8bdb8"/>
        </g>
      </g>
      <g id="Group_165">
        <g id="Graphic_173">
          <path d="M 249.90662 368.32353 L 249.144 367.5609 L 243.8185 362.23486 C 243.81795 362.2343 243.81795 362.2343 243.8174 362.2343 L 243.38592 361.80227 C 243.187 361.6039 242.92308 361.49465 242.64235 361.49465 L 226.38012 361.49465 C 225.715 361.49465 225 362.0079 225 363.1342 L 225 383.34796 L 225 392.61433 L 225 392.87377 C 225 393.34277 225.47125 393.79945 226.0288 393.94346 C 226.05736 393.9513 226.08482 393.96195 226.11396 393.96755 C 226.20137 393.98493 226.29047 393.99445 226.38012 393.99445 L 248.83525 393.99445 C 248.9249 393.99445 249.014 393.98493 249.1014 393.96755 C 249.13055 393.96195 249.158 393.9513 249.18658 393.94346 C 249.74412 393.79945 250.21537 393.34277 250.21537 392.87377 L 250.21537 392.61433 L 250.21537 383.34796 L 250.21537 369.3271 C 250.21537 368.8973 250.16325 368.5796 249.90662 368.32353 Z M 243.49127 363.49226 L 248.21775 368.21874 L 243.49127 368.21874 Z M 226.38012 392.87377 C 226.34034 392.87377 226.30447 392.85976 226.26917 392.8463 C 226.18232 392.80485 226.12068 392.71743 226.12068 392.61433 L 226.12068 384.46865 L 249.09468 384.46865 L 249.09468 392.61433 C 249.09468 392.71743 249.03305 392.80485 248.9462 392.8463 C 248.9109 392.85976 248.87503 392.87377 248.83525 392.87377 Z M 226.12068 383.34796 L 226.12068 363.1342 C 226.12068 363.0126 226.13917 362.61533 226.38012 362.61533 L 242.40309 362.61533 C 242.3846 362.68593 242.3706 362.75878 242.3706 362.83442 L 242.3706 369.21615 C 242.07248 368.9472 241.68193 368.7791 241.2499 368.7791 C 240.94003 368.7791 240.68956 369.0301 240.68956 369.33943 C 240.68956 369.64873 240.94003 369.89977 241.2499 369.89977 C 241.5592 369.89977 241.81024 370.15136 241.81024 370.4601 L 241.81024 372.70147 C 241.81024 373.3739 242.11395 373.9712 242.58464 374.3825 C 242.11395 374.7938 241.81024 375.3911 241.81024 376.06352 L 241.81024 378.3049 C 241.81024 378.61364 241.5592 378.86523 241.2499 378.86523 C 240.94003 378.86523 240.68956 379.11626 240.68956 379.42557 C 240.68956 379.7349 240.94003 379.9859 241.2499 379.9859 C 242.1767 379.9859 242.93093 379.2317 242.93093 378.3049 L 242.93093 376.06352 C 242.93093 375.44547 243.43355 374.94284 244.0516 374.94284 C 244.36148 374.94284 244.61195 374.6918 244.61195 374.3825 C 244.61195 374.0732 244.36148 373.82216 244.0516 373.82216 C 243.43355 373.82216 242.93093 373.31953 242.93093 372.70147 L 242.93093 370.4601 C 242.93093 370.0281 242.76226 369.63753 242.49386 369.33943 L 248.8756 369.33943 C 248.95124 369.33943 249.02408 369.3254 249.09468 369.30693 C 249.09468 369.31533 249.09524 369.3187 249.09524 369.3271 L 249.09524 383.34796 Z" fill="black"/>
        </g>
        <g id="Graphic_172">
          <path d="M 230.5216 390.313 C 230.51096 390.5629 230.4258 390.7411 230.26497 390.84533 C 230.10415 390.94956 229.88842 391.00223 229.61777 391.00223 C 229.51075 391.00223 229.39588 390.9899 229.27316 390.96412 C 229.15045 390.93835 229.03278 390.9092 228.9207 390.87615 C 228.80864 390.8431 228.70498 390.80723 228.61028 390.76913 C 228.51558 390.731 228.44274 390.6935 228.39175 390.6582 L 228.0012 391.27848 C 228.10373 391.35524 228.22813 391.42416 228.37662 391.48524 C 228.5251 391.5463 228.6792 391.60123 228.84002 391.65 C 229.00084 391.69873 229.1566 391.73403 229.30734 391.757 C 229.45808 391.78 229.58976 391.79175 229.70183 391.79175 C 229.92652 391.79175 230.14506 391.7699 230.35686 391.72675 C 230.56867 391.6836 230.7564 391.60684 230.92 391.497 C 231.08363 391.3872 231.21363 391.2415 231.31057 391.0605 C 231.4075 390.8795 231.45625 390.65538 231.45625 390.39033 L 231.45625 385.99277 L 230.5216 385.99277 Z" fill="black"/>
        </g>
        <g id="Graphic_171">
          <path d="M 235.41283 388.98724 C 235.23688 388.8595 235.04636 388.75078 234.84184 388.6617 C 234.6373 388.5726 234.44848 388.4807 234.27477 388.386 C 234.10107 388.2913 233.95594 388.18203 233.83827 388.0565 C 233.7206 387.931 233.66232 387.76626 233.66232 387.5623 C 233.66232 387.4805 233.6825 387.39475 233.7234 387.30565 C 233.7643 387.21656 233.82034 387.13587 233.89206 387.06415 C 233.96378 386.99242 234.04503 386.93303 234.1375 386.8843 C 234.22994 386.83553 234.32632 386.8064 234.42887 386.7963 C 234.61266 386.78118 234.7634 386.77837 234.88106 386.78846 C 234.99873 386.79855 235.09287 386.81648 235.1646 386.84225 C 235.23632 386.86803 235.29123 386.89324 235.32933 386.919 C 235.36744 386.9448 235.40218 386.96497 235.433 386.9801 C 235.43804 386.97505 235.45317 386.9493 235.47895 386.90333 C 235.50472 386.8574 235.53554 386.79967 235.57084 386.73074 C 235.60614 386.6618 235.6448 386.58786 235.6857 386.50885 C 235.72662 386.42984 235.76248 386.357 235.79274 386.2903 C 235.64425 386.19338 235.45093 386.12277 235.21054 386.07963 C 234.97016 386.0365 234.73257 386.01463 234.49835 386.01463 C 234.2686 386.01463 234.05008 386.04993 233.8433 386.12165 C 233.63654 386.19338 233.45555 386.29704 233.29922 386.4321 C 233.14288 386.56712 233.0196 386.73187 232.9277 386.9263 C 232.83582 387.12074 232.78875 387.3432 232.78875 387.5931 C 232.78875 387.8688 232.84702 388.09854 232.9647 388.28233 C 233.08237 388.4661 233.2303 388.6258 233.40904 388.76086 C 233.5878 388.8959 233.77943 389.01358 233.9834 389.1133 C 234.18736 389.21306 234.37787 389.31224 234.55438 389.412 C 234.7309 389.5117 234.87714 389.62267 234.9948 389.7454 C 235.11248 389.8681 235.17076 390.01603 235.17076 390.18973 C 235.17076 390.47607 235.08783 390.6918 234.92197 390.83693 C 234.7561 390.98206 234.51684 391.05546 234.20585 391.05546 C 234.1033 391.05546 233.99404 391.0448 233.87637 391.02464 C 233.7587 391.00447 233.6416 390.97757 233.52391 390.94395 C 233.40624 390.91033 233.29305 390.87503 233.18323 390.83693 C 233.0734 390.79882 232.98318 390.75904 232.91146 390.71813 L 232.75064 391.3771 C 232.8375 391.45386 232.94116 391.51886 233.06107 391.57266 C 233.18099 391.62645 233.30706 391.66847 233.44042 391.6993 C 233.57322 391.7301 233.7049 391.75196 233.8349 391.7643 C 233.9649 391.7766 234.09154 391.78334 234.21426 391.78334 C 234.5006 391.78334 234.75555 391.7402 234.98024 391.65334 C 235.20494 391.5665 235.39377 391.4505 235.5473 391.3048 C 235.70084 391.1591 235.81907 390.99046 235.90368 390.7994 C 235.9883 390.6083 236.03032 390.40995 236.03032 390.2054 C 236.03032 389.90396 235.97205 389.6574 235.85437 389.46633 C 235.7367 389.27525 235.58877 389.115 235.41283 388.98724 Z" fill="black"/>
        </g>
        <g id="Graphic_170">
          <path d="M 240.898 386.75036 C 240.6862 386.50997 240.43853 386.32786 240.155 386.20234 C 239.87146 386.07683 239.56103 386.01463 239.22427 386.01463 C 238.8875 386.01463 238.57707 386.07683 238.29354 386.20234 C 238.01 386.32786 237.76234 386.50997 237.55053 386.75036 C 237.33872 386.99074 237.1723 387.29053 237.05238 387.65026 C 236.93247 388.01 236.87252 388.428 236.87252 388.90263 C 236.87252 389.37724 236.93247 389.79637 237.05238 390.1589 C 237.1723 390.52145 237.33872 390.8229 237.55053 391.06274 C 237.76234 391.30257 238.01 391.4841 238.29354 391.60684 C 238.57707 391.72955 238.8875 391.79063 239.22427 391.79063 C 239.56103 391.79063 239.87146 391.72955 240.155 391.60684 C 240.43853 391.4841 240.6862 391.30313 240.898 391.06274 C 241.10982 390.82236 241.27624 390.52145 241.39615 390.1589 C 241.51606 389.79637 241.57602 389.37724 241.57602 388.90263 C 241.57602 388.428 241.51606 388.01 241.39615 387.65026 C 241.27624 387.29053 241.10982 386.99074 240.898 386.75036 Z M 240.51866 389.90284 C 240.4419 390.17572 240.336 390.39706 240.20094 390.5657 C 240.0659 390.7344 239.91237 390.856 239.74146 390.9294 C 239.57056 391.0028 239.39013 391.04033 239.2013 391.04033 C 239.0175 391.04033 238.84212 391.0011 238.67625 390.92154 C 238.5104 390.84197 238.3619 390.71757 238.2319 390.5461 C 238.1019 390.37464 237.99936 390.15443 237.9254 389.88323 C 237.85143 389.612 237.81165 389.2859 237.8066 388.90263 C 237.81165 388.50927 237.85255 388.17755 237.92932 387.9069 C 238.0061 387.63626 238.112 387.4155 238.24703 387.244 C 238.38208 387.07255 238.5356 386.9521 238.7065 386.88036 C 238.87742 386.80863 239.05785 386.77333 239.24668 386.77333 C 239.43047 386.77333 239.60586 386.81143 239.77172 386.8882 C 239.93758 386.96497 240.08607 387.08992 240.21607 387.26363 C 240.34607 387.43733 240.44861 387.6581 240.52258 387.9265 C 240.59654 388.1949 240.63633 388.52048 240.64137 388.9032 C 240.63633 389.29655 240.59542 389.62995 240.51866 389.90284 Z" fill="black"/>
        </g>
        <g id="Graphic_169">
          <path d="M 246.01953 389.99866 L 243.80562 386.1071 L 242.87097 386.1071 L 242.87097 391.7531 L 243.80562 391.7531 L 243.80562 387.8615 L 246.01953 391.7531 L 246.95418 391.7531 L 246.95418 386.1071 L 246.01953 386.1071 Z" fill="black"/>
        </g>
        <g id="Graphic_168">
          <path d="M 232.84478 372.70147 L 232.84478 370.4601 C 232.84478 370.15136 233.0958 369.89977 233.40512 369.89977 C 233.715 369.89977 233.96546 369.64873 233.96546 369.33943 C 233.96546 369.0301 233.715 368.7791 233.40512 368.7791 C 232.47832 368.7791 231.7241 369.5333 231.7241 370.4601 L 231.7241 372.70147 C 231.7241 373.31953 231.22147 373.82216 230.60341 373.82216 C 230.29355 373.82216 230.04307 374.0732 230.04307 374.3825 C 230.04307 374.6918 230.29355 374.94284 230.60341 374.94284 C 231.22147 374.94284 231.7241 375.44547 231.7241 376.06352 L 231.7241 378.3049 C 231.7241 379.2317 232.47832 379.9859 233.40512 379.9859 C 233.715 379.9859 233.96546 379.7349 233.96546 379.42557 C 233.96546 379.11626 233.715 378.86523 233.40512 378.86523 C 233.0958 378.86523 232.84478 378.61364 232.84478 378.3049 L 232.84478 376.06352 C 232.84478 375.3911 232.54108 374.7938 232.0704 374.3825 C 232.54108 373.9712 232.84478 373.3739 232.84478 372.70147 Z" fill="black"/>
        </g>
        <g id="Graphic_167">
          <circle cx="237.3275" cy="372.4213" r="0.84051397362674" fill="black"/>
        </g>
        <g id="Graphic_166">
          <path d="M 237.3275 375.5032 C 237.01764 375.5032 236.76717 375.7542 236.76717 376.06352 L 236.76717 377.74455 C 236.76717 378.05386 237.01764 378.3049 237.3275 378.3049 C 237.63738 378.3049 237.88785 378.05386 237.88785 377.74455 L 237.88785 376.06352 C 237.88785 375.7542 237.63738 375.5032 237.3275 375.5032 Z" fill="black"/>
        </g>
      </g>
      <g id="Group_174">
        <g id="Group_182">
          <g id="Graphic_184">
            <path d="M 508.4452 567.3472 C 506.8742 568.45216 505.0936 569.7045 504.13957 571.77646 C 502.48246 575.3913 507.5304 579.3343 507.74616 579.5004 C 507.7963 579.53896 507.8563 579.5582 507.91616 579.5582 C 507.9797 579.5582 508.0433 579.5365 508.095 579.4932 C 508.1952 579.4094 508.2236 579.267 508.16346 579.1511 C 508.1452 579.1159 506.33323 575.59635 506.40057 573.07145 C 506.4244 572.192 507.6551 571.1944 508.958 570.1382 C 510.15133 569.1708 511.504 568.0744 512.29546 566.79173 C 514.0329 563.9684 512.1018 561.1922 512.0821 561.16446 C 512.0054 561.05675 511.8638 561.0178 511.74276 561.0708 C 511.62183 561.1242 511.5548 561.255 511.58245 561.3843 C 511.5864 561.40266 511.9619 563.2385 510.9169 565.13 C 510.4865 565.9116 509.5406 566.57684 508.4452 567.3472 Z" fill="#db380e"/>
          </g>
          <g id="Graphic_183">
            <path d="M 515.06414 568.5922 C 515.175 568.50874 515.2075 568.3565 515.1405 568.23494 C 515.07337 568.1134 514.9273 568.0598 514.7975 568.1091 C 514.5306 568.2106 508.2621 570.6269 508.2621 573.54645 C 508.2621 575.559 509.12177 576.6222 509.7495 577.3986 C 509.99574 577.70316 510.2083 577.9661 510.27837 578.19065 C 510.4756 578.83764 510.00836 580.00706 509.81186 580.4031 C 509.7552 580.5169 509.783 580.6549 509.8793 580.73806 C 509.9314 580.783 509.9964 580.80586 510.0615 580.80586 C 510.11687 580.80586 510.1725 580.7894 510.2206 580.7559 C 510.3284 580.681 512.85473 578.8948 512.40164 576.7428 C 512.23284 575.9248 511.8309 575.32714 511.4762 574.79974 C 510.92676 573.9826 510.5299 573.3924 511.13195 572.30226 C 511.8373 571.0307 515.0318 568.6164 515.06414 568.5922 Z" fill="#db380e"/>
          </g>
        </g>
        <g id="Group_175">
          <g id="Graphic_181">
            <path d="M 498.74684 580.8521 C 498.6394 581.1738 498.6901 581.493 498.8934 581.7753 C 499.57293 582.71876 501.97996 583.2382 505.67136 583.2382 C 505.67156 583.2382 505.6717 583.2382 505.6718 583.2382 C 506.172 583.2382 506.70006 583.22836 507.24094 583.209 C 513.1428 582.99774 515.3318 581.1591 515.42213 581.0809 C 515.52055 580.9957 515.54685 580.8539 515.4857 580.7391 C 515.42446 580.62444 515.2925 580.5668 515.1664 580.6015 C 513.0878 581.16904 509.20657 581.3705 506.51445 581.3705 C 503.50206 581.3705 501.96795 581.1535 501.59235 580.99326 C 501.78506 580.7286 502.97374 580.2561 504.4467 579.96635 C 504.5875 579.9387 504.6842 579.8087 504.6703 579.6659 C 504.65634 579.52316 504.5364 579.41425 504.3929 579.41425 C 503.5295 579.41425 499.19947 579.4836 498.74684 580.8521 Z" fill="#73a1fb"/>
          </g>
          <g id="Graphic_180">
            <path d="M 518.4957 578.9583 C 517.2784 578.9583 516.12405 579.56845 516.07544 579.5943 C 515.9629 579.6546 515.9058 579.7837 515.93665 579.9077 C 515.96766 580.03156 516.079 580.1186 516.2067 580.11876 C 516.23256 580.11876 518.80335 580.1398 519.03617 581.60865 C 519.2424 582.8758 516.60377 584.92896 515.5696 585.6132 C 515.4579 585.6871 515.41456 585.8299 515.4664 585.9534 C 515.5106 586.05854 515.6129 586.1243 515.7233 586.1243 C 515.74254 586.1243 515.76207 586.1223 515.78146 586.1182 C 516.0269 586.06564 521.785 584.79675 521.1762 581.4442 C 520.80477 579.3896 519.5134 578.9583 518.4957 578.9583 Z" fill="#73a1fb"/>
          </g>
          <g id="Graphic_179">
            <path d="M 514.54683 585.20296 C 514.5669 585.0956 514.5222 584.98634 514.4328 584.9236 L 513.05216 583.9565 C 512.9848 583.90936 512.89976 583.89455 512.82073 583.9155 C 512.8063 583.9191 511.3625 584.2987 509.26633 584.53146 C 508.4344 584.62476 507.5026 584.674 506.57143 584.674 C 504.4758 584.674 503.10555 584.4278 502.906 584.2472 C 502.8796 584.19644 502.88794 584.1734 502.89265 584.1606 C 502.9289 584.0598 503.1232 583.94 503.24846 583.89256 C 503.3868 583.84136 503.46136 583.69115 503.4183 583.5501 C 503.3754 583.40886 503.22993 583.3258 503.08636 583.36025 C 501.7014 583.6945 501.0242 584.16184 501.07345 584.74934 C 501.161 585.791 503.57365 586.3256 505.6133 586.46693 C 505.90664 586.487 506.22386 586.49715 506.55596 586.49715 C 506.55616 586.49715 506.5563 586.49715 506.5565 586.49715 C 509.9481 586.49715 514.29615 585.433 514.3396 585.42216 C 514.44576 585.3963 514.5267 585.31054 514.54683 585.20296 Z" fill="#73a1fb"/>
          </g>
          <g id="Graphic_178">
            <path d="M 504.138 587.43846 C 504.24256 587.37046 504.2889 587.2412 504.2518 587.1221 C 504.2148 587.003 504.10344 586.9248 503.97833 586.9265 C 503.7927 586.9314 502.1622 587.00496 502.04803 588.0431 C 502.0135 588.35334 502.10235 588.6368 502.31226 588.8855 C 502.8977 589.5793 504.47804 589.9917 507.1427 590.1462 C 507.45796 590.1651 507.77817 590.1746 508.0946 590.1746 C 511.4823 590.1746 513.7639 589.1139 513.85946 589.0687 C 513.9521 589.0249 514.0132 588.93386 514.01864 588.8316 C 514.0241 588.7293 513.973 588.6323 513.8856 588.57886 L 512.1408 587.5137 C 512.08024 587.4768 512.0078 587.46456 511.9387 587.4787 C 511.9277 587.481 510.81984 587.7108 509.14793 587.9378 C 508.8316 587.9808 508.4354 588.00265 507.97055 588.00265 C 506.3004 588.00265 504.4428 587.7298 504.0865 587.5511 C 504.0813 587.51775 504.0879 587.4754 504.138 587.43846 Z" fill="#73a1fb"/>
          </g>
          <g id="Graphic_177">
            <path d="M 506.5157 593.37724 C 514.27556 593.3707 518.44037 591.9907 519.2427 591.1223 C 519.5267 590.8151 519.5574 590.5242 519.5333 590.33424 C 519.47365 589.86674 519.0478 589.5805 518.9995 589.54945 C 518.88303 589.47454 518.7267 589.4941 518.63587 589.5989 C 518.5452 589.7037 518.5431 589.85685 518.6341 589.9616 C 518.683 590.0245 518.7113 590.1299 518.5682 590.27315 C 518.24746 590.5727 515.0125 591.482 509.6262 591.7552 C 508.88835 591.7935 508.11445 591.81304 507.32614 591.8132 C 502.5035 591.8132 498.9741 591.1526 498.51077 590.7677 C 498.68933 590.5111 499.9378 590.10115 501.26543 589.86926 C 501.41505 589.8432 501.5161 589.7022 501.49294 589.5521 C 501.46977 589.4021 501.33144 589.2988 501.18023 589.3184 C 501.1428 589.32354 501.0157 589.3311 500.8685 589.34014 C 498.6779 589.4739 496.14643 589.772 496.01435 590.9007 C 495.97424 591.2446 496.07644 591.55685 496.3182 591.8286 C 496.90984 592.4933 498.6103 593.3771 506.51545 593.3771 C 506.5156 593.37724 506.5156 593.37724 506.5157 593.37724 Z" fill="#73a1fb"/>
          </g>
          <g id="Graphic_176">
            <path d="M 520.76685 591.367 C 520.65714 591.31626 520.5275 591.3419 520.4457 591.4302 C 520.43435 591.4425 519.26766 592.66245 515.7598 593.37884 C 514.4169 593.6479 511.8961 593.7844 508.26745 593.7844 C 504.63203 593.7844 501.1727 593.64134 501.13826 593.6399 C 500.99376 593.63284 500.8702 593.7379 500.8505 593.88014 C 500.8308 594.02225 500.92244 594.15626 501.06196 594.18946 C 501.09796 594.19796 504.7233 595.0473 509.6801 595.0473 C 512.0575 595.0473 514.371 594.85425 516.55635 594.4732 C 520.6311 593.7589 520.9164 591.7384 520.92656 591.65274 C 520.94077 591.533 520.87635 591.4177 520.76685 591.367 Z" fill="#73a1fb"/>
          </g>
        </g>
      </g>
      <g id="Graphic_193">
        <rect x="242.31525" y="911.2695" width="423.1875" height="67" fill="white"/>
        <text transform="translate(247.31525 916.2695)" fill="black">
          <tspan font-family="Gill Sans" font-weight="bold" font-size="16" fill="black" x="65.96484" y="15">json2flattened</tspan>
          <tspan font-family="Gill Sans" font-size="16" fill="black" y="15"> fields used to </tspan>
          <tspan font-family="Gill Sans" font-size="16" fill="black" y="15">search</tspan>
          <tspan font-family="Gill Sans" font-size="16" fill="black" y="15">, but</tspan>
          <tspan font-family="Gill Sans" font-size="16" fill="black" x="0" y="34">original </tspan>
          <tspan font-family="Gill Sans" font-weight="bold" font-size="16" fill="black" y="34">owl2json</tspan>
          <tspan font-family="Gill Sans" font-size="16" fill="black" y="34"> preserved in </tspan>
          <tspan font-family="Andale Mono" font-size="16" fill="black" y="34">_json</tspan>
          <tspan font-family="Gill Sans" font-size="16" fill="black" y="34"> field used for </tspan>
          <tspan font-family="Gill Sans" font-size="16" fill="black" y="34">response</tspan>
          <tspan font-family="Gill Sans" font-size="16" fill="black" x="11.890625" y="53">so that all data from the OWL is losslessly sent to the client</tspan>
        </text>
      </g>
      <g id="Graphic_194">
        <text transform="translate(-4.181818 1087.2161)" fill="#666">
          <tspan font-family="Gill Sans" font-style="italic" font-size="16" fill="#666" x="0" y="15">Legacy OLS3 clients</tspan>
        </text>
      </g>
      <g id="Line_195">
        <line x1="291.2251" y1="1096.7161" x2="130.1713" y2="1096.7161" marker-end="url(#FilledArrow_Marker)" stroke="#666" stroke-linecap="round" stroke-linejoin="round" stroke-dasharray="1.0,4.0" stroke-width="1"/>
      </g>
      <g id="Line_199">
        <line x1="64" y1="456" x2="64" y2="950.031" marker-end="url(#FilledArrow_Marker_4)" stroke="black" stroke-linecap="round" stroke-linejoin="round" stroke-width="5"/>
      </g>
      <g id="Graphic_200">
        <text transform="translate(28.92837 894.6757) rotate(-90)" fill="black">
          <tspan font-family="Helvetica Neue" font-weight="bold" font-size="22" fill="black" x="17053026e-20" y="21">Arrow directions indicate flow of data</tspan>
        </text>
      </g>
      <g id="Graphic_201">
        <text transform="translate(492.56575 329.9297)" fill="black">
          <tspan font-family="Gill Sans" font-style="italic" font-size="16" fill="black" x="0" y="15">owl2json downloads OWL files from PURLs</tspan>
        </text>
      </g>
      <g id="Line_202">
        <line x1="487.56575" y1="344.04645" x2="464.1851" y2="344.85524" marker-end="url(#StickArrow_Marker)" stroke="black" stroke-linecap="round" stroke-linejoin="round" stroke-dasharray="1.0,4.0" stroke-width="1"/>
      </g>
    </g>
  </g>
</svg>
